<svg xmlns="http://www.w3.org/2000/svg" xmlns:xlink="http://www.w3.org/1999/xlink" width="1080" zoomAndPan="magnify" viewBox="0 0 810 1439.999935" height="1920" preserveAspectRatio="xMidYMid meet" version="1.2"><defs><clipPath id="a015014971"><path d="M 393.046875 1008.316406 L 514.507812 1008.316406 L 514.507812 1117.015625 L 393.046875 1117.015625 Z M 393.046875 1008.316406 "/></clipPath><clipPath id="e059521629"><path d="M 645.613281 628 L 809.996094 628 L 809.996094 775 L 645.613281 775 Z M 645.613281 628 "/></clipPath></defs><g id="4f9ac5f49f"><path style=" stroke:none;fill-rule:nonzero;fill:#80192e;fill-opacity:1;" d="M 365.355469 811.523438 C 252.746094 735.246094 441.304688 665.070312 487.871094 741.03125 C 502.625 767.117188 486.824219 799.105469 463.90625 814.6875 C 434.40625 834.753906 394.636719 828.757812 365.355469 811.523438 "/><path style=" stroke:none;fill-rule:nonzero;fill:#8c192f;fill-opacity:1;" d="M 446.667969 742.785156 C 334.046875 666.507812 522.613281 596.332031 569.179688 672.292969 C 583.941406 698.378906 568.132812 730.367188 545.222656 745.949219 C 515.722656 766.015625 475.949219 760.011719 446.667969 742.785156 "/><path style=" stroke:none;fill-rule:nonzero;fill:#931a2e;fill-opacity:1;" d="M 362.484375 639.964844 C 330.785156 507.6875 517.332031 583.066406 500.480469 670.570312 C 474.578125 743.050781 373.527344 702.746094 362.484375 639.964844 "/><path style=" stroke:none;fill-rule:nonzero;fill:#981b2d;fill-opacity:1;" d="M 480.226562 615.359375 C 390.832031 697.351562 368.820312 519.253906 444.328125 494.511719 C 512.039062 483.304688 524.398438 579.566406 480.226562 615.359375 "/><path style=" stroke:none;fill-rule:nonzero;fill:#86182e;fill-opacity:1;" d="M 540.875 651.265625 C 479.40625 667.960938 467.363281 629.480469 481.144531 591 C 493.609375 556.199219 527.199219 521.394531 564.457031 527.421875 C 629.753906 548.5625 596.539062 639.746094 540.875 651.265625 "/><path style=" stroke:none;fill-rule:nonzero;fill:#89182e;fill-opacity:1;" d="M 517.378906 624.292969 C 490.484375 624.292969 485.914062 601.703125 494.003906 579.105469 C 499.558594 563.597656 511.082031 548.089844 525.4375 539.886719 C 530.519531 569.660156 545.425781 593.566406 569.050781 596.8125 C 566.980469 600.144531 564.578125 603.292969 561.910156 606.167969 C 559.214844 608.398438 556.632812 610.726562 554.144531 613.144531 C 548.707031 617.164062 542.578125 620.109375 535.996094 621.472656 C 528.871094 623.410156 522.6875 624.292969 517.378906 624.292969 "/><path style=" stroke:none;fill-rule:nonzero;fill:#7b1b2d;fill-opacity:1;" d="M 585.484375 712.808594 C 449.5 710.074219 569.539062 548.601562 649.941406 587.007812 C 676.503906 600.859375 680.648438 636.296875 669.894531 661.847656 C 656.058594 694.722656 619.417969 711.332031 585.484375 712.808594 "/><path style=" stroke:none;fill-rule:nonzero;fill:#7f1a2d;fill-opacity:1;" d="M 599.65625 683.230469 C 598.316406 683.230469 596.976562 683.175781 595.636719 683.070312 C 520.664062 681.566406 550.703125 614.945312 595.53125 592.632812 C 597.140625 591.964844 598.777344 591.21875 600.433594 590.398438 C 608.007812 587.261719 615.902344 585.441406 623.695312 585.441406 C 630.429688 585.441406 637.078125 586.796875 643.414062 589.824219 C 689.210938 621.046875 645.363281 683.230469 599.65625 683.230469 "/><path style=" stroke:none;fill-rule:nonzero;fill:#aa1e2d;fill-opacity:1;" d="M 629.992188 569.253906 C 513.425781 676.1875 484.707031 443.933594 583.171875 411.660156 C 616.648438 401.980469 648.578125 428.457031 660.066406 458.578125 C 674.832031 497.351562 657.355469 540.746094 629.992188 569.253906 "/><path style=" stroke:none;fill-rule:nonzero;fill:#b71f2c;fill-opacity:1;" d="M 596.132812 534.160156 C 556.957031 534.160156 554.476562 441.710938 601.097656 426.421875 C 603.875 425.617188 606.640625 425.246094 609.359375 425.246094 C 625.601562 425.246094 640.03125 438.675781 645.75 453.664062 C 654.328125 476.1875 644.175781 501.382812 628.285156 517.945312 C 615.78125 529.417969 605.011719 534.160156 596.132812 534.160156 "/><path style=" stroke:none;fill-rule:nonzero;fill:#bd1f29;fill-opacity:1;" d="M 623.734375 508.289062 C 572.453125 545.949219 598.265625 423.347656 631.988281 477.902344 C 636.046875 488.546875 631.25 500.457031 623.734375 508.289062 "/><path style=" stroke:none;fill-rule:nonzero;fill:#86182e;fill-opacity:1;" d="M 566.84375 791.511719 C 443.632812 733.90625 618.800781 634.925781 676.738281 702.617188 C 695.410156 726.050781 684.84375 760.125 664.667969 779.128906 C 638.691406 803.585938 598.476562 803.917969 566.84375 791.511719 "/><path style=" stroke:none;fill-rule:nonzero;fill:#8a192e;fill-opacity:1;" d="M 593.714844 793.441406 C 485.664062 742.929688 639.277344 656.128906 690.085938 715.492188 C 706.457031 736.039062 697.195312 765.917969 679.496094 782.578125 C 656.722656 804.023438 621.453125 804.316406 593.714844 793.441406 "/><path style=" stroke:none;fill-rule:nonzero;fill:#931a2e;fill-opacity:1;" d="M 445.417969 807.652344 C 413.71875 675.375 600.265625 750.769531 583.414062 838.265625 C 557.519531 910.738281 456.460938 870.449219 445.417969 807.652344 "/><path style=" stroke:none;fill-rule:nonzero;fill:#ce2027;fill-opacity:1;" d="M 392.242188 393.339844 C 502.421875 298.925781 648.339844 495.523438 507.664062 561.683594 C 430.332031 593.183594 352.84375 451.527344 392.242188 393.339844 "/><path style=" stroke:none;fill-rule:nonzero;fill:#d71f26;fill-opacity:1;" d="M 419.285156 408.488281 C 499.621094 338.160156 607.917969 485.179688 504.296875 532.46875 C 447.347656 555.664062 390.273438 451.339844 419.285156 408.488281 "/><path style=" stroke:none;fill-rule:nonzero;fill:#df1e26;fill-opacity:1;" d="M 463.9375 417.578125 C 499.664062 385.199219 549.226562 453.25 502.382812 473.65625 C 476.628906 484.148438 450.8125 436.953125 463.9375 417.578125 "/><path style=" stroke:none;fill-rule:nonzero;fill:#981b2c;fill-opacity:1;" d="M 86.347656 675.667969 C 37.566406 691.9375 0.179688 776.289062 38.996094 815.75 C 98.710938 832.960938 196.375 652.015625 86.347656 675.667969 "/><path style=" stroke:none;fill-rule:nonzero;fill:#a01d2b;fill-opacity:1;" d="M 79.582031 692.433594 C 44.496094 704.148438 17.601562 764.8125 45.519531 793.207031 C 89.832031 804.589844 157.757812 677.46875 79.582031 692.433594 "/><path style=" stroke:none;fill-rule:nonzero;fill:#9f1c2c;fill-opacity:1;" d="M 66.375 794.382812 C 26.796875 817.347656 9.925781 870.839844 41.429688 907.445312 C 81.125 951.539062 135.609375 890.078125 143.90625 850.8125 C 152.597656 809.710938 104.609375 773.019531 66.375 794.382812 "/><path style=" stroke:none;fill-rule:nonzero;fill:#a71d2b;fill-opacity:1;" d="M 72.609375 799.972656 C 42.851562 817.242188 30.148438 857.492188 53.847656 885.015625 C 83.710938 918.1875 124.695312 871.957031 130.929688 842.421875 C 137.46875 811.503906 101.378906 783.90625 72.609375 799.972656 "/><path style=" stroke:none;fill-rule:nonzero;fill:#a41d2e;fill-opacity:1;" d="M 93.351562 890.5 C 58.433594 910.046875 47.136719 951.480469 77.429688 980.800781 C 167.546875 1066.640625 245.003906 811.789062 93.351562 890.5 "/><path style=" stroke:none;fill-rule:nonzero;fill:#af1e2d;fill-opacity:1;" d="M 109.066406 893.144531 C 77.925781 910.574219 67.847656 947.53125 94.863281 973.683594 C 176.628906 1049.933594 243.117188 822.523438 109.066406 893.144531 "/><path style=" stroke:none;fill-rule:nonzero;fill:#931a2e;fill-opacity:1;" d="M 225.085938 954.109375 C 157.570312 907.394531 77.648438 1016.144531 144.683594 1066.554688 C 203.34375 1092.503906 272.523438 1000.152344 225.085938 954.109375 "/><path style=" stroke:none;fill-rule:nonzero;fill:#9e1c2d;fill-opacity:1;" d="M 223.097656 946.449219 C 170.753906 909.027344 106.777344 996.542969 159.789062 1034.988281 C 205.980469 1055.421875 260.445312 982.707031 223.097656 946.449219 "/><path style=" stroke:none;fill-rule:nonzero;fill:#a31c2d;fill-opacity:1;" d="M 222.433594 1029.28125 C 184.945312 1110.816406 331.855469 1138.976562 314.472656 1043.027344 C 302.519531 1002.78125 244.246094 991.160156 222.433594 1029.28125 "/><path style=" stroke:none;fill-rule:nonzero;fill:#ac1e2d;fill-opacity:1;" d="M 243.957031 1032.277344 C 219.488281 1085.492188 315.371094 1103.871094 304.019531 1041.25 C 296.21875 1014.992188 258.191406 1007.398438 243.957031 1032.277344 "/><path style=" stroke:none;fill-rule:nonzero;fill:#bd2026;fill-opacity:1;" d="M 83.996094 648.890625 C 63.8125 688.367188 106.636719 725.140625 145.246094 707.453125 C 181.011719 692.335938 214.253906 636.921875 182.632812 602.742188 C 147.957031 565.253906 98.125 615.816406 83.996094 648.890625 "/><path style=" stroke:none;fill-rule:nonzero;fill:#c22027;fill-opacity:1;" d="M 109.988281 646.503906 C 93.800781 678.125 128.113281 707.589844 159.050781 693.414062 C 187.699219 681.308594 214.332031 636.914062 188.996094 609.535156 C 161.222656 579.503906 121.304688 620.003906 109.988281 646.503906 "/><path style=" stroke:none;fill-rule:nonzero;fill:#a91d2c;fill-opacity:1;" d="M 146.589844 678.199219 C 81.132812 670.484375 36.867188 792.898438 107.507812 812.648438 C 138.039062 812.789062 198.148438 762.988281 197.875 731.238281 C 197.105469 704.515625 173.050781 680.042969 146.589844 678.199219 "/><path style=" stroke:none;fill-rule:nonzero;fill:#b71f2b;fill-opacity:1;" d="M 157.75 687.628906 C 115.53125 682.664062 86.980469 761.625 132.542969 774.363281 C 154.277344 772.839844 189.230469 744.332031 190.828125 721.847656 C 190.335938 704.613281 174.816406 688.828125 157.75 687.628906 "/><path style=" stroke:none;fill-rule:nonzero;fill:#b81e29;fill-opacity:1;" d="M 203.375 784.433594 C 176.78125 713.691406 93.109375 777.828125 94.824219 830.550781 C 97.355469 864.875 138.152344 918.242188 171.367188 880.925781 C 205.8125 854.015625 238.738281 827.644531 203.375 784.433594 "/><path style=" stroke:none;fill-rule:nonzero;fill:#c41e2b;fill-opacity:1;" d="M 208.984375 779.054688 C 187.964844 723.136719 121.824219 773.835938 123.179688 815.511719 C 125.191406 842.640625 157.425781 884.820312 183.695312 855.324219 C 210.484375 835.207031 236.886719 811.652344 208.984375 779.054688 "/><path style=" stroke:none;fill-rule:nonzero;fill:#9f1c2e;fill-opacity:1;" d="M 226.53125 863.957031 C 148.703125 812.542969 99.53125 942.394531 168.933594 986.015625 C 239.125 994.578125 290.199219 912.175781 226.53125 863.957031 "/><path style=" stroke:none;fill-rule:nonzero;fill:#ad1e2e;fill-opacity:1;" d="M 230.265625 860.007812 C 172.1875 820.496094 133.226562 921.488281 186.464844 952.84375 C 239.816406 959.359375 278.699219 896.699219 230.265625 860.007812 "/><path style=" stroke:none;fill-rule:nonzero;fill:#a61d2c;fill-opacity:1;" d="M 279.226562 921.292969 C 238.597656 928.078125 197.21875 989.34375 222.652344 1027.871094 C 247.046875 1062.148438 312.335938 1057.066406 332.230469 1020.527344 C 350.796875 986.4375 318.3125 925.09375 279.226562 921.292969 "/><path style=" stroke:none;fill-rule:nonzero;fill:#ae1e2c;fill-opacity:1;" d="M 281.230469 923.300781 C 247.898438 928.867188 213.96875 979.121094 234.832031 1010.726562 C 254.839844 1038.835938 308.394531 1034.671875 324.707031 1004.703125 C 339.9375 976.742188 313.296875 926.421875 281.230469 923.300781 "/><path style=" stroke:none;fill-rule:nonzero;fill:#ba2029;fill-opacity:1;" d="M 348.753906 977.195312 C 316.746094 994.570312 299.066406 1048.953125 309.617188 1083.851562 C 325.746094 1108.164062 368.621094 1112.855469 390.09375 1094.003906 C 422.757812 1060.976562 421.996094 944.804688 348.753906 977.195312 "/><path style=" stroke:none;fill-rule:nonzero;fill:#c62027;fill-opacity:1;" d="M 360.917969 981.519531 C 339.101562 993.359375 327.050781 1030.433594 334.234375 1054.210938 C 345.230469 1070.773438 374.453125 1073.96875 389.085938 1061.132812 C 411.339844 1038.613281 410.828125 959.457031 360.917969 981.519531 "/><g clip-rule="nonzero" clip-path="url(#a015014971)"><path style=" stroke:none;fill-rule:nonzero;fill:#ab1e2c;fill-opacity:1;" d="M 514.058594 1049.5625 C 518.855469 976.9375 404.742188 1013.296875 394.207031 1060.6875 C 387.617188 1112.011719 436.480469 1130.632812 476.90625 1106.664062 C 487.488281 1100.957031 514.058594 1049.5625 514.058594 1049.5625 "/></g><path style=" stroke:none;fill-rule:nonzero;fill:#b91f2a;fill-opacity:1;" d="M 499.539062 1048.703125 C 503.09375 995 418.683594 1021.882812 410.894531 1056.945312 C 405.382812 1094.25 443.0625 1108.878906 472.070312 1090.945312 C 479.894531 1086.726562 499.539062 1048.703125 499.539062 1048.703125 "/><path style=" stroke:none;fill-rule:nonzero;fill:#cf2027;fill-opacity:1;" d="M 210.113281 482.273438 C 228.910156 466.441406 290.171875 426.707031 308.199219 457.355469 C 323.292969 494.347656 273.339844 526.5 240.878906 527.765625 C 214.421875 528.835938 188.371094 508.507812 210.113281 482.273438 "/><path style=" stroke:none;fill-rule:nonzero;fill:#d71f26;fill-opacity:1;" d="M 228.738281 484.617188 C 244.960938 471.410156 293.84375 438.757812 309.714844 464.039062 C 333.527344 517.839844 194.238281 550.628906 228.738281 484.617188 "/><path style=" stroke:none;fill-rule:nonzero;fill:#b01e2c;fill-opacity:1;" d="M 142.257812 593.3125 C 138.523438 553.585938 188.613281 494.007812 235.199219 506.78125 C 261.679688 513.863281 274.792969 534.660156 273.859375 558.925781 C 272.035156 605.808594 164.476562 662.488281 142.257812 593.3125 "/><path style=" stroke:none;fill-rule:nonzero;fill:#b61f2a;fill-opacity:1;" d="M 166.371094 579.769531 C 161.011719 529.90625 252.671875 484.609375 257.621094 555.921875 C 256.355469 588.421875 181.773438 627.726562 166.371094 579.769531 "/><path style=" stroke:none;fill-rule:nonzero;fill:#c32027;fill-opacity:1;" d="M 200.65625 561.878906 C 196.761719 534.6875 248.238281 511.4375 250.042969 548.976562 C 249.359375 566.566406 208.984375 587.84375 200.65625 561.878906 "/><path style=" stroke:none;fill-rule:nonzero;fill:#bc2028;fill-opacity:1;" d="M 227.609375 604.496094 C 178.648438 607.554688 132.910156 660.527344 160.710938 707.46875 C 184.621094 737.859375 272.902344 713.554688 292.113281 690.792969 C 327.019531 649.480469 273.957031 598.539062 227.609375 604.496094 "/><path style=" stroke:none;fill-rule:nonzero;fill:#c32027;fill-opacity:1;" d="M 225.621094 615.367188 C 198.042969 618.046875 173.25 640.90625 178.542969 670.027344 C 183.558594 705.789062 252.582031 686.160156 266.695312 670.320312 C 288.921875 644.011719 255.128906 611.570312 225.621094 615.367188 "/><path style=" stroke:none;fill-rule:nonzero;fill:#cf2027;fill-opacity:1;" d="M 226.902344 630.574219 C 209.15625 631.679688 192.589844 650.878906 202.65625 667.878906 C 211.328125 678.890625 243.3125 670.085938 250.269531 661.839844 C 262.914062 646.871094 243.695312 628.410156 226.902344 630.574219 "/><path style=" stroke:none;fill-rule:nonzero;fill:#c52027;fill-opacity:1;" d="M 251.957031 702.574219 C 212.894531 698.371094 170.890625 726.917969 152.136719 760.59375 C 137.574219 801.800781 141 871.773438 197.835938 874.386719 C 237.179688 878.003906 310.414062 857.222656 324.722656 815.300781 C 339.761719 771.265625 295.828125 709.109375 251.957031 702.574219 "/><path style=" stroke:none;fill-rule:nonzero;fill:#ce2027;fill-opacity:1;" d="M 250.15625 718.480469 C 221.035156 715.347656 189.734375 736.632812 175.75 761.730469 C 164.890625 792.460938 167.449219 844.613281 209.820312 846.566406 C 307.242188 853.894531 348.273438 756.847656 250.15625 718.480469 "/><path style=" stroke:none;fill-rule:nonzero;fill:#d41f26;fill-opacity:1;" d="M 249.53125 736.851562 C 216.996094 731.105469 192.859375 789.863281 230.492188 797.289062 C 275.03125 802.199219 295.726562 753.242188 249.53125 736.851562 "/><path style=" stroke:none;fill-rule:nonzero;fill:#bc2027;fill-opacity:1;" d="M 270.589844 820.917969 C 136.902344 946.816406 339.265625 1090.222656 415.625 925.675781 C 444.0625 844.492188 339.289062 761.445312 270.589844 820.917969 "/><path style=" stroke:none;fill-rule:nonzero;fill:#c22027;fill-opacity:1;" d="M 286.667969 837.113281 C 193.6875 924.65625 334.421875 1024.398438 387.527344 909.960938 C 407.3125 853.507812 334.445312 795.746094 286.667969 837.113281 "/><path style=" stroke:none;fill-rule:nonzero;fill:#ca2027;fill-opacity:1;" d="M 316.582031 827.140625 C 256.582031 883.636719 347.398438 948 381.667969 874.15625 C 394.433594 837.722656 347.414062 800.445312 316.582031 827.140625 "/><path style=" stroke:none;fill-rule:nonzero;fill:#c32027;fill-opacity:1;" d="M 508.832031 954.652344 C 533.546875 1019.894531 437.300781 1080.519531 385.855469 1041.558594 C 291.691406 963.539062 473.796875 851.265625 508.832031 954.652344 "/><path style=" stroke:none;fill-rule:nonzero;fill:#cb2027;fill-opacity:1;" d="M 476.410156 955.953125 C 491.277344 995.203125 433.382812 1031.636719 402.46875 1008.210938 C 345.839844 961.292969 455.34375 893.792969 476.410156 955.953125 "/><path style=" stroke:none;fill-rule:nonzero;fill:#d51f27;fill-opacity:1;" d="M 461.722656 948.316406 C 470.257812 970.832031 437.027344 991.730469 419.300781 978.292969 C 386.8125 951.375 449.636719 912.652344 461.722656 948.316406 "/><path style=" stroke:none;fill-rule:nonzero;fill:#ca2027;fill-opacity:1;" d="M 526.582031 936.914062 C 374.511719 1002.863281 503.378906 1141.246094 614.050781 1041.761719 C 663.136719 984.449219 590.53125 919.597656 526.582031 936.914062 "/><path style=" stroke:none;fill-rule:nonzero;fill:#d41f26;fill-opacity:1;" d="M 531.671875 943.308594 C 431.425781 987.28125 520.464844 1075.007812 588.285156 1011.179688 C 620.074219 974.078125 573.066406 932.105469 531.671875 943.308594 "/><path style=" stroke:none;fill-rule:nonzero;fill:#dd1e26;fill-opacity:1;" d="M 541.539062 934.351562 C 475.777344 962.539062 535.597656 1020.46875 578.496094 978.640625 C 599.226562 954.433594 568.554688 927.039062 541.539062 934.351562 "/><path style=" stroke:none;fill-rule:nonzero;fill:#b31e2d;fill-opacity:1;" d="M 694.226562 985.953125 C 675.164062 1020.980469 611.828125 1026.671875 606.203125 980.375 C 603.738281 917.449219 735.527344 926.894531 694.226562 985.953125 "/><path style=" stroke:none;fill-rule:nonzero;fill:#c02029;fill-opacity:1;" d="M 685.257812 968.601562 C 672.199219 987.355469 649.144531 1001.90625 626.191406 995.753906 C 610.9375 991.566406 597.851562 978.707031 597.230469 963.019531 C 594.769531 900.097656 726.550781 909.535156 685.257812 968.601562 "/><path style=" stroke:none;fill-rule:nonzero;fill:#d11e2e;fill-opacity:1;" d="M 452.714844 470.003906 C 494.410156 586.953125 334.710938 642.148438 279.078125 536.691406 C 243.851562 443.152344 407.996094 389.242188 452.714844 470.003906 "/><path style=" stroke:none;fill-rule:nonzero;fill:#d81c30;fill-opacity:1;" d="M 428.390625 469.234375 C 453.882812 536.164062 357.921875 569.203125 327.472656 507.988281 C 307.003906 453.628906 402.398438 422.285156 428.390625 469.234375 "/><path style=" stroke:none;fill-rule:nonzero;fill:#e62738;fill-opacity:1;" d="M 412.3125 466.34375 C 421.6875 488.578125 387.1875 500.675781 377.71875 479.628906 C 370.703125 460.996094 403.402344 450.246094 412.3125 466.34375 "/><path style=" stroke:none;fill-rule:nonzero;fill:#da1f26;fill-opacity:1;" d="M 383.632812 535.449219 C 456.050781 581.75 386.417969 709.425781 308.085938 688.308594 C 161.117188 634.851562 219.601562 436.953125 383.632812 535.449219 "/><path style=" stroke:none;fill-rule:nonzero;fill:#e11d26;fill-opacity:1;" d="M 372.683594 541.089844 C 423.878906 573.820312 374.632812 664.082031 319.277344 649.132812 C 212.132812 609.070312 262.125 471.613281 372.683594 541.089844 "/><path style=" stroke:none;fill-rule:nonzero;fill:#e81b2a;fill-opacity:1;" d="M 373.222656 561.007812 C 397.171875 576.320312 374.144531 618.542969 348.242188 611.554688 C 297.476562 593.75 323.8125 527.894531 373.222656 561.007812 "/><path style=" stroke:none;fill-rule:nonzero;fill:#cb2027;fill-opacity:1;" d="M 331.175781 622.695312 C 224.324219 646.171875 233.195312 772.832031 319.277344 819.710938 C 361.542969 841.804688 399.613281 808.535156 421.847656 773.148438 C 459.734375 712.816406 402.144531 620.636719 331.175781 622.695312 "/><path style=" stroke:none;fill-rule:nonzero;fill:#c21e2c;fill-opacity:1;" d="M 773.453125 597.003906 C 755.515625 662.082031 625.332031 703.226562 606.421875 621.480469 C 625.285156 443.601562 789.324219 488.621094 773.453125 597.003906 "/><path style=" stroke:none;fill-rule:nonzero;fill:#cc1e2f;fill-opacity:1;" d="M 741.28125 574.570312 C 730.242188 614.65625 650.027344 640.019531 638.375 589.660156 C 648.890625 482.730469 750.070312 505.066406 741.28125 574.570312 "/><path style=" stroke:none;fill-rule:nonzero;fill:#d81c34;fill-opacity:1;" d="M 704.515625 550.324219 C 699.6875 567.816406 664.695312 578.878906 659.605469 556.902344 C 659.449219 550.535156 665.367188 537.21875 669.066406 531.828125 C 680.957031 514.488281 710.191406 531.246094 704.515625 550.324219 "/><path style=" stroke:none;fill-rule:nonzero;fill:#db1e26;fill-opacity:1;" d="M 347.28125 640.566406 C 275.222656 654.480469 280.46875 745.492188 339.136719 775.417969 C 368.066406 790.539062 394.125 767.769531 409.335938 743.546875 C 435.273438 702.25 395.863281 639.160156 347.28125 640.566406 "/><g clip-rule="nonzero" clip-path="url(#e059521629)"><path style=" stroke:none;fill-rule:nonzero;fill:#bf2027;fill-opacity:1;" d="M 790.933594 658.855469 C 832.824219 693.480469 797.726562 745.136719 761.554688 767.476562 C 711.421875 796.535156 641.589844 730.066406 646.15625 677.90625 C 652.472656 605.808594 754.859375 623.296875 790.933594 658.855469 "/></g><path style=" stroke:none;fill-rule:nonzero;fill:#cc2027;fill-opacity:1;" d="M 774.605469 660.332031 C 804.851562 685.332031 779.515625 722.617188 753.398438 738.742188 C 717.210938 759.71875 666.804688 711.730469 670.105469 674.078125 C 674.660156 622.039062 748.570312 634.664062 774.605469 660.332031 "/><path style=" stroke:none;fill-rule:nonzero;fill:#da1f26;fill-opacity:1;" d="M 739.519531 654.910156 C 753.308594 666.320312 741.757812 683.328125 729.839844 690.679688 C 713.339844 700.246094 690.347656 678.363281 691.855469 661.183594 C 693.933594 637.449219 727.640625 643.210938 739.519531 654.910156 "/><path style=" stroke:none;fill-rule:nonzero;fill:#e81d25;fill-opacity:1;" d="M 364.84375 662.699219 C 324.941406 669.636719 327.367188 722.496094 360.277344 738.386719 C 413.425781 753.910156 418.644531 662.164062 364.84375 662.699219 "/><path style=" stroke:none;fill-rule:nonzero;fill:#be1f28;fill-opacity:1;" d="M 643.902344 717.191406 C 702.246094 694.339844 779.59375 735.488281 791.851562 796.460938 C 794.023438 844.386719 747.929688 895.675781 699.722656 893.988281 C 629.261719 891.34375 555.1875 745.65625 643.902344 717.191406 "/><path style=" stroke:none;fill-rule:nonzero;fill:#c62026;fill-opacity:1;" d="M 657.980469 726.621094 C 745.03125 698.882812 793.269531 823.230469 692.984375 837.535156 C 648.796875 835.875 602.324219 744.480469 657.980469 726.621094 "/><path style=" stroke:none;fill-rule:nonzero;fill:#d01f29;fill-opacity:1;" d="M 663.445312 736.324219 C 703.972656 722.035156 727.265625 783.519531 680.066406 788.988281 C 659.078125 788.207031 637.011719 744.804688 663.445312 736.324219 "/><path style=" stroke:none;fill-rule:nonzero;fill:#d51f26;fill-opacity:1;" d="M 714.246094 891.703125 C 732.953125 988.878906 578.3125 1017.921875 545.6875 929.847656 C 457.511719 742.5 679.847656 716.832031 714.246094 891.703125 "/><path style=" stroke:none;fill-rule:nonzero;fill:#e01e25;fill-opacity:1;" d="M 673.410156 873.832031 C 686.0625 939.5625 581.4375 959.214844 559.371094 899.628906 C 499.710938 772.871094 650.144531 755.515625 673.410156 873.832031 "/><path style=" stroke:none;fill-rule:nonzero;fill:#ec1c25;fill-opacity:1;" d="M 638.910156 846.472656 C 645.582031 881.152344 590.394531 891.515625 578.75 860.09375 C 546.71875 794.140625 627.507812 784.183594 638.910156 846.472656 "/><path style=" stroke:none;fill-rule:nonzero;fill:#e71d25;fill-opacity:1;" d="M 422.832031 775.589844 C 312.109375 818.152344 362.582031 932.71875 452.792969 964.8125 C 507.289062 985.773438 579.730469 940.363281 565.984375 879.976562 C 553.078125 823.277344 481.085938 757.980469 422.832031 775.589844 "/><path style=" stroke:none;fill-rule:nonzero;fill:#ec1c24;fill-opacity:1;" d="M 436.878906 786.992188 C 374.707031 809.65625 403.0625 877.183594 453.847656 894.144531 C 560.300781 913.933594 515.585938 771.222656 436.878906 786.992188 "/><path style=" stroke:none;fill-rule:nonzero;fill:#ec2531;fill-opacity:1;" d="M 442.023438 795.78125 C 410.058594 806.605469 424.496094 843.746094 450.878906 851.730469 C 505.878906 862.683594 483.007812 786.925781 442.023438 795.78125 "/></g></svg>