<svg xmlns="http://www.w3.org/2000/svg" xmlns:xlink="http://www.w3.org/1999/xlink" width="1080" zoomAndPan="magnify" viewBox="0 0 810 1439.999935" height="1920" preserveAspectRatio="xMidYMid meet" version="1.2"><g id="be30e23de4"><path style=" stroke:none;fill-rule:nonzero;fill:#e33036;fill-opacity:1;" d="M 172.425781 770.347656 C 170.804688 769.519531 169.050781 768.992188 167.246094 768.792969 L 138.382812 763.511719 L 112.148438 764.226562 L 89.820312 772.285156 L 66.632812 788.484375 L 46.839844 812.410156 L 26.132812 849.707031 L 12.015625 898.371094 L 8.9375 938.101562 L 13.339844 975.746094 L 23.980469 1008.441406 L 35.054688 1029.953125 L 56.140625 1064.074219 L 80.570312 1090.167969 L 108.390625 1111.5625 L 141.476562 1128.539062 L 169.613281 1132.609375 L 206.472656 1137.09375 L 237.488281 1136.515625 L 277.574219 1128.078125 L 309.171875 1110.601562 L 329.976562 1096.457031 L 348.046875 1078.949219 L 365.128906 1060.464844 L 383.484375 1025.453125 L 397.882812 982.265625 L 407.765625 932.292969 L 407.332031 879.359375 L 398.941406 850.5 L 384.707031 828.460938 L 363.425781 809.761719 L 349.339844 801.96875 L 332.492188 800.050781 L 292.800781 799.023438 L 257.597656 799.289062 L 240.882812 798.296875 L 228.46875 794.984375 L 216.882812 791.015625 L 201.492188 784.066406 Z M 172.425781 770.347656 "/><path style=" stroke:none;fill-rule:nonzero;fill:#e33036;fill-opacity:1;" d="M 491.082031 802.863281 C 476.765625 820.417969 466.289062 841.101562 460.710938 863.359375 C 452.683594 892.101562 452.335938 922.960938 459.71875 951.867188 C 460.527344 955.046875 461.4375 958.222656 463.292969 962.292969 C 470.308594 984.199219 479.828125 1005.792969 495.167969 1022.9375 C 500.78125 1029.207031 507.085938 1034.800781 513.40625 1040.34375 C 516.785156 1043.324219 520.175781 1046.285156 523.753906 1049.03125 C 528.238281 1052.488281 532.972656 1055.617188 537.703125 1058.726562 C 544.523438 1063.210938 551.328125 1067.695312 558.574219 1072.3125 C 581.863281 1082.273438 606.257812 1091.324219 631.894531 1091.492188 C 644.308594 1092.714844 656.902344 1092.601562 669.167969 1090.367188 C 681.433594 1088.148438 693.398438 1083.78125 704.867188 1076.550781 C 752.171875 1048.800781 786.332031 999.671875 796.429688 945.382812 C 801.179688 926.320312 805.582031 906.828125 804.175781 887.234375 C 803.527344 878.21875 801.660156 869.332031 799.421875 860.5625 C 791.347656 828.90625 777.941406 797.75 753.660156 773.921875 C 743.449219 768.394531 733.023438 762.785156 721.601562 760.734375 C 715.84375 759.707031 709.964844 759.59375 704.105469 759.59375 C 692.222656 759.574219 680.042969 759.972656 668.96875 763.613281 C 647.667969 768.859375 626.367188 774.105469 604.140625 779.101562 C 580.457031 784.578125 555.382812 770.398438 531.8125 776.371094 C 528.15625 777.296875 524.644531 778.6875 521.21875 780.242188 C 509.023438 785.753906 498.199219 794.160156 491.082031 802.863281 Z M 491.082031 802.863281 "/><path style=" stroke:none;fill-rule:nonzero;fill:#4e7a15;fill-opacity:1;" d="M 219.679688 786.679688 C 220.472656 768.742188 222.660156 750.871094 225.65625 732.886719 C 230.472656 701.414062 238.613281 670.453125 248.527344 640.867188 C 262.199219 606.484375 277.640625 572.808594 295.136719 539.101562 C 310.34375 512.5625 327.65625 487.230469 346.640625 463.699219 C 353.246094 452.199219 362.546875 442.519531 371.765625 432.988281 C 387.074219 417.117188 402.667969 401.035156 421.800781 390.082031 C 417.992188 397.824219 412.628906 404.792969 405.726562 412.039062 C 400 417.5 394.871094 423.523438 389.757812 429.546875 C 386.246094 433.683594 382.738281 437.820312 379.214844 441.941406 L 352.882812 474.71875 L 323.007812 522.65625 L 299.753906 568.574219 L 278.847656 625.394531 L 263.855469 686.96875 L 250.214844 742.515625 L 248.179688 794.703125 L 246.988281 797.683594 C 246.988281 797.683594 235.203125 796.609375 235.222656 796.027344 C 233.054688 796.078125 230.902344 795.796875 228.816406 795.199219 C 226.398438 794.507812 224.132812 793.414062 221.914062 792.253906 C 221.152344 791.859375 220.359375 791.429688 219.863281 790.734375 C 218.867188 789.328125 219.648438 787.488281 219.679688 786.679688 Z M 219.679688 786.679688 "/><path style=" stroke:none;fill-rule:nonzero;fill:#4e7a15;fill-opacity:1;" d="M 602.800781 778.089844 C 601.457031 772.035156 600.945312 765.796875 601.277344 759.59375 L 593.515625 705.664062 L 569.484375 617.75 L 545.121094 545.027344 L 538.417969 528.035156 L 508.609375 481.386719 L 476.699219 435.402344 L 467.894531 425.011719 L 453.691406 413.5625 L 439.542969 402.605469 L 431.746094 389.105469 L 437.40625 390.5625 L 462.117188 410.21875 L 484.113281 433.449219 L 509.4375 463.730469 L 531.367188 495.484375 L 543.019531 517.113281 L 560.792969 550.289062 L 571.386719 575.65625 L 586.316406 614.078125 L 596.808594 645.964844 L 604.902344 675.085938 L 611.109375 700.238281 C 611.109375 700.238281 620.742188 744.484375 620.675781 745.757812 C 621.914062 755.125 625.773438 764.058594 626.300781 773.507812 C 625.160156 773.277344 623.933594 773.476562 622.910156 774.039062 Z M 602.800781 778.089844 "/><path style=" stroke:none;fill-rule:nonzero;fill:#b81f24;fill-opacity:1;" d="M 651.160156 770.828125 C 669.050781 774.453125 685.386719 785.191406 695.800781 800.183594 C 697.933594 803.257812 699.855469 806.535156 702.503906 809.183594 C 704.785156 811.484375 707.550781 813.222656 710.117188 815.222656 C 720.441406 823.28125 727.179688 835.097656 732.175781 847.191406 C 735.917969 856.242188 738.863281 865.941406 738.019531 875.6875 C 737.144531 885.746094 732.292969 895.027344 730.242188 904.925781 C 729.066406 910.550781 728.816406 916.308594 728.570312 922.050781 C 727.675781 942.253906 726.78125 962.457031 725.90625 982.660156 C 725.640625 988.550781 725.390625 994.507812 726.386719 1000.335938 C 727.0625 1004.339844 728.335938 1008.226562 728.75 1012.265625 C 729.578125 1020.289062 727.015625 1028.25 724.199219 1035.8125 C 719.382812 1048.699219 713.722656 1061.292969 706.96875 1073.40625 C 709.867188 1074.300781 712.796875 1072.378906 715.214844 1070.558594 C 720.789062 1066.339844 726.386719 1062.121094 731.960938 1057.917969 L 763.34375 1024.195312 L 786.597656 981.835938 L 794.691406 953.6875 L 802.351562 921.917969 L 800.285156 865.957031 L 794.90625 842.277344 L 786.796875 821.941406 L 777.511719 803.855469 L 764.914062 785.835938 L 741.828125 767.417969 L 717.050781 760.089844 L 689.972656 760.054688 L 670.9375 763.265625 C 670.9375 763.265625 646.59375 768.476562 646.34375 768.558594 C 646.90625 768.925781 647.519531 769.1875 648.148438 769.453125 C 649.175781 769.917969 650.117188 770.613281 651.160156 770.828125 Z M 651.160156 770.828125 "/><path style=" stroke:none;fill-rule:nonzero;fill:#b81f24;fill-opacity:1;" d="M 260.296875 799.667969 C 265.046875 805.957031 269.714844 812.277344 273.816406 818.332031 C 281.449219 829.617188 288.398438 841.433594 293.363281 854.125 C 302.46875 877.421875 304.550781 902.804688 305.746094 927.777344 C 306.058594 934.230469 306.289062 940.847656 304.335938 947.003906 C 302.632812 952.347656 299.371094 957.03125 296.574219 961.910156 C 288.332031 976.257812 284.011719 992.804688 283.683594 1010.660156 C 287.191406 1025.386719 290.632812 1041.207031 285.171875 1055.335938 C 279.496094 1069.996094 265.574219 1079.460938 254.550781 1090.679688 C 248.347656 1097 242.851562 1104.148438 235.585938 1109.214844 C 228.417969 1114.195312 219.945312 1116.859375 211.601562 1119.457031 C 199.4375 1123.246094 187.273438 1127.035156 174.925781 1130.957031 C 174.378906 1131.964844 174.546875 1133.289062 175.289062 1134.132812 C 176.035156 1134.992188 177.34375 1135.308594 178.402344 1134.894531 L 235.550781 1136.714844 L 265.789062 1131.386719 L 299.738281 1115.683594 L 324.496094 1099.832031 L 347.914062 1077.59375 L 368.523438 1054.476562 L 387.65625 1018.15625 L 396.113281 984.8125 L 408.855469 923.375 L 405.878906 875.4375 L 400.894531 856.839844 L 394.855469 844.890625 L 388.050781 834.617188 L 376.714844 821.015625 L 362.960938 810.589844 L 344.359375 802.285156 L 317.148438 798.957031 L 284.640625 798.808594 L 266.253906 799.703125 "/><path style=" stroke:none;fill-rule:nonzero;fill:#ffffff;fill-opacity:1;" d="M 146.308594 850.734375 C 141.839844 849.160156 136.859375 849.691406 132.421875 851.328125 C 127.988281 852.964844 124.015625 855.628906 120.175781 858.394531 C 115.34375 861.867188 110.164062 866.601562 110.726562 872.523438 C 111.171875 877.222656 115.425781 880.898438 120.027344 881.957031 C 124.628906 883.015625 129.445312 881.925781 133.898438 880.335938 C 138.347656 878.746094 142.617188 876.660156 147.21875 875.621094 C 149.652344 875.058594 152.152344 874.808594 154.570312 874.179688 C 160.164062 872.722656 165.757812 868.191406 165.359375 862.414062 C 165.078125 858.359375 161.835938 855 158.09375 853.378906 C 154.371094 851.742188 150.066406 852.054688 146.308594 850.734375 Z M 146.308594 850.734375 "/><path style=" stroke:none;fill-rule:nonzero;fill:#ffffff;fill-opacity:1;" d="M 127.144531 926.152344 C 125.273438 925.65625 123.253906 926.285156 121.699219 927.410156 C 120.125 928.535156 118.949219 930.109375 117.859375 931.679688 C 115.675781 934.859375 113.65625 938.84375 115.09375 942.417969 C 116.550781 946.027344 121.136719 947.550781 124.925781 946.707031 C 131.117188 945.332031 135.351562 938.863281 135.371094 932.507812 C 135.371094 931.480469 135.285156 930.421875 134.839844 929.496094 C 133.515625 926.78125 129.824219 926.867188 127.144531 926.152344 Z M 127.144531 926.152344 "/><path style=" stroke:none;fill-rule:nonzero;fill:#ffffff;fill-opacity:1;" d="M 564.929688 845.105469 C 560.03125 844.527344 555.199219 844.578125 551.078125 847.308594 C 548.511719 848.996094 532.0625 855.085938 529.015625 858.113281 C 526.269531 860.859375 520.890625 866.683594 520.691406 870.554688 C 520.542969 873.519531 521.535156 878.019531 522.957031 880.632812 C 526.796875 887.648438 531.796875 887.46875 536.992188 887.234375 C 542.191406 887.003906 547.222656 884.554688 552.039062 882.585938 C 558.890625 879.773438 565.558594 876.214844 570.839844 871.019531 C 573.605469 868.304688 575.988281 865.078125 577.0625 861.355469 C 578.140625 857.632812 577.726562 853.363281 575.375 850.285156 C 572.875 847.027344 568.125 845.058594 564.929688 845.105469 Z M 564.929688 845.105469 "/><path style=" stroke:none;fill-rule:nonzero;fill:#ffffff;fill-opacity:1;" d="M 590.070312 881.476562 C 585.96875 881.792969 581.945312 883.726562 579.429688 886.972656 C 576.914062 890.214844 576.054688 894.796875 577.59375 898.601562 C 578.269531 900.308594 579.496094 901.894531 581.21875 902.492188 C 583.1875 903.171875 585.40625 902.410156 587.058594 901.117188 C 588.714844 899.84375 589.921875 898.105469 591.261719 896.5 C 592.671875 894.8125 594.226562 893.257812 595.417969 891.4375 C 596.609375 889.601562 597.453125 887.433594 597.1875 885.265625 C 596.925781 883.097656 595.320312 880.996094 593.167969 880.667969 C 591.828125 880.46875 590.484375 880.914062 590.070312 881.476562 Z M 590.070312 881.476562 "/><path style=" stroke:none;fill-rule:nonzero;fill:#ffffff;fill-opacity:1;" d="M 683.964844 770.578125 C 677.394531 778.753906 668.375 784.910156 658.394531 788.070312 C 637.886719 794.539062 614.847656 788.335938 594.640625 795.679688 C 612.679688 794.722656 630.6875 793.445312 648.679688 791.824219 C 655.8125 791.179688 663.308594 790.371094 669.152344 786.214844 C 672.046875 784.164062 674.367188 781.382812 676.648438 778.652344 C 678.816406 776.054688 680.984375 773.457031 683.964844 770.578125 Z M 683.964844 770.578125 "/><path style=" stroke:none;fill-rule:nonzero;fill:#ffffff;fill-opacity:1;" d="M 127.308594 797.648438 C 153.675781 790.039062 182.257812 793.746094 208.175781 802.746094 C 220.292969 806.949219 232.042969 812.292969 244.457031 815.539062 C 257.5 818.945312 271.039062 819.957031 284.492188 820.949219 C 278.667969 821.578125 272.839844 822.207031 266.980469 822.125 C 236.214844 821.742188 208.953125 802.433594 178.816406 796.261719 C 162.613281 792.96875 145.632812 793.546875 127.308594 797.648438 Z M 127.308594 797.648438 "/><path style=" stroke:none;fill-rule:nonzero;fill:#4e7a15;fill-opacity:1;" d="M 414.945312 382.074219 C 412.28125 373.996094 404.554688 368.785156 396.957031 364.964844 C 378.949219 355.910156 358.757812 351.230469 338.597656 351.460938 L 307.019531 348.863281 L 278.121094 352.835938 L 233.714844 362.414062 C 233.714844 362.414062 199.984375 376.347656 199.902344 375.734375 C 181.992188 382.917969 166.253906 394.464844 150.730469 405.898438 L 119.582031 425.675781 L 94.125 440.417969 L 65.773438 454.265625 L 44.207031 461.761719 L 24.296875 466.230469 L 31.613281 470.597656 L 67.3125 496.644531 L 100.066406 520.125 L 136.957031 538.160156 L 168.636719 546.167969 L 207.78125 536.125 L 232.9375 522.273438 L 262.5625 496.976562 L 283.269531 466.890625 L 301.109375 450.84375 L 340.929688 424.351562 L 374.597656 399.296875 L 394.257812 387.78125 L 405.5625 385.945312 Z M 414.945312 382.074219 "/><path style=" stroke:none;fill-rule:nonzero;fill:#4e7a15;fill-opacity:1;" d="M 518.472656 363.191406 C 526.183594 357.898438 533.898438 352.585938 541.609375 347.289062 C 551.128906 340.738281 561.125 333.621094 565.644531 322.984375 C 572.675781 316.53125 577.359375 308.140625 580.007812 299.15625 C 565.230469 298.609375 550.070312 299.617188 535.023438 301.488281 C 514.566406 303.324219 495.535156 312.375 477.144531 321.542969 C 471.882812 324.175781 466.601562 326.820312 461.738281 330.132812 C 444.375 341.878906 433.167969 361.058594 427.128906 381.144531 C 428.121094 382.570312 429.097656 383.992188 430.089844 385.414062 C 445.402344 384.539062 460.777344 383.644531 475.773438 380.5 C 490.765625 377.339844 505.644531 372.011719 518.472656 363.191406 Z M 518.472656 363.191406 "/><path style=" stroke:none;fill-rule:nonzero;fill:#4e7a15;fill-opacity:1;" d="M 425.554688 393.9375 C 395.632812 428.074219 379.097656 473.660156 379.164062 520.539062 C 380.371094 534.851562 377.875 549.179688 375.375 563.328125 L 363.40625 610.273438 C 363.40625 610.273438 355.050781 638.964844 354.785156 638.800781 C 354.851562 640.683594 355.464844 642.554688 356.507812 644.128906 C 364.300781 645.882812 371.714844 640.683594 378.667969 636.730469 C 381.648438 635.027344 384.742188 633.539062 387.835938 632.03125 C 397.683594 627.25 407.53125 622.449219 417.378906 617.667969 L 449.851562 592.136719 L 460.761719 577.824219 L 464.417969 570.625 L 467.265625 562.898438 L 470.277344 546.285156 L 471.832031 530.613281 L 471.003906 519.179688 L 468.308594 505.183594 L 463.277344 489.28125 L 448.976562 452.761719 L 446.988281 441.410156 L 448.082031 427.277344 L 445.449219 418.261719 L 438.035156 407.738281 Z M 425.554688 393.9375 "/><path style=" stroke:none;fill-rule:nonzero;fill:#000000;fill-opacity:1;" d="M 220.109375 1138.683594 C 193.859375 1138.683594 167.578125 1133.472656 143.429688 1128.671875 C 84.34375 1105.722656 37.820312 1056.015625 18.851562 995.683594 C -0.0507812 935.535156 9.433594 868.238281 44.222656 815.667969 C 57.761719 795.21875 72.394531 781.167969 88.929688 772.730469 C 115.277344 759.292969 150.53125 759.722656 183.21875 773.839844 C 188.976562 776.320312 194.671875 779.199219 200.183594 781.996094 C 209.832031 786.878906 219.8125 791.910156 230.320312 794.953125 C 247.070312 799.785156 265.808594 799.054688 283.914062 798.34375 C 289.242188 798.128906 294.769531 797.914062 300.167969 797.847656 C 316.351562 797.632812 333.101562 797.402344 348.859375 802.761719 C 376.464844 812.160156 398.378906 839.082031 406.074219 873.023438 C 413.324219 905.007812 408.113281 938.152344 402.054688 966.363281 C 394.226562 1002.832031 381 1048.652344 347.949219 1079.476562 C 342.835938 1087.058594 334.542969 1093.59375 326.332031 1099.535156 C 309.285156 1111.894531 286.28125 1126.96875 259.648438 1133.933594 C 246.675781 1137.34375 233.382812 1138.683594 220.109375 1138.683594 Z M 132.355469 764.605469 C 116.914062 764.605469 102.269531 767.800781 89.6875 774.21875 C 73.402344 782.527344 58.988281 796.375 45.613281 816.597656 C 11.089844 868.753906 1.671875 935.519531 20.421875 995.203125 C 39.242188 1055.070312 85.402344 1104.382812 143.894531 1127.101562 C 179.925781 1134.230469 220.9375 1142.375 259.238281 1132.347656 C 279.824219 1126.96875 300.214844 1116.429688 325.375 1098.210938 C 333.484375 1092.335938 341.675781 1085.882812 346.640625 1078.484375 C 346.675781 1078.4375 346.722656 1078.386719 346.757812 1078.335938 C 379.511719 1047.824219 392.652344 1002.285156 400.433594 966.015625 C 406.457031 937.984375 411.636719 905.054688 404.46875 873.386719 C 396.90625 840.011719 375.40625 813.550781 348.328125 804.320312 C 332.855469 799.039062 316.253906 799.273438 300.199219 799.488281 C 294.820312 799.554688 289.308594 799.769531 283.980469 799.984375 C 265.742188 800.695312 246.855469 801.4375 229.859375 796.523438 C 219.199219 793.445312 209.152344 788.367188 199.4375 783.453125 C 193.941406 780.671875 188.265625 777.808594 182.554688 775.34375 C 165.972656 768.195312 148.726562 764.605469 132.355469 764.605469 Z M 132.355469 764.605469 "/><path style=" stroke:none;fill-rule:nonzero;fill:#000000;fill-opacity:1;" d="M 643.085938 1092.949219 C 643 1092.949219 642.933594 1092.949219 642.851562 1092.949219 C 579.546875 1092.863281 518.753906 1061.027344 484.164062 1009.847656 C 448.777344 957.476562 443.578125 887.796875 470.921875 832.367188 C 481.019531 811.914062 493.992188 796.078125 509.484375 785.324219 C 519.351562 778.472656 529.265625 774.484375 538.945312 773.441406 C 548.132812 772.464844 557.203125 774.121094 566.089844 776.550781 C 566.273438 776.453125 566.488281 776.421875 566.683594 776.46875 C 592.605469 782.957031 619.632812 775.726562 645.765625 768.726562 C 649.539062 767.714844 653.3125 766.707031 657.054688 765.746094 C 684.757812 758.632812 720.0625 752.625 747.4375 769.519531 C 757.882812 775.972656 767.199219 785.902344 775.144531 799.058594 C 799.621094 839.644531 809.917969 893.789062 800.746094 933.796875 C 790.800781 977.234375 779.25 1016.21875 738.648438 1053.21875 C 707.714844 1081.429688 680.007812 1092.949219 643.085938 1092.949219 Z M 544.457031 774.816406 C 542.6875 774.816406 540.933594 774.898438 539.144531 775.097656 C 529.742188 776.105469 520.078125 779.996094 510.445312 786.679688 C 495.167969 797.269531 482.375 812.890625 472.410156 833.09375 C 445.316406 888.011719 450.480469 957.015625 485.535156 1008.921875 C 519.8125 1059.65625 580.089844 1091.210938 642.851562 1091.292969 C 642.917969 1091.292969 643 1091.292969 643.066406 1091.292969 C 679.53125 1091.292969 706.921875 1079.910156 737.523438 1052.011719 C 777.777344 1015.324219 789.246094 976.605469 799.125 933.453125 C 808.195312 893.835938 797.984375 840.175781 773.71875 799.933594 C 765.925781 787.011719 756.789062 777.265625 746.558594 770.941406 C 719.699219 754.363281 684.824219 760.320312 657.449219 767.371094 C 653.710938 768.328125 649.953125 769.339844 646.179688 770.347656 C 623.738281 776.355469 600.632812 782.542969 577.988281 780.160156 C 583.582031 781.914062 589.359375 783.734375 595.070312 785.023438 C 617.015625 790.003906 640.417969 787.722656 660.992188 778.605469 C 661.40625 778.421875 661.902344 778.605469 662.085938 779.019531 C 662.265625 779.433594 662.085938 779.929688 661.671875 780.109375 C 640.785156 789.359375 617 791.675781 594.722656 786.628906 C 588.878906 785.304688 583.003906 783.453125 577.328125 781.664062 C 566.621094 778.289062 555.597656 774.816406 544.457031 774.816406 Z M 544.457031 774.816406 "/><path style=" stroke:none;fill-rule:nonzero;fill:#000000;fill-opacity:1;" d="M 248.128906 799.4375 C 248.113281 799.4375 248.082031 799.4375 248.066406 799.4375 C 235.699219 798.394531 224.8125 795.300781 218.207031 790.980469 C 217.957031 790.816406 217.808594 790.535156 217.824219 790.238281 C 222.640625 722.378906 239.308594 655.808594 267.328125 592.367188 C 295.351562 528.925781 333.351562 471.789062 380.273438 422.511719 C 394.027344 408.085938 409.335938 393.554688 428.121094 385.117188 C 428.46875 384.953125 428.898438 385.066406 429.132812 385.382812 C 429.363281 385.695312 429.328125 386.125 429.082031 386.425781 C 383.285156 437.023438 336.050781 491.894531 305.925781 557.140625 C 283.730469 605.191406 271.601562 657.5625 259.867188 708.214844 C 253.0625 737.585938 246.027344 767.949219 248.957031 798.527344 C 248.976562 798.773438 248.890625 799.007812 248.726562 799.1875 C 248.5625 799.339844 248.347656 799.4375 248.128906 799.4375 Z M 219.515625 789.855469 C 225.6875 793.726562 235.933594 796.625 247.203125 797.683594 C 244.488281 767.171875 251.472656 737.003906 258.242188 707.832031 C 269.996094 657.101562 282.160156 604.644531 304.421875 556.445312 C 334.03125 492.324219 380.058594 438.265625 425.042969 388.425781 C 408.210938 396.933594 394.175781 410.335938 381.480469 423.65625 C 288.234375 521.5625 229.214844 655.015625 219.515625 789.855469 Z M 219.515625 789.855469 "/><path style=" stroke:none;fill-rule:nonzero;fill:#000000;fill-opacity:1;" d="M 604.835938 779.28125 C 604.273438 779.28125 603.792969 779.25 603.460938 779.152344 C 600.070312 778.15625 600.464844 772.316406 600.664062 769.503906 C 602.320312 745.839844 596.277344 722.511719 590.453125 699.957031 C 581.332031 664.726562 571.949219 628.425781 561.207031 593.144531 C 554.125 569.882812 545.914062 545.292969 533.847656 523.054688 C 527.078125 510.578125 518.984375 498.628906 511.15625 487.078125 L 485.519531 449.21875 C 480.703125 442.105469 475.707031 434.742188 469.566406 428.554688 C 465.195312 424.152344 460.082031 420.148438 455.132812 416.292969 C 444.375 407.902344 433.269531 399.214844 429.082031 385.746094 C 428.980469 385.398438 429.097656 385.035156 429.378906 384.835938 C 429.660156 384.621094 430.058594 384.621094 430.339844 384.835938 C 485.089844 424.019531 531.546875 484.035156 564.699219 558.414062 C 597.15625 631.253906 615.558594 712.019531 627.957031 774.234375 C 628.039062 774.648438 627.792969 775.0625 627.378906 775.195312 C 623.304688 776.386719 619.21875 777.097656 615.246094 777.777344 C 613.292969 778.125 611.324219 778.457031 609.320312 778.851562 C 609.289062 778.871094 606.671875 779.28125 604.835938 779.28125 Z M 431.496094 387.730469 C 436.015625 399.296875 445.796875 406.941406 456.125 415 C 461.109375 418.890625 466.269531 422.925781 470.722656 427.410156 C 476.980469 433.714844 482.011719 441.144531 486.878906 448.328125 L 512.515625 486.1875 C 520.359375 497.769531 528.484375 509.75 535.289062 522.292969 C 547.421875 544.648438 555.679688 569.335938 562.78125 592.683594 C 573.519531 627.992188 582.921875 664.296875 592.007812 699.425781 C 597.917969 722.246094 603.976562 745.691406 602.304688 769.621094 C 602.171875 771.421875 601.789062 776.949219 603.910156 777.5625 C 604.703125 777.792969 608.246094 777.398438 608.988281 777.246094 C 610.992188 776.851562 612.976562 776.503906 614.949219 776.15625 C 618.789062 775.492188 622.429688 774.863281 626.167969 773.824219 C 613.789062 711.789062 595.433594 631.5 563.160156 559.109375 C 530.589844 485.953125 485.089844 426.765625 431.496094 387.730469 Z M 431.496094 387.730469 "/><path style=" stroke:none;fill-rule:nonzero;fill:#000000;fill-opacity:1;" d="M 171.121094 546.929688 C 157.597656 546.929688 144.6875 542.5625 134.640625 538.589844 C 109.816406 528.761719 86.941406 514.960938 66.683594 497.570312 C 64.648438 495.832031 62.628906 494.046875 60.59375 492.242188 C 48.527344 481.585938 36.0625 470.566406 20.507812 467.738281 C 20.109375 467.671875 19.8125 467.304688 19.828125 466.890625 C 19.84375 466.480469 20.140625 466.148438 20.554688 466.097656 C 63.671875 460.703125 101.207031 436.214844 137.503906 412.535156 C 156.902344 399.878906 176.960938 386.789062 197.800781 376.613281 C 243.578125 354.242188 296.691406 344.941406 347.371094 350.433594 C 371.898438 353.097656 403.757812 361.304688 420.308594 385 C 422.34375 385.628906 424.347656 386.492188 426.316406 387.648438 C 426.382812 387.683594 426.464844 387.730469 426.53125 387.78125 C 426.914062 388.03125 427.011719 388.527344 426.78125 388.90625 C 426.550781 389.285156 426.050781 389.402344 425.65625 389.171875 C 425.640625 389.171875 425.640625 389.15625 425.621094 389.15625 C 425.457031 389.089844 424.960938 389.070312 422.859375 390.496094 C 422.675781 390.628906 422.429688 390.660156 422.214844 390.609375 C 421.980469 390.5625 421.800781 390.414062 421.683594 390.214844 C 420.921875 388.890625 420.128906 387.617188 419.265625 386.375 C 404.554688 382.15625 388.019531 391.605469 372.148438 402.773438 L 313.902344 443.824219 C 302.617188 451.785156 290.949219 460.007812 282.027344 470.847656 C 278.78125 474.785156 275.886719 479.105469 273.089844 483.273438 C 270.589844 486.996094 268.007812 490.835938 265.195312 494.425781 C 252.367188 510.707031 234.476562 521.925781 217.046875 531.625 C 205.148438 538.242188 191.195312 545.425781 176.234375 546.699219 C 174.511719 546.863281 172.808594 546.929688 171.121094 546.929688 Z M 25.15625 467.125 C 39.144531 471.09375 50.578125 481.1875 61.683594 491 C 63.722656 492.789062 65.738281 494.574219 67.757812 496.3125 C 87.886719 513.589844 110.59375 527.289062 135.253906 537.050781 C 146.390625 541.453125 161.089844 546.351562 176.066406 545.078125 C 190.699219 543.820312 204.46875 536.738281 216.21875 530.203125 C 233.5 520.585938 251.226562 509.484375 263.871094 493.433594 C 266.652344 489.894531 269.214844 486.070312 271.699219 482.378906 C 274.53125 478.160156 277.441406 473.808594 280.734375 469.820312 C 289.789062 458.816406 301.558594 450.527344 312.945312 442.503906 L 371.1875 401.449219 C 386.015625 390.992188 402.75 381.292969 417.808594 384.371094 C 401.324219 362.382812 370.804688 354.636719 347.203125 352.089844 C 296.839844 346.628906 244.058594 355.878906 198.542969 378.117188 C 177.789062 388.261719 157.78125 401.316406 138.429688 413.941406 C 103.179688 436.910156 66.800781 460.636719 25.15625 467.125 Z M 421.800781 387.269531 C 422.082031 387.714844 422.363281 388.179688 422.644531 388.640625 C 422.992188 388.410156 423.320312 388.226562 423.601562 388.0625 C 423.007812 387.78125 422.410156 387.5 421.800781 387.269531 Z M 421.800781 387.269531 "/><path style=" stroke:none;fill-rule:nonzero;fill:#000000;fill-opacity:1;" d="M 360.03125 645.003906 C 358.675781 645.003906 357.367188 644.789062 356.273438 644.226562 C 355.066406 643.597656 354.253906 642.636719 353.859375 641.363281 C 353.394531 639.808594 353.792969 638.171875 354.105469 636.960938 C 356.621094 626.933594 359.832031 616.925781 362.925781 607.242188 C 367.296875 593.609375 371.816406 579.496094 374.445312 565.214844 C 377.0625 551.050781 377.890625 536.375 378.699219 522.175781 C 379.628906 505.84375 380.585938 488.949219 384.261719 472.699219 C 390.765625 443.976562 405.015625 418.261719 424.429688 388.476562 C 424.597656 388.210938 424.910156 388.0625 425.226562 388.113281 C 425.539062 388.144531 425.804688 388.378906 425.902344 388.675781 C 427.988281 394.960938 432.441406 400.355469 436.746094 405.585938 C 441.941406 411.890625 447.320312 418.425781 448.347656 426.433594 C 448.742188 429.546875 448.445312 432.691406 448.148438 435.734375 C 447.984375 437.457031 447.816406 439.226562 447.785156 440.964844 C 447.550781 451.4375 452.019531 461.433594 456.339844 471.09375 C 456.988281 472.535156 457.632812 473.972656 458.246094 475.398438 C 466.386719 494.0625 470.804688 511.074219 471.734375 527.421875 C 472.84375 546.832031 468.851562 564.867188 460.195312 579.59375 C 444.707031 605.953125 414.898438 620.761719 390.933594 632.660156 C 382.640625 636.78125 374.066406 641.03125 365.128906 644.09375 C 363.640625 644.625 361.800781 645.003906 360.03125 645.003906 Z M 424.910156 390.777344 C 406.058594 419.816406 392.222656 445.035156 385.882812 473.082031 C 382.242188 489.179688 381.28125 506.007812 380.371094 522.273438 C 379.5625 536.523438 378.734375 551.265625 376.101562 565.527344 C 373.453125 579.925781 368.917969 594.074219 364.53125 607.757812 C 361.4375 617.402344 358.242188 627.398438 355.746094 637.359375 C 355.414062 638.667969 355.164062 639.839844 355.480469 640.867188 C 355.726562 641.710938 356.257812 642.308594 357.070312 642.738281 C 359.121094 643.796875 362.429688 643.285156 364.632812 642.539062 C 373.46875 639.527344 381.996094 635.292969 390.238281 631.1875 C 413.988281 619.390625 443.5625 604.695312 458.808594 578.765625 C 467.296875 564.320312 471.21875 546.597656 470.109375 527.519531 C 469.183594 511.371094 464.816406 494.542969 456.753906 476.058594 C 456.125 474.636719 455.496094 473.195312 454.851562 471.773438 C 450.449219 461.945312 445.914062 451.785156 446.144531 440.929688 C 446.179688 439.144531 446.359375 437.324219 446.527344 435.570312 C 446.824219 432.492188 447.105469 429.578125 446.726562 426.632812 C 445.765625 419.089844 440.765625 413.03125 435.488281 406.628906 C 431.414062 401.730469 427.246094 396.667969 424.910156 390.777344 Z M 424.910156 390.777344 "/><path style=" stroke:none;fill-rule:nonzero;fill:#000000;fill-opacity:1;" d="M 424.382812 385.929688 C 424.132812 385.929688 423.882812 385.8125 423.734375 385.613281 C 423.570312 385.414062 423.519531 385.132812 423.585938 384.886719 C 429.179688 364.550781 441.148438 345.902344 457.300781 332.347656 C 472.527344 319.574219 492.421875 310.324219 516.4375 304.847656 C 537.738281 299.984375 559.933594 298.527344 580.835938 297.453125 C 581.101562 297.433594 581.367188 297.550781 581.53125 297.765625 C 581.695312 297.980469 581.746094 298.261719 581.664062 298.511719 C 577.691406 311.316406 569.484375 323.546875 557.269531 334.863281 C 546.460938 344.875 533.914062 352.964844 521.78125 360.777344 C 511.867188 367.164062 501.609375 373.78125 490.203125 377.769531 C 477.90625 382.074219 464.816406 383.148438 452.136719 384.191406 C 443.828125 384.867188 435.238281 385.582031 424.414062 385.929688 C 424.398438 385.929688 424.382812 385.929688 424.382812 385.929688 Z M 579.726562 299.171875 C 559.253906 300.230469 537.574219 301.71875 516.800781 306.453125 C 493.035156 311.863281 473.371094 321.015625 458.359375 333.605469 C 442.753906 346.710938 431.101562 364.648438 425.472656 384.242188 C 435.734375 383.875 443.992188 383.199219 451.988281 382.535156 C 464.566406 381.511719 477.558594 380.433594 489.640625 376.214844 C 500.863281 372.292969 511.042969 365.742188 520.871094 359.402344 C 532.9375 351.625 545.433594 343.585938 556.125 333.671875 C 567.792969 322.882812 575.722656 311.285156 579.726562 299.171875 Z M 579.726562 299.171875 "/><path style=" stroke:none;fill-rule:nonzero;fill:#000000;fill-opacity:1;" d="M 123.007812 484.960938 C 122.609375 484.960938 122.261719 484.679688 122.195312 484.285156 C 122.113281 483.835938 122.410156 483.40625 122.875 483.324219 C 139.90625 480.3125 156.652344 474.835938 172.855469 469.539062 C 189.410156 464.128906 206.503906 458.535156 222.3125 450.59375 C 237.074219 443.164062 250.910156 433.566406 264.300781 424.265625 C 268.703125 421.207031 273.253906 418.046875 277.773438 415.019531 C 294.820312 403.566406 317.726562 389.4375 343.710938 381.742188 C 361.96875 376.332031 389.492188 371.960938 416.898438 381.90625 C 417.332031 382.054688 417.546875 382.535156 417.398438 382.964844 C 417.246094 383.394531 416.769531 383.613281 416.335938 383.460938 C 389.359375 373.683594 362.214844 377.984375 344.191406 383.332031 C 318.40625 390.976562 295.648438 405.007812 278.699219 416.40625 C 274.183594 419.4375 269.648438 422.597656 265.246094 425.640625 C 251.804688 434.957031 237.917969 444.605469 223.054688 452.082031 C 207.152344 460.089844 189.972656 465.699219 173.371094 471.128906 C 157.117188 476.441406 140.316406 481.933594 123.171875 484.976562 C 123.105469 484.960938 123.054688 484.960938 123.007812 484.960938 Z M 123.007812 484.960938 "/><path style=" stroke:none;fill-rule:nonzero;fill:#000000;fill-opacity:1;" d="M 401.242188 581.050781 C 401.128906 581.050781 400.996094 581.015625 400.878906 580.96875 C 400.464844 580.769531 400.300781 580.273438 400.5 579.859375 C 414.714844 551 417.28125 518.371094 417.925781 487.394531 C 418.058594 481.371094 418.109375 475.332031 418.175781 469.273438 C 418.421875 443.859375 418.671875 417.582031 424.214844 392.382812 C 424.316406 391.933594 424.761719 391.652344 425.207031 391.753906 C 425.65625 391.851562 425.9375 392.296875 425.835938 392.746094 C 420.34375 417.765625 420.078125 443.957031 419.828125 469.292969 C 419.761719 475.347656 419.714844 481.386719 419.582031 487.425781 C 418.917969 518.585938 416.335938 551.429688 401.988281 580.585938 C 401.839844 580.867188 401.539062 581.050781 401.242188 581.050781 Z M 401.242188 581.050781 "/><path style=" stroke:none;fill-rule:nonzero;fill:#000000;fill-opacity:1;" d="M 427.292969 384.703125 C 427.128906 384.703125 426.964844 384.652344 426.832031 384.554688 C 426.449219 384.289062 426.351562 383.777344 426.617188 383.414062 C 432.257812 375.171875 441.445312 370.636719 450.316406 366.253906 C 453.277344 364.796875 456.339844 363.273438 459.203125 361.652344 C 463.191406 359.386719 467.066406 356.753906 470.804688 354.191406 C 472.015625 353.363281 473.222656 352.535156 474.449219 351.726562 C 491.496094 340.308594 509.898438 330.894531 529.132812 323.777344 C 529.5625 323.613281 530.042969 323.84375 530.191406 324.273438 C 530.355469 324.703125 530.125 325.183594 529.710938 325.332031 C 510.59375 332.414062 492.304688 341.746094 475.359375 353.097656 C 474.148438 353.910156 472.941406 354.738281 471.734375 355.5625 C 467.960938 358.144531 464.054688 360.808594 460 363.09375 C 457.101562 364.730469 454.007812 366.253906 451.027344 367.726562 C 442.339844 372.011719 433.351562 376.445312 427.957031 384.339844 C 427.808594 384.570312 427.558594 384.703125 427.292969 384.703125 Z M 427.292969 384.703125 "/><path style=" stroke:none;fill-rule:nonzero;fill:#000000;fill-opacity:1;" d="M 43.246094 1005.117188 C 42.964844 1005.117188 42.683594 1004.96875 42.535156 1004.703125 C 29.015625 981.6875 21.382812 955.425781 20.507812 928.75 C 20.488281 928.289062 20.855469 927.90625 21.300781 927.890625 C 21.8125 927.84375 22.144531 928.238281 22.160156 928.6875 C 23.039062 955.09375 30.570312 981.074219 43.960938 1003.859375 C 44.191406 1004.253906 44.058594 1004.753906 43.660156 1004.984375 C 43.546875 1005.066406 43.394531 1005.117188 43.246094 1005.117188 Z M 43.246094 1005.117188 "/><path style=" stroke:none;fill-rule:nonzero;fill:#000000;fill-opacity:1;" d="M 66.433594 1027.074219 C 66.21875 1027.074219 65.988281 1026.992188 65.824219 1026.808594 C 51.574219 1011.320312 41.328125 992.34375 36.230469 971.921875 C 36.113281 971.476562 36.394531 971.03125 36.824219 970.914062 C 37.273438 970.796875 37.71875 971.078125 37.835938 971.507812 C 42.882812 991.664062 52.980469 1010.394531 67.046875 1025.667969 C 67.363281 1026 67.328125 1026.527344 66.996094 1026.84375 C 66.832031 1027.007812 66.632812 1027.074219 66.433594 1027.074219 Z M 66.433594 1027.074219 "/><path style=" stroke:none;fill-rule:nonzero;fill:#000000;fill-opacity:1;" d="M 301.589844 1088.992188 C 301.308594 1088.992188 301.027344 1088.84375 300.878906 1088.578125 C 300.648438 1088.183594 300.777344 1087.6875 301.175781 1087.453125 C 325.339844 1073.472656 345.964844 1053.582031 360.808594 1029.921875 C 361.058594 1029.539062 361.570312 1029.421875 361.949219 1029.65625 C 362.332031 1029.902344 362.449219 1030.417969 362.214844 1030.796875 C 347.238281 1054.675781 326.417969 1074.761719 302.019531 1088.878906 C 301.871094 1088.960938 301.722656 1088.992188 301.589844 1088.992188 Z M 301.589844 1088.992188 "/><path style=" stroke:none;fill-rule:nonzero;fill:#000000;fill-opacity:1;" d="M 301.773438 1099.550781 C 301.457031 1099.550781 301.160156 1099.367188 301.027344 1099.070312 C 300.828125 1098.65625 301.011719 1098.160156 301.425781 1097.960938 C 317.445312 1090.398438 331.910156 1079.214844 343.265625 1065.59375 C 343.5625 1065.246094 344.078125 1065.199219 344.421875 1065.496094 C 344.769531 1065.792969 344.820312 1066.308594 344.523438 1066.65625 C 333.019531 1080.453125 318.371094 1091.789062 302.121094 1099.449219 C 302.019531 1099.535156 301.90625 1099.550781 301.773438 1099.550781 Z M 301.773438 1099.550781 "/><path style=" stroke:none;fill-rule:nonzero;fill:#000000;fill-opacity:1;" d="M 497.867188 1005.082031 C 497.601562 1005.082031 497.355469 1004.949219 497.1875 1004.71875 C 475.921875 973.890625 465.726562 936.332031 468.503906 898.984375 C 468.539062 898.519531 468.953125 898.191406 469.398438 898.222656 C 469.863281 898.253906 470.195312 898.652344 470.160156 899.117188 C 467.414062 936.097656 477.492188 973.261719 498.546875 1003.792969 C 498.808594 1004.171875 498.710938 1004.6875 498.332031 1004.949219 C 498.199219 1005.035156 498.03125 1005.082031 497.867188 1005.082031 Z M 497.867188 1005.082031 "/><path style=" stroke:none;fill-rule:nonzero;fill:#000000;fill-opacity:1;" d="M 521.335938 1018.585938 C 521.152344 1018.585938 520.988281 1018.535156 520.824219 1018.421875 C 511.933594 1011.535156 504.207031 1001.722656 497.816406 989.28125 C 492.15625 978.210938 488.101562 966.28125 484.179688 954.730469 C 484.03125 954.300781 484.261719 953.820312 484.691406 953.6875 C 485.121094 953.539062 485.585938 953.769531 485.734375 954.199219 C 489.640625 965.683594 493.664062 977.566406 499.289062 988.535156 C 505.546875 1000.765625 513.144531 1010.378906 521.832031 1017.128906 C 522.195312 1017.410156 522.261719 1017.921875 521.980469 1018.289062 C 521.816406 1018.46875 521.566406 1018.585938 521.335938 1018.585938 Z M 521.335938 1018.585938 "/></g></svg>