<svg xmlns="http://www.w3.org/2000/svg" xmlns:xlink="http://www.w3.org/1999/xlink" width="1080" zoomAndPan="magnify" viewBox="0 0 810 1439.999935" height="1920" preserveAspectRatio="xMidYMid meet" version="1.2"><defs><clipPath id="eab40a463a"><path d="M 54 538.246094 L 759 538.246094 L 759 905 L 54 905 Z M 54 538.246094 "/></clipPath><clipPath id="7a5b0a8978"><path d="M 28.515625 538.246094 L 781.515625 538.246094 L 781.515625 934 L 28.515625 934 Z M 28.515625 538.246094 "/></clipPath><clipPath id="9e39e6cc6b"><path d="M 47 538.246094 L 761 538.246094 L 761 914 L 47 914 Z M 47 538.246094 "/></clipPath></defs><g id="b3eb21682c"><g clip-rule="nonzero" clip-path="url(#eab40a463a)"><path style=" stroke:none;fill-rule:nonzero;fill:#ffffc9;fill-opacity:1;" d="M 744.140625 658.328125 C 727.53125 711.867188 696.746094 760.683594 656.632812 799.730469 C 587.183594 867.324219 494.40625 904.710938 398.234375 904.742188 C 348.605469 904.757812 299.488281 894.542969 254.4375 873.570312 C 193.285156 845.101562 139.953125 799.285156 104.449219 741.753906 C 93.925781 724.699219 85.007812 706.675781 77.730469 688.003906 C 60.648438 644.183594 52.816406 595.96875 54.1875 547.839844 C 56.027344 547.398438 57.871094 547.03125 59.71875 546.722656 C 62.628906 546.242188 65.554688 545.851562 68.492188 545.515625 C 79.867188 544.972656 91.320312 545.339844 102.636719 545.910156 C 118.304688 546.703125 133.921875 547.6875 149.597656 548.148438 C 156.277344 548.808594 162.976562 549.386719 169.714844 549.769531 C 200.902344 551.539062 232.15625 551.664062 263.359375 552.980469 C 278.894531 553.636719 294.457031 555.414062 310.019531 555.105469 C 311.527344 555.078125 313.03125 555.035156 314.542969 554.980469 C 323.003906 555.691406 331.488281 556.261719 340.015625 556.484375 C 354.359375 556.875 368.703125 556.878906 383.054688 556.972656 C 397.636719 557.058594 412.226562 557.246094 426.792969 558.027344 C 428.25 558.105469 429.71875 558.179688 431.175781 558.277344 C 483.070312 561.484375 535.082031 557.0625 586.59375 550.429688 C 604.671875 548.96875 622.695312 547.117188 640.652344 544.761719 C 669.304688 541 698.144531 542.347656 726.894531 540.378906 C 736.800781 539.695312 747.578125 538.375 758.074219 538.59375 C 760.609375 578.921875 756.125 619.699219 744.140625 658.328125 "/></g><g clip-rule="nonzero" clip-path="url(#7a5b0a8978)"><path style=" stroke:none;fill-rule:nonzero;fill:#65924a;fill-opacity:1;" d="M 780.824219 549.683594 C 780.582031 546.785156 778.484375 545.058594 776.125 543.617188 C 771.671875 540.894531 764.816406 539.070312 759.480469 538.667969 C 759.480469 538.667969 757.460938 538.738281 756.433594 538.953125 C 757.59375 557.21875 757.308594 575.210938 755.558594 593.585938 C 754.425781 605.464844 748.988281 617.019531 745.214844 628.382812 C 740.898438 641.386719 736.578125 654.386719 732.257812 667.386719 C 729.476562 675.773438 726.691406 684.160156 723.644531 692.453125 C 719.769531 703.007812 716.394531 710.675781 708.78125 718.550781 C 700.457031 727.167969 698.011719 740.492188 692.738281 750.941406 C 685.902344 764.46875 674.964844 775.40625 664.210938 786.085938 C 657.847656 792.40625 650.195312 798.507812 645.007812 805.847656 C 640.664062 812.003906 637.140625 816.175781 630.933594 820.875 C 616.074219 832.128906 600.429688 842.347656 584.136719 851.410156 C 567.675781 860.574219 550.589844 868.554688 533.519531 876.523438 C 523.457031 881.222656 513.363281 885.871094 503.324219 890.625 C 494.425781 894.839844 485.277344 896.648438 475.695312 899.105469 C 465.527344 901.710938 455.011719 904.40625 444.378906 905.871094 C 428.757812 908.019531 412.253906 907.710938 396.292969 907.410156 C 392.03125 907.335938 387.625 907.253906 383.324219 907.21875 C 359.816406 907.035156 337.179688 904.238281 316.035156 898.894531 C 292.1875 892.871094 268.761719 884.199219 246.410156 873.125 C 234.640625 867.292969 223.066406 860.738281 212.007812 853.636719 C 180.949219 833.691406 153.566406 809.402344 130.617188 781.433594 C 127.484375 777.613281 124.394531 773.675781 121.4375 769.726562 C 119.347656 766.9375 117.253906 764.011719 115.210938 761.035156 C 98.597656 736.820312 84.882812 708.925781 74.453125 678.121094 C 65.894531 652.839844 56.496094 623.226562 53.300781 591.714844 C 51.914062 578.03125 51.433594 564.296875 51.832031 550.613281 C 51.863281 549.589844 50.882812 548.84375 49.910156 549.160156 C 48.246094 549.699219 46.089844 550.355469 45.75 550.492188 C 41.84375 552.070312 38.109375 554.160156 34.914062 556.925781 C 31.914062 559.515625 28.875 563.332031 28.65625 567.484375 C 28.550781 569.550781 28.632812 571.710938 28.703125 573.824219 C 28.972656 582.488281 29.632812 591.140625 30.816406 599.726562 C 38.269531 654.09375 57.15625 706.863281 85.859375 753.632812 C 90.597656 761.355469 95.640625 768.960938 101.933594 775.472656 C 106.425781 780.117188 111.53125 784.179688 115.585938 789.203125 C 119.789062 794.421875 122.738281 800.515625 126.253906 806.21875 C 143.480469 834.140625 174.582031 856.316406 201.566406 874.191406 C 232.9375 894.96875 267.789062 910.511719 304.253906 919.828125 C 325.078125 925.148438 346.363281 928.464844 367.683594 931.152344 C 380.027344 932.710938 392.441406 934.066406 404.878906 933.773438 C 417.042969 933.492188 429.109375 931.636719 441.101562 929.597656 C 483.066406 922.460938 525.027344 912.84375 563.511719 894.648438 C 576.972656 888.277344 589.945312 880.894531 602.484375 872.859375 C 649.667969 842.625 687.230469 803.109375 717.820312 756.285156 C 729.011719 739.160156 738.738281 721.089844 746.949219 702.355469 C 755.332031 683.238281 763.050781 665.402344 768.375 646.617188 C 775.304688 622.152344 775.15625 597.136719 778.890625 572.226562 C 779.128906 570.636719 779.363281 569.046875 779.582031 567.453125 C 780.128906 563.484375 780.609375 559.511719 781.011719 555.527344 C 780.941406 553.582031 780.984375 551.65625 780.824219 549.683594 "/></g><g clip-rule="nonzero" clip-path="url(#9e39e6cc6b)"><path style=" stroke:none;fill-rule:nonzero;fill:#c3ef73;fill-opacity:1;" d="M 759.480469 538.667969 C 759.394531 538.65625 759.125 538.628906 759.074219 538.621094 C 755.546875 538.511719 751.980469 538.585938 748.421875 538.761719 C 748.429688 539.460938 748.441406 540.15625 748.441406 540.855469 C 748.441406 544.265625 748.558594 547.640625 748.667969 550.90625 C 748.976562 559.84375 749.269531 568.289062 747.160156 575.730469 C 745.894531 580.214844 744.960938 588.292969 743.542969 601.101562 C 741.84375 616.523438 741.03125 636.398438 730.960938 649.175781 C 726.011719 655.445312 719.910156 660.636719 715.285156 667.140625 C 711.9375 671.847656 708.5625 676.601562 706.277344 681.910156 C 704.605469 685.800781 703.542969 689.925781 702.492188 694.027344 C 701.074219 699.558594 699.199219 705.140625 698.515625 710.789062 C 697.835938 716.382812 697.789062 722.054688 695.449219 727.300781 C 692.515625 733.878906 687.222656 739.410156 684.101562 745.984375 C 682.273438 749.960938 680.550781 753.71875 678.648438 756.453125 C 673.496094 763.847656 667.984375 770.320312 661.730469 776.636719 C 655.625 782.800781 651.800781 791.042969 644.699219 796.253906 C 640.328125 799.460938 634.925781 801.292969 631.191406 805.226562 C 628.789062 807.757812 627.257812 810.984375 625.089844 813.71875 C 621.777344 817.890625 617.910156 819.015625 613.5 821.371094 C 609.976562 823.257812 607.109375 825.523438 603.257812 827.039062 C 598.976562 828.722656 593.65625 830.816406 587.785156 834.960938 C 575.785156 843.429688 563.210938 843.691406 549.214844 844.601562 C 546.875 844.753906 544.527344 844.980469 542.246094 845.519531 C 536.015625 846.984375 530.570312 850.65625 525.28125 854.253906 C 518.542969 858.839844 514.589844 864.574219 508.621094 869.894531 C 498.183594 879.214844 483.804688 883.875 470.128906 885.253906 C 461.527344 886.121094 453.066406 887.335938 444.886719 888.507812 C 431.304688 890.457031 418.480469 892.296875 405.660156 892.554688 C 395.460938 892.761719 386.328125 891.914062 377.738281 889.964844 C 370.203125 888.25 362.621094 887.6875 355.285156 887.144531 C 351.011719 886.828125 346.972656 886.523438 343.152344 886.015625 C 333.0625 884.664062 323.660156 880.886719 314.683594 876.21875 C 306.417969 871.921875 299.03125 866.828125 290.917969 862.183594 C 287.875 860.445312 284.800781 858.699219 281.46875 857.609375 C 276.246094 855.894531 270.542969 856.492188 265.125 855.402344 C 259.308594 854.226562 253.398438 853.597656 247.601562 852.300781 C 234.929688 849.464844 223.511719 845.507812 212.683594 838.089844 C 206.476562 833.835938 200.003906 829.335938 194.445312 824.171875 C 188.238281 818.40625 182.722656 811.925781 176.269531 806.425781 C 164.113281 796.058594 148.617188 789.191406 139.449219 776.113281 C 136.855469 772.417969 134.867188 768.347656 132.890625 764.292969 C 131.382812 761.199219 129.867188 758.101562 128.652344 754.882812 C 126.664062 749.628906 125.496094 744.082031 123.304688 738.902344 C 122.425781 736.824219 120.941406 735.097656 120.027344 733.128906 C 118.9375 730.785156 118.875 727.8125 118.359375 725.277344 C 115.984375 713.625 112.097656 702.351562 108.074219 691.183594 C 106.339844 686.375 104.550781 681.515625 101.644531 677.308594 C 97.886719 671.871094 92.566406 667.796875 88.421875 662.6875 C 84.449219 657.78125 83.484375 652.199219 81.125 646.558594 C 75.867188 633.992188 75.445312 619.992188 73.316406 606.699219 C 71.328125 594.316406 69.832031 580.972656 68.742188 565.910156 C 68.566406 563.496094 68.351562 561.035156 68.121094 558.429688 C 67.761719 554.320312 67.382812 549.953125 67.171875 545.664062 C 64.679688 545.964844 62.191406 546.316406 59.714844 546.722656 C 55.597656 547.40625 51.3125 548.542969 47.402344 549.957031 C 47.28125 555.746094 47.519531 561.390625 47.871094 567.175781 C 48.023438 569.714844 48.222656 572.25 48.472656 574.78125 C 49.761719 587.835938 51.183594 601.015625 53.636719 613.914062 C 55.699219 624.773438 59.558594 636.1875 59.628906 647.167969 C 59.703125 658.292969 65.121094 669.960938 68.960938 680.25 C 72.320312 689.25 75.695312 699.953125 81.726562 707.546875 C 87.613281 714.957031 90.546875 724.097656 94.683594 732.617188 C 98.097656 739.65625 101.582031 746.78125 105.996094 753.183594 C 110.488281 759.714844 115.84375 765.269531 120.8125 771.421875 C 133.597656 787.246094 140.1875 806.625 156.777344 819.273438 C 163.867188 824.679688 171.703125 829.023438 179.011719 834.128906 C 192.421875 843.503906 203.949219 855.378906 217.457031 864.605469 C 227.574219 871.519531 238.664062 876.859375 249.707031 882.167969 C 257.503906 885.917969 265.3125 889.671875 273.441406 892.628906 C 280.871094 895.332031 288.535156 897.355469 296.222656 899.199219 C 315.992188 903.941406 336.039062 907.511719 356.226562 909.886719 C 362.316406 910.605469 368.335938 911.890625 374.460938 912.296875 C 379.746094 912.644531 384.839844 911.898438 390.09375 912.589844 C 403.71875 914.390625 418.550781 912.363281 432.289062 911.96875 C 435.058594 911.886719 437.835938 911.808594 440.585938 911.488281 C 447.898438 910.628906 454.957031 908.070312 462.296875 907.5 C 466.898438 907.140625 471.648438 907.554688 476.019531 906.070312 C 479.871094 904.765625 483.136719 902.066406 487.011719 900.84375 C 493.628906 898.75 500.992188 901.210938 507.675781 899.347656 C 512.546875 897.992188 516.488281 894.507812 520.84375 891.941406 C 528.085938 887.675781 536.5 886.777344 543.359375 881.90625 C 548.589844 878.191406 553.265625 873.417969 559.328125 871.316406 C 563.683594 869.800781 568.480469 869.789062 572.746094 868.035156 C 580.144531 864.992188 587.664062 859.988281 594.777344 856.082031 C 603.121094 851.492188 611.054688 846.160156 618.445312 840.160156 C 625.03125 834.816406 631.171875 828.957031 637.308594 823.105469 C 641.71875 818.898438 646.132812 814.6875 650.539062 810.480469 C 660.558594 800.925781 670.605469 791.339844 679.378906 780.628906 C 695.84375 760.535156 707.445312 736.988281 718.898438 713.667969 C 723.796875 703.703125 729.894531 694.140625 733.300781 683.664062 C 737.144531 671.832031 741.15625 657.851562 747.917969 647.320312 C 750.3125 642.371094 752.863281 637.445312 754.265625 632.132812 C 756.441406 623.894531 755.738281 615.191406 756.855469 606.75 C 757.570312 601.351562 759.027344 596.082031 759.875 590.707031 C 761.363281 581.253906 760.945312 571.621094 760.519531 562.058594 C 760.171875 554.261719 759.828125 546.464844 759.480469 538.667969 "/></g><path style=" stroke:none;fill-rule:nonzero;fill:#c3ef73;fill-opacity:1;" d="M 428.703125 564.605469 C 428.230469 565.992188 427.03125 567.023438 425.753906 567.738281 C 424.476562 568.460938 423.078125 568.949219 421.800781 569.679688 C 417.980469 571.890625 415.648438 576.457031 416.113281 580.851562 C 416.253906 582.234375 416.628906 583.734375 415.933594 584.945312 C 415.246094 586.144531 413.6875 586.609375 412.316406 586.410156 C 410.335938 586.121094 408.765625 584.726562 406.871094 584.136719 C 404.019531 583.253906 400.957031 583.089844 398.019531 583.640625 C 396.773438 583.871094 395.375 584.152344 394.34375 584.894531 C 393.386719 585.585938 392.757812 586.410156 391.4375 586.5 C 388.984375 586.671875 387.09375 584.066406 386.296875 581.75 C 385.496094 579.441406 384.964844 576.78125 382.882812 575.316406 C 381.507812 574.332031 379.652344 574.066406 378.484375 572.871094 C 377.335938 571.695312 377.265625 570.0625 377.746094 568.597656 C 377.96875 567.949219 378.296875 567.324219 378.695312 566.800781 C 379.988281 565.085938 381.863281 563.777344 382.777344 561.832031 C 383.148438 561.03125 383.339844 560.164062 383.398438 559.285156 C 383.453125 558.441406 383.296875 557.695312 383.054688 556.972656 C 397.636719 557.058594 412.226562 557.246094 426.792969 558.027344 C 426.839844 558.644531 426.945312 559.257812 427.125 559.847656 C 427.179688 560.023438 427.238281 560.199219 427.296875 560.375 C 427.96875 562.074219 429.386719 562.601562 428.703125 564.605469 "/><path style=" stroke:none;fill-rule:nonzero;fill:#c3ef73;fill-opacity:1;" d="M 497.609375 843.25 C 483.566406 868.019531 445.164062 870.835938 416.914062 871.40625 C 391.953125 871.910156 366.355469 870.183594 342.367188 862.925781 C 285.210938 845.632812 345.648438 738.363281 357.222656 709.339844 C 367.359375 683.925781 377.5 658.511719 387.632812 633.09375 C 389.824219 627.597656 394.21875 607.167969 398.566406 604.097656 C 410.535156 595.664062 415.105469 617.34375 418.289062 624.5625 C 422.863281 634.957031 427.734375 645.238281 432.453125 655.574219 C 443.765625 680.335938 455.078125 705.09375 466.390625 729.855469 C 479.765625 759.136719 504.660156 789.945312 502.964844 823.699219 C 502.578125 831.398438 500.671875 837.84375 497.609375 843.25 "/><path style=" stroke:none;fill-rule:nonzero;fill:#c3ef73;fill-opacity:1;" d="M 640.648438 544.765625 C 622.679688 547.125 604.636719 548.96875 586.546875 550.429688 C 545.050781 555.773438 503.234375 559.679688 461.417969 559.316406 C 466.757812 564.855469 479.773438 568.488281 484.929688 570.496094 C 539.558594 591.757812 594.171875 613.054688 648.8125 634.28125 C 660.804688 638.941406 673.300781 642.601562 684.503906 641.945312 C 696.640625 641.234375 707.265625 635.464844 714.109375 620.421875 C 724.027344 598.613281 724.683594 572.308594 725.277344 548.746094 C 725.34375 546.179688 725.378906 543.398438 725.375 540.46875 C 697.125 542.292969 668.796875 541.0625 640.648438 544.765625 "/><path style=" stroke:none;fill-rule:nonzero;fill:#c3ef73;fill-opacity:1;" d="M 659.742188 672.328125 C 670.195312 683.3125 675.8125 696.375 672.984375 712.089844 C 668.648438 736.234375 651.640625 759.472656 633.597656 775.175781 C 608.457031 797.050781 570.871094 827.324219 536.09375 808.246094 C 517.683594 798.148438 509.046875 761.863281 500.546875 742.992188 C 488.609375 716.5 476.671875 690.003906 464.738281 663.511719 C 455.304688 642.574219 422.496094 589.203125 431.96875 581.425781 C 440.792969 574.179688 470.820312 590.214844 485.828125 596.058594 C 504.03125 603.152344 522.230469 610.246094 540.433594 617.335938 C 568.195312 628.15625 631.554688 642.695312 659.742188 672.328125 "/><path style=" stroke:none;fill-rule:nonzero;fill:#c3ef73;fill-opacity:1;" d="M 314.539062 554.984375 C 313.03125 555.035156 311.523438 555.082031 310.019531 555.113281 C 294.464844 555.410156 278.894531 553.636719 263.359375 552.980469 C 232.152344 551.660156 200.902344 551.535156 169.714844 549.769531 C 162.976562 549.390625 156.277344 548.808594 149.59375 548.152344 C 133.921875 547.691406 118.308594 546.699219 102.636719 545.910156 C 97.925781 545.675781 93.1875 545.472656 88.445312 545.351562 C 88.210938 550.074219 88.054688 554.492188 87.886719 558.425781 C 85.976562 604.023438 98.714844 676.285156 160.835938 649.738281 C 184.433594 639.652344 207.742188 628.835938 231.183594 618.390625 C 256.855469 606.949219 282.523438 595.511719 308.195312 584.070312 C 316.175781 580.515625 355.550781 567.671875 364.84375 556.863281 C 356.566406 556.804688 348.289062 556.710938 340.015625 556.488281 C 331.492188 556.257812 323.003906 555.691406 314.539062 554.984375 "/><path style=" stroke:none;fill-rule:nonzero;fill:#c3ef73;fill-opacity:1;" d="M 265.996094 819.355469 C 240.070312 825.433594 207.570312 806.636719 184.71875 786.082031 C 156.816406 760.992188 128.796875 721.710938 157.621094 686.269531 C 177.871094 661.375 213.757812 653.945312 241.773438 641.472656 C 266.691406 630.382812 291.609375 619.289062 316.527344 608.191406 C 326.683594 603.675781 360.761719 580.34375 371.433594 588.890625 C 383.597656 598.632812 359.226562 633.015625 355.304688 642.984375 C 345.246094 668.53125 335.191406 694.078125 325.132812 719.625 C 316.277344 742.121094 307.421875 764.609375 298.566406 787.105469 C 290.917969 806.523438 279.328125 816.226562 265.996094 819.355469 "/><path style=" stroke:none;fill-rule:nonzero;fill:#c0e47e;fill-opacity:1;" d="M 461.558594 825.203125 C 454.929688 832.734375 444.304688 837.863281 431.640625 839.652344 C 415.902344 841.871094 399.570312 838.457031 386.839844 830.277344 C 382.589844 827.550781 378.8125 824.332031 375.613281 820.710938 C 371.03125 815.523438 367.625 808.941406 365.761719 801.671875 C 361.582031 785.390625 366.300781 770.011719 371.292969 753.730469 C 371.785156 752.121094 372.28125 750.507812 372.765625 748.890625 C 375.457031 739.980469 379.136719 730.570312 384.019531 720.136719 C 385.242188 717.515625 386.390625 714.816406 387.492188 712.207031 C 391.6875 702.316406 395.644531 692.972656 403.664062 688.105469 C 406.476562 686.402344 410.75 684.464844 415.152344 684.917969 C 416.980469 685.113281 418.726562 685.753906 420.488281 686.882812 C 427.945312 691.671875 433.625 703.957031 437.769531 712.929688 C 438.742188 715.039062 439.660156 717.027344 440.558594 718.839844 C 447.671875 733.230469 454.015625 748.164062 459.414062 763.230469 C 467.523438 785.871094 474.125 810.933594 461.558594 825.203125 Z M 510.046875 824.050781 C 511.382812 797.527344 498.175781 773.808594 485.402344 750.871094 C 480.769531 742.546875 476.390625 734.683594 472.839844 726.914062 L 438.902344 652.625 C 437.324219 649.171875 435.730469 645.722656 434.136719 642.273438 C 431.023438 635.539062 427.800781 628.578125 424.777344 621.703125 C 424.339844 620.71875 423.785156 619.136719 423.195312 617.46875 C 420.675781 610.332031 417.542969 601.449219 411.074219 597.296875 C 408.714844 595.777344 406.152344 595.039062 403.457031 595.09375 C 400.4375 595.15625 397.417969 596.234375 394.480469 598.304688 C 389.722656 601.65625 387.078125 609.929688 383.289062 623.152344 C 382.402344 626.246094 381.566406 629.167969 381.046875 630.46875 L 350.640625 706.710938 C 349.046875 710.699219 346.375 716.484375 343.285156 723.1875 C 334.582031 742.03125 321.429688 770.507812 315.011719 796.792969 C 311.53125 811.042969 309.203125 826.707031 312.882812 841.167969 C 320.550781 871.304688 359.652344 869.652344 383.777344 874.113281 C 392.746094 875.773438 401.761719 877.4375 410.878906 877.695312 C 421.789062 878.011719 432.589844 876.285156 443.257812 874.171875 C 451.410156 872.558594 459.269531 873.203125 467.496094 871.398438 C 483.96875 867.789062 495.398438 861.523438 503.777344 846.75 C 507.511719 840.160156 509.621094 832.527344 510.046875 824.050781 "/><path style=" stroke:none;fill-rule:nonzero;fill:#c0e47e;fill-opacity:1;" d="M 726.894531 540.375 C 718.332031 540.964844 709.761719 541.253906 701.195312 541.472656 C 701.113281 541.855469 701.03125 542.234375 700.945312 542.617188 C 699.542969 549.289062 699.3125 556.859375 698.753906 563.652344 C 698.15625 570.855469 694.84375 579.339844 690.335938 585.058594 C 685.855469 590.742188 679.261719 593.898438 672.175781 594.730469 C 668.992188 595.101562 666.097656 595.582031 662.855469 595.574219 C 661.59375 595.566406 656.492188 594.890625 655.660156 596.1875 C 651.496094 596.300781 647.316406 596.410156 643.195312 595.816406 C 636.925781 594.914062 631.015625 592.417969 624.96875 590.542969 C 615.484375 587.597656 605.5625 586.148438 596.21875 582.792969 C 589.945312 580.542969 584.007812 577.457031 578.09375 574.386719 C 572.019531 571.230469 565.945312 568.074219 559.875 564.917969 C 555.183594 562.484375 550.492188 560.042969 545.800781 557.609375 C 544.542969 556.957031 542.914062 556.300781 541.304688 555.542969 C 541.304688 555.542969 536.695312 555.96875 535.335938 556.085938 C 533.164062 556.28125 530.996094 556.460938 528.820312 556.640625 C 524.480469 556.996094 520.132812 557.324219 515.785156 557.613281 C 507.097656 558.199219 498.398438 558.652344 489.691406 558.945312 C 472.734375 559.523438 455.910156 559.003906 438.976562 558.722656 C 441.082031 561.960938 444.828125 563.675781 448.394531 565.15625 C 455.851562 568.257812 463.421875 571.09375 471.078125 573.65625 C 477.816406 575.910156 485.578125 577.160156 491.796875 580.484375 C 498.734375 584.1875 506.664062 586.5625 514.007812 589.425781 C 521.628906 592.390625 529.253906 595.363281 536.875 598.332031 C 572.71875 612.292969 609.777344 626.722656 646.246094 640.894531 C 670.4375 650.292969 701.117188 655.167969 719.851562 632.507812 C 722.078125 629.820312 724.023438 626.8125 724.957031 623.449219 C 727.136719 615.660156 725.910156 606.625 727.375 598.59375 C 728.230469 593.878906 730.960938 590.027344 732.210938 585.503906 C 733.269531 581.675781 733.726562 577.1875 734.25 573.269531 C 735.746094 562.113281 732.507812 551.089844 732.460938 539.949219 C 730.582031 540.101562 728.722656 540.25 726.894531 540.375 "/><path style=" stroke:none;fill-rule:nonzero;fill:#c0e47e;fill-opacity:1;" d="M 628.792969 731.308594 C 615.472656 748.222656 600.941406 758.773438 589.925781 759.527344 C 576.757812 760.433594 561.476562 756.4375 550.046875 749.097656 C 548.601562 748.167969 547.214844 747.183594 545.929688 746.171875 C 533.398438 736.3125 524.628906 722.355469 517.703125 710.003906 C 511.394531 698.765625 505.660156 687.03125 500.664062 675.136719 C 499.988281 673.527344 499.277344 671.886719 498.554688 670.21875 C 496.035156 664.390625 493.425781 658.363281 491.695312 652.417969 C 490.476562 648.21875 489.828125 644.550781 489.71875 641.1875 C 489.578125 636.878906 490.835938 633.035156 493.082031 630.894531 C 494.992188 629.082031 498.058594 627.980469 501.722656 627.789062 C 510.636719 627.328125 520.351562 630.070312 529.742188 632.71875 C 531.519531 633.21875 533.277344 633.71875 535.015625 634.1875 C 547.765625 637.640625 558.863281 641.121094 568.945312 644.820312 C 586.402344 651.230469 601.324219 658.480469 614.570312 666.980469 C 615.289062 667.445312 616.011719 667.914062 616.722656 668.386719 C 632.492188 678.828125 640.867188 689.117188 643.085938 700.757812 C 644.980469 710.746094 634.453125 724.121094 628.792969 731.308594 Z M 679.964844 713.347656 C 682.976562 696.574219 677.902344 681.132812 664.878906 667.4375 C 659.789062 662.089844 653.351562 656.898438 645.742188 652.011719 C 622.121094 636.84375 591.207031 626.792969 566.363281 618.71875 C 557.132812 615.71875 549.15625 613.125 543.007812 610.726562 L 497.394531 592.957031 L 488.40625 589.457031 C 485.472656 588.3125 481.789062 586.695312 477.890625 584.984375 C 464.304688 579.027344 448.914062 572.277344 437.980469 572.496094 C 433.6875 572.585938 430.148438 573.746094 427.464844 575.945312 C 419.796875 582.246094 423.683594 594.957031 429.027344 607.753906 C 433.949219 619.546875 441.269531 633.429688 447.726562 645.679688 C 451.953125 653.695312 455.949219 661.269531 458.269531 666.425781 L 467.246094 686.347656 L 494.082031 745.902344 C 496.058594 750.292969 498.117188 755.871094 500.296875 761.78125 C 507.546875 781.421875 515.761719 803.6875 530.789062 813.335938 C 531.410156 813.738281 532.050781 814.117188 532.683594 814.464844 C 541.355469 819.21875 550.96875 821.335938 560.785156 821.609375 C 570.859375 821.890625 579.03125 816.042969 588.699219 814.097656 C 592.03125 813.429688 595.46875 813.3125 598.769531 812.492188 C 615.214844 808.402344 628.316406 788.300781 639.503906 776.753906 C 641.359375 774.839844 643.222656 772.925781 645.085938 771.019531 C 652.464844 763.449219 659.214844 755.804688 666.679688 748.402344 C 675.742188 738.539062 677.707031 725.890625 679.964844 713.347656 "/><path style=" stroke:none;fill-rule:nonzero;fill:#c0e47e;fill-opacity:1;" d="M 314.554688 554.984375 C 313.042969 555.035156 311.53125 555.082031 310.019531 555.113281 C 298.554688 555.332031 287.082031 554.425781 275.621094 553.671875 C 271.101562 557.808594 264.273438 561.746094 258.199219 565.246094 C 256.414062 566.273438 254.730469 567.242188 253.113281 568.210938 C 247.320312 571.675781 241.3125 574.613281 234.949219 577.71875 C 232.933594 578.703125 230.917969 579.6875 228.910156 580.6875 C 205.203125 592.523438 181.585938 598.933594 158.722656 599.753906 C 152.980469 599.960938 145.570312 599.890625 139.191406 597.503906 C 137.738281 596.960938 136.347656 596.265625 135.050781 595.433594 C 122.808594 587.570312 119.730469 568.132812 118.980469 560.140625 C 118.558594 555.679688 118.367188 551.207031 118.390625 546.746094 C 113.144531 546.464844 107.894531 546.175781 102.636719 545.910156 C 95.578125 545.554688 88.464844 545.277344 81.351562 545.25 C 80.855469 555.378906 78.6875 563.222656 80.523438 573.59375 C 81.949219 581.628906 82.921875 589.914062 84.820312 597.851562 C 86.574219 605.199219 89.292969 611.851562 89.324219 619.625 C 89.335938 623.035156 89 626.46875 89.503906 629.84375 C 90.378906 635.660156 93.699219 640.828125 97.523438 645.296875 C 105.1875 654.261719 115.824219 661.335938 127.574219 663.363281 C 139.015625 665.335938 153.140625 660.738281 163.625 656.253906 C 179.40625 649.515625 195.285156 642.339844 210.644531 635.402344 C 225.804688 628.554688 240.628906 622.613281 256.296875 617.078125 C 272.226562 611.457031 287.953125 605 302.390625 596.15625 C 316.582031 587.460938 332.828125 582.664062 347.890625 575.695312 C 353.808594 572.957031 359.832031 570.027344 365.066406 566.09375 C 366.023438 565.371094 373.171875 556.914062 373.097656 556.914062 C 362.070312 556.855469 351.042969 556.785156 340.015625 556.488281 C 331.496094 556.257812 323.015625 555.691406 314.554688 554.984375 "/><path style=" stroke:none;fill-rule:nonzero;fill:#c0e47e;fill-opacity:1;" d="M 276.785156 752.023438 C 273.59375 757.113281 270.183594 762.070312 265.996094 766.058594 C 258.726562 772.976562 247.953125 775.425781 238.015625 774.03125 C 223.765625 772.035156 209.691406 762.769531 200.925781 751.511719 C 197.273438 746.816406 194.625 741.785156 192.292969 736.34375 C 190.507812 732.179688 187.3125 728.164062 186.097656 723.847656 C 185.476562 721.636719 185.625 719.285156 185.878906 717 C 188.464844 693.785156 206.503906 680.0625 226.988281 671.550781 C 230.324219 670.164062 233.6875 669.03125 237.246094 667.824219 C 241.292969 666.457031 245.484375 665.039062 249.703125 663.207031 L 273.601562 652.820312 C 276.988281 651.347656 280.449219 649.667969 283.796875 648.046875 C 295.320312 642.457031 307.234375 636.679688 318.578125 637.925781 C 320.292969 638.113281 321.878906 638.628906 323.046875 639.382812 C 323.625 639.753906 324.09375 640.175781 324.441406 640.636719 C 326.476562 643.375 325.535156 648.710938 324.214844 654.066406 C 324 654.929688 323.769531 655.804688 323.535156 656.667969 C 320.0625 669.285156 314.316406 680.945312 308.230469 693.292969 C 306.039062 697.738281 303.773438 702.335938 301.628906 706.976562 L 300.980469 708.371094 C 296.015625 719.117188 291.0625 729.992188 284.414062 739.832031 C 281.8125 743.683594 279.367188 747.894531 276.785156 752.023438 Z M 331.730469 722.222656 L 351.074219 673.085938 L 361.90625 645.582031 C 362.640625 643.703125 364.671875 640.039062 366.824219 636.160156 C 370.96875 628.683594 376.125 619.382812 379.203125 610.578125 C 383.652344 597.851562 382.527344 588.691406 375.867188 583.355469 C 375.476562 583.046875 375.070312 582.75 374.652344 582.480469 C 371.894531 580.710938 368.507812 579.859375 364.578125 579.9375 C 352.332031 580.183594 335.300781 589.765625 322.863281 596.761719 C 318.964844 598.953125 315.601562 600.84375 313.640625 601.714844 L 283.480469 615.144531 L 238.890625 634.992188 C 231.945312 638.089844 224.546875 640.84375 216.714844 643.761719 C 192.96875 652.605469 168.421875 661.753906 152.117188 681.796875 C 144.746094 690.867188 136.890625 705.144531 137.9375 717.308594 C 138.699219 726.15625 140.523438 734.308594 143.109375 742.722656 C 149.519531 763.617188 166.179688 775.597656 180.878906 790.53125 C 188.167969 797.933594 194.832031 806.75 203.480469 812.605469 C 210.28125 817.214844 219.578125 818.488281 227.113281 821.636719 C 236.355469 825.492188 246.71875 827.796875 256.753906 827.597656 C 260.503906 827.519531 264.160156 827.070312 267.617188 826.257812 C 284.542969 822.289062 297.175781 809.992188 305.164062 789.703125 C 314.019531 767.207031 322.875 744.71875 331.730469 722.222656 "/><path style=" stroke:none;fill-rule:nonzero;fill:#faffa1;fill-opacity:1;" d="M 169.714844 549.769531 C 162.980469 549.390625 156.285156 548.808594 149.601562 548.152344 C 142.535156 547.941406 135.480469 547.628906 128.429688 547.273438 C 128.449219 547.652344 128.460938 548.023438 128.484375 548.402344 C 129.886719 568.667969 144.441406 590.105469 166.394531 578.558594 C 174.398438 574.347656 181.667969 568.75 187.757812 562.066406 C 190.761719 558.773438 193.527344 555.015625 195.066406 550.894531 C 186.613281 550.601562 178.160156 550.246094 169.714844 549.769531 "/><path style=" stroke:none;fill-rule:nonzero;fill:#faffa1;fill-opacity:1;" d="M 210.453125 704.457031 C 214.347656 701.222656 219.253906 699.066406 224.261719 698.117188 C 234.515625 696.179688 260.972656 697.496094 263.894531 710.769531 C 264.832031 715.011719 263.613281 719.445312 263.144531 723.660156 C 262.585938 728.726562 261.820312 733.835938 260.039062 738.640625 C 255.613281 750.605469 243.566406 759.78125 230.714844 754.703125 C 220.328125 750.605469 215.21875 742.222656 208.824219 733.890625 C 203.75 727.273438 200.460938 720.378906 204.324219 712.21875 C 205.757812 709.1875 207.886719 706.585938 210.453125 704.457031 "/><path style=" stroke:none;fill-rule:nonzero;fill:#faffa1;fill-opacity:1;" d="M 390.21875 809.191406 C 389.378906 805.988281 389.253906 802.652344 390.003906 799.8125 C 391.136719 795.542969 393.472656 791.707031 395.78125 787.933594 C 398.226562 783.941406 400.699219 779.910156 404.003906 776.59375 C 407.308594 773.273438 411.570312 770.6875 416.234375 770.289062 C 422.652344 769.738281 428.726562 773.335938 433.507812 777.65625 C 440.359375 783.84375 452.332031 798.382812 449.738281 808.34375 C 446.738281 819.855469 433.027344 825.46875 422.285156 826.015625 C 414.386719 826.421875 403.636719 824.59375 397 819.84375 C 393.726562 817.496094 391.339844 813.457031 390.21875 809.191406 "/><path style=" stroke:none;fill-rule:nonzero;fill:#faffa1;fill-opacity:1;" d="M 576.40625 736.433594 C 569.046875 730.375 566.117188 719.085938 564.636719 710.101562 C 563.402344 702.628906 564.472656 694.429688 569.214844 688.527344 C 577.171875 678.613281 589.863281 679.726562 600.585938 683.945312 C 608.292969 686.976562 617.699219 690.824219 622.140625 698.289062 C 628.113281 708.328125 618.375 721.71875 612.292969 729.472656 C 608.28125 734.59375 602.980469 738.933594 596.710938 740.644531 C 590.378906 742.375 583.320312 741.210938 577.882812 737.539062 C 577.371094 737.195312 576.878906 736.824219 576.40625 736.433594 "/><path style=" stroke:none;fill-rule:nonzero;fill:#faffa1;fill-opacity:1;" d="M 640.648438 544.765625 C 635.292969 545.46875 629.925781 546.109375 624.558594 546.726562 C 626.21875 552.859375 631.972656 557.21875 637.308594 560.917969 C 642.613281 564.605469 648.042969 568.347656 654.234375 570.207031 C 658.089844 571.367188 661.621094 571.539062 664.796875 570.929688 C 676.925781 568.617188 683.882812 554.984375 684.246094 541.882812 C 669.6875 542.261719 655.144531 542.855469 640.648438 544.765625 "/></g></svg>