<svg xmlns="http://www.w3.org/2000/svg" xmlns:xlink="http://www.w3.org/1999/xlink" width="500" zoomAndPan="magnify" viewBox="0 0 375 374.999991" height="500" preserveAspectRatio="xMidYMid meet" version="1.2"><defs><clipPath id="23c1c644c2"><path d="M 175.203125 337.5 L 179.703125 337.5 L 179.703125 342 L 175.203125 342 Z M 175.203125 337.5 "/></clipPath><clipPath id="0dbe02f728"><path d="M 179.703125 339.75 C 179.703125 340.046875 179.644531 340.335938 179.53125 340.609375 C 179.417969 340.886719 179.253906 341.128906 179.042969 341.339844 C 178.832031 341.550781 178.589844 341.714844 178.3125 341.828125 C 178.039062 341.941406 177.75 342 177.453125 342 C 177.152344 342 176.867188 341.941406 176.589844 341.828125 C 176.316406 341.714844 176.070312 341.550781 175.859375 341.339844 C 175.648438 341.128906 175.488281 340.886719 175.375 340.609375 C 175.257812 340.335938 175.203125 340.046875 175.203125 339.75 C 175.203125 339.453125 175.257812 339.164062 175.375 338.890625 C 175.488281 338.613281 175.648438 338.371094 175.859375 338.160156 C 176.070312 337.949219 176.316406 337.785156 176.589844 337.671875 C 176.867188 337.558594 177.152344 337.5 177.453125 337.5 C 177.75 337.5 178.039062 337.558594 178.3125 337.671875 C 178.589844 337.785156 178.832031 337.949219 179.042969 338.160156 C 179.253906 338.371094 179.417969 338.613281 179.53125 338.890625 C 179.644531 339.164062 179.703125 339.453125 179.703125 339.75 Z M 179.703125 339.75 "/></clipPath><linearGradient x1="0.0503515" gradientTransform="matrix(0.014658,0,0,0.014658,175.20193,337.499994)" y1="307.049442" x2="307.051046" gradientUnits="userSpaceOnUse" y2="0.0501598" id="fa38e7c65e"><stop style="stop-color:#fec053;stop-opacity:1;" offset="0"/><stop style="stop-color:#fec053;stop-opacity:1;" offset="0.125"/><stop style="stop-color:#fec053;stop-opacity:1;" offset="0.140625"/><stop style="stop-color:#fec053;stop-opacity:1;" offset="0.144531"/><stop style="stop-color:#febf53;stop-opacity:1;" offset="0.148438"/><stop style="stop-color:#febd52;stop-opacity:1;" offset="0.152344"/><stop style="stop-color:#febb52;stop-opacity:1;" offset="0.15625"/><stop style="stop-color:#fdb952;stop-opacity:1;" offset="0.160156"/><stop style="stop-color:#fdb852;stop-opacity:1;" offset="0.164062"/><stop style="stop-color:#fdb652;stop-opacity:1;" offset="0.167969"/><stop style="stop-color:#fdb451;stop-opacity:1;" offset="0.171875"/><stop style="stop-color:#fdb251;stop-opacity:1;" offset="0.175781"/><stop style="stop-color:#fdb051;stop-opacity:1;" offset="0.179687"/><stop style="stop-color:#fdae51;stop-opacity:1;" offset="0.183594"/><stop style="stop-color:#fcac50;stop-opacity:1;" offset="0.1875"/><stop style="stop-color:#fcaa50;stop-opacity:1;" offset="0.191406"/><stop style="stop-color:#fca950;stop-opacity:1;" offset="0.195313"/><stop style="stop-color:#fca750;stop-opacity:1;" offset="0.199219"/><stop style="stop-color:#fca54f;stop-opacity:1;" offset="0.203125"/><stop style="stop-color:#fca34f;stop-opacity:1;" offset="0.207031"/><stop style="stop-color:#fca14f;stop-opacity:1;" offset="0.210938"/><stop style="stop-color:#fc9f4f;stop-opacity:1;" offset="0.214844"/><stop style="stop-color:#fb9d4e;stop-opacity:1;" offset="0.21875"/><stop style="stop-color:#fb9b4e;stop-opacity:1;" offset="0.222656"/><stop style="stop-color:#fb9a4e;stop-opacity:1;" offset="0.226562"/><stop style="stop-color:#fb984e;stop-opacity:1;" offset="0.230469"/><stop style="stop-color:#fb964d;stop-opacity:1;" offset="0.234375"/><stop style="stop-color:#fb944d;stop-opacity:1;" offset="0.238281"/><stop style="stop-color:#fb924d;stop-opacity:1;" offset="0.242188"/><stop style="stop-color:#fa904d;stop-opacity:1;" offset="0.246094"/><stop style="stop-color:#fa8e4c;stop-opacity:1;" offset="0.25"/><stop style="stop-color:#fa8c4c;stop-opacity:1;" offset="0.253906"/><stop style="stop-color:#fa8b4c;stop-opacity:1;" offset="0.257812"/><stop style="stop-color:#fa894c;stop-opacity:1;" offset="0.261719"/><stop style="stop-color:#fa874b;stop-opacity:1;" offset="0.265625"/><stop style="stop-color:#fa854b;stop-opacity:1;" offset="0.269531"/><stop style="stop-color:#f9834b;stop-opacity:1;" offset="0.273438"/><stop style="stop-color:#f9814b;stop-opacity:1;" offset="0.277344"/><stop style="stop-color:#f97f4a;stop-opacity:1;" offset="0.28125"/><stop style="stop-color:#f97d4a;stop-opacity:1;" offset="0.285156"/><stop style="stop-color:#f97c4a;stop-opacity:1;" offset="0.289062"/><stop style="stop-color:#f97a4a;stop-opacity:1;" offset="0.292969"/><stop style="stop-color:#f97849;stop-opacity:1;" offset="0.296875"/><stop style="stop-color:#f87649;stop-opacity:1;" offset="0.300781"/><stop style="stop-color:#f87449;stop-opacity:1;" offset="0.304688"/><stop style="stop-color:#f87249;stop-opacity:1;" offset="0.308594"/><stop style="stop-color:#f87048;stop-opacity:1;" offset="0.3125"/><stop style="stop-color:#f86e48;stop-opacity:1;" offset="0.316406"/><stop style="stop-color:#f86d48;stop-opacity:1;" offset="0.320312"/><stop style="stop-color:#f86b48;stop-opacity:1;" offset="0.324219"/><stop style="stop-color:#f76947;stop-opacity:1;" offset="0.328125"/><stop style="stop-color:#f76747;stop-opacity:1;" offset="0.332031"/><stop style="stop-color:#f76547;stop-opacity:1;" offset="0.335938"/><stop style="stop-color:#f76347;stop-opacity:1;" offset="0.339844"/><stop style="stop-color:#f76147;stop-opacity:1;" offset="0.34375"/><stop style="stop-color:#f75f46;stop-opacity:1;" offset="0.347656"/><stop style="stop-color:#f75e46;stop-opacity:1;" offset="0.351562"/><stop style="stop-color:#f65c46;stop-opacity:1;" offset="0.355469"/><stop style="stop-color:#f65a46;stop-opacity:1;" offset="0.359375"/><stop style="stop-color:#f65845;stop-opacity:1;" offset="0.363281"/><stop style="stop-color:#f65645;stop-opacity:1;" offset="0.367188"/><stop style="stop-color:#f65445;stop-opacity:1;" offset="0.371094"/><stop style="stop-color:#f65245;stop-opacity:1;" offset="0.375"/><stop style="stop-color:#f65044;stop-opacity:1;" offset="0.378906"/><stop style="stop-color:#f54e44;stop-opacity:1;" offset="0.382812"/><stop style="stop-color:#f54d44;stop-opacity:1;" offset="0.386719"/><stop style="stop-color:#f54b44;stop-opacity:1;" offset="0.390625"/><stop style="stop-color:#f54943;stop-opacity:1;" offset="0.394531"/><stop style="stop-color:#f54743;stop-opacity:1;" offset="0.398438"/><stop style="stop-color:#f54543;stop-opacity:1;" offset="0.402344"/><stop style="stop-color:#f54343;stop-opacity:1;" offset="0.40625"/><stop style="stop-color:#f44142;stop-opacity:1;" offset="0.410156"/><stop style="stop-color:#f43f42;stop-opacity:1;" offset="0.414062"/><stop style="stop-color:#f43e42;stop-opacity:1;" offset="0.417969"/><stop style="stop-color:#f43c42;stop-opacity:1;" offset="0.421875"/><stop style="stop-color:#f43a41;stop-opacity:1;" offset="0.425781"/><stop style="stop-color:#f43841;stop-opacity:1;" offset="0.429688"/><stop style="stop-color:#f43641;stop-opacity:1;" offset="0.433594"/><stop style="stop-color:#f43441;stop-opacity:1;" offset="0.4375"/><stop style="stop-color:#f33240;stop-opacity:1;" offset="0.441406"/><stop style="stop-color:#f33040;stop-opacity:1;" offset="0.445312"/><stop style="stop-color:#f32f40;stop-opacity:1;" offset="0.449219"/><stop style="stop-color:#f32d40;stop-opacity:1;" offset="0.453125"/><stop style="stop-color:#f32b3f;stop-opacity:1;" offset="0.457031"/><stop style="stop-color:#f3293f;stop-opacity:1;" offset="0.460937"/><stop style="stop-color:#f3273f;stop-opacity:1;" offset="0.464844"/><stop style="stop-color:#f2253f;stop-opacity:1;" offset="0.46875"/><stop style="stop-color:#f2233e;stop-opacity:1;" offset="0.472656"/><stop style="stop-color:#f2213e;stop-opacity:1;" offset="0.476562"/><stop style="stop-color:#f1213f;stop-opacity:1;" offset="0.480469"/><stop style="stop-color:#f02041;stop-opacity:1;" offset="0.484375"/><stop style="stop-color:#ef2043;stop-opacity:1;" offset="0.488281"/><stop style="stop-color:#ee2046;stop-opacity:1;" offset="0.492188"/><stop style="stop-color:#ec2048;stop-opacity:1;" offset="0.496094"/><stop style="stop-color:#eb204a;stop-opacity:1;" offset="0.5"/><stop style="stop-color:#ea204d;stop-opacity:1;" offset="0.503906"/><stop style="stop-color:#e8204f;stop-opacity:1;" offset="0.507812"/><stop style="stop-color:#e72052;stop-opacity:1;" offset="0.511719"/><stop style="stop-color:#e62054;stop-opacity:1;" offset="0.515625"/><stop style="stop-color:#e42057;stop-opacity:1;" offset="0.519531"/><stop style="stop-color:#e32059;stop-opacity:1;" offset="0.523437"/><stop style="stop-color:#e2205b;stop-opacity:1;" offset="0.527344"/><stop style="stop-color:#e0205e;stop-opacity:1;" offset="0.53125"/><stop style="stop-color:#df2060;stop-opacity:1;" offset="0.535156"/><stop style="stop-color:#de2063;stop-opacity:1;" offset="0.539062"/><stop style="stop-color:#dc2065;stop-opacity:1;" offset="0.542969"/><stop style="stop-color:#db2068;stop-opacity:1;" offset="0.546875"/><stop style="stop-color:#d9206a;stop-opacity:1;" offset="0.550781"/><stop style="stop-color:#d8206d;stop-opacity:1;" offset="0.554688"/><stop style="stop-color:#d7206f;stop-opacity:1;" offset="0.558594"/><stop style="stop-color:#d52071;stop-opacity:1;" offset="0.5625"/><stop style="stop-color:#d41f74;stop-opacity:1;" offset="0.566406"/><stop style="stop-color:#d31f76;stop-opacity:1;" offset="0.570312"/><stop style="stop-color:#d11f79;stop-opacity:1;" offset="0.574219"/><stop style="stop-color:#d01f7b;stop-opacity:1;" offset="0.578125"/><stop style="stop-color:#cf1f7e;stop-opacity:1;" offset="0.582031"/><stop style="stop-color:#cd1f80;stop-opacity:1;" offset="0.585938"/><stop style="stop-color:#cc1f82;stop-opacity:1;" offset="0.589844"/><stop style="stop-color:#cb1f85;stop-opacity:1;" offset="0.59375"/><stop style="stop-color:#c91f87;stop-opacity:1;" offset="0.597656"/><stop style="stop-color:#c81f8a;stop-opacity:1;" offset="0.601562"/><stop style="stop-color:#c71f8c;stop-opacity:1;" offset="0.605469"/><stop style="stop-color:#c51f8f;stop-opacity:1;" offset="0.609375"/><stop style="stop-color:#c41f91;stop-opacity:1;" offset="0.613281"/><stop style="stop-color:#c31f93;stop-opacity:1;" offset="0.617188"/><stop style="stop-color:#c11f96;stop-opacity:1;" offset="0.621094"/><stop style="stop-color:#c01f98;stop-opacity:1;" offset="0.625"/><stop style="stop-color:#be1f9b;stop-opacity:1;" offset="0.628906"/><stop style="stop-color:#bd1f9d;stop-opacity:1;" offset="0.632812"/><stop style="stop-color:#bc1fa0;stop-opacity:1;" offset="0.636719"/><stop style="stop-color:#ba1fa2;stop-opacity:1;" offset="0.640625"/><stop style="stop-color:#b91fa4;stop-opacity:1;" offset="0.644531"/><stop style="stop-color:#b81fa7;stop-opacity:1;" offset="0.648438"/><stop style="stop-color:#b620a8;stop-opacity:1;" offset="0.652344"/><stop style="stop-color:#b421a9;stop-opacity:1;" offset="0.65625"/><stop style="stop-color:#b222aa;stop-opacity:1;" offset="0.660156"/><stop style="stop-color:#b023ab;stop-opacity:1;" offset="0.664062"/><stop style="stop-color:#ae23ac;stop-opacity:1;" offset="0.667969"/><stop style="stop-color:#ac24ad;stop-opacity:1;" offset="0.671875"/><stop style="stop-color:#aa25ae;stop-opacity:1;" offset="0.675781"/><stop style="stop-color:#a926af;stop-opacity:1;" offset="0.679688"/><stop style="stop-color:#a727b0;stop-opacity:1;" offset="0.683594"/><stop style="stop-color:#a528b0;stop-opacity:1;" offset="0.6875"/><stop style="stop-color:#a329b1;stop-opacity:1;" offset="0.691406"/><stop style="stop-color:#a12ab2;stop-opacity:1;" offset="0.695312"/><stop style="stop-color:#9f2bb3;stop-opacity:1;" offset="0.699219"/><stop style="stop-color:#9d2cb4;stop-opacity:1;" offset="0.703125"/><stop style="stop-color:#9b2db5;stop-opacity:1;" offset="0.707031"/><stop style="stop-color:#992eb6;stop-opacity:1;" offset="0.710938"/><stop style="stop-color:#972fb7;stop-opacity:1;" offset="0.714844"/><stop style="stop-color:#9530b8;stop-opacity:1;" offset="0.71875"/><stop style="stop-color:#9331b8;stop-opacity:1;" offset="0.722656"/><stop style="stop-color:#9132b9;stop-opacity:1;" offset="0.726563"/><stop style="stop-color:#8f33ba;stop-opacity:1;" offset="0.730469"/><stop style="stop-color:#8e34bb;stop-opacity:1;" offset="0.734375"/><stop style="stop-color:#8c35bc;stop-opacity:1;" offset="0.738281"/><stop style="stop-color:#8a36bd;stop-opacity:1;" offset="0.742188"/><stop style="stop-color:#8837be;stop-opacity:1;" offset="0.746094"/><stop style="stop-color:#8638bf;stop-opacity:1;" offset="0.75"/><stop style="stop-color:#8439bf;stop-opacity:1;" offset="0.753906"/><stop style="stop-color:#823ac0;stop-opacity:1;" offset="0.757812"/><stop style="stop-color:#803bc1;stop-opacity:1;" offset="0.761719"/><stop style="stop-color:#7e3cc2;stop-opacity:1;" offset="0.765625"/><stop style="stop-color:#7c3cc3;stop-opacity:1;" offset="0.769531"/><stop style="stop-color:#7a3dc4;stop-opacity:1;" offset="0.773438"/><stop style="stop-color:#783ec5;stop-opacity:1;" offset="0.777344"/><stop style="stop-color:#763fc6;stop-opacity:1;" offset="0.78125"/><stop style="stop-color:#7440c7;stop-opacity:1;" offset="0.785156"/><stop style="stop-color:#7341c7;stop-opacity:1;" offset="0.789062"/><stop style="stop-color:#7142c8;stop-opacity:1;" offset="0.792969"/><stop style="stop-color:#6f43c9;stop-opacity:1;" offset="0.796875"/><stop style="stop-color:#6d44ca;stop-opacity:1;" offset="0.800781"/><stop style="stop-color:#6b45cb;stop-opacity:1;" offset="0.804688"/><stop style="stop-color:#6946cc;stop-opacity:1;" offset="0.808594"/><stop style="stop-color:#6747cd;stop-opacity:1;" offset="0.8125"/><stop style="stop-color:#6548ce;stop-opacity:1;" offset="0.816406"/><stop style="stop-color:#6349cf;stop-opacity:1;" offset="0.820313"/><stop style="stop-color:#614acf;stop-opacity:1;" offset="0.824219"/><stop style="stop-color:#5f4bd0;stop-opacity:1;" offset="0.828125"/><stop style="stop-color:#5d4cd1;stop-opacity:1;" offset="0.832031"/><stop style="stop-color:#5b4dd2;stop-opacity:1;" offset="0.835938"/><stop style="stop-color:#594ed3;stop-opacity:1;" offset="0.839844"/><stop style="stop-color:#574fd4;stop-opacity:1;" offset="0.84375"/><stop style="stop-color:#5650d5;stop-opacity:1;" offset="0.847656"/><stop style="stop-color:#5451d6;stop-opacity:1;" offset="0.851563"/><stop style="stop-color:#5351d6;stop-opacity:1;" offset="0.859375"/><stop style="stop-color:#5351d6;stop-opacity:1;" offset="0.875"/><stop style="stop-color:#5351d6;stop-opacity:1;" offset="1"/></linearGradient><clipPath id="fdcd2f9939"><path d="M 14.0625 172 L 34 172 L 34 185 L 14.0625 185 Z M 14.0625 172 "/></clipPath><clipPath id="5fd1a5eff8"><path d="M 342 161 L 361.3125 161 L 361.3125 173 L 342 173 Z M 342 161 "/></clipPath></defs><g id="ebc7973392"><g clip-rule="nonzero" clip-path="url(#23c1c644c2)"><g clip-rule="nonzero" clip-path="url(#0dbe02f728)"><path style=" stroke:none;fill-rule:nonzero;fill:url(#fa38e7c65e);" d="M 175.203125 337.5 L 175.203125 342 L 179.703125 342 L 179.703125 337.5 Z M 175.203125 337.5 "/></g></g><path style=" stroke:none;fill-rule:nonzero;fill:#ffffff;fill-opacity:1;" d="M 178.054688 341.109375 L 176.855469 341.109375 C 176.441406 341.109375 176.101562 340.769531 176.101562 340.355469 L 176.101562 339.152344 C 176.101562 338.738281 176.441406 338.398438 176.855469 338.398438 L 178.054688 338.398438 C 178.472656 338.398438 178.808594 338.738281 178.808594 339.152344 L 178.808594 340.355469 C 178.808594 340.769531 178.472656 341.109375 178.054688 341.109375 Z M 176.855469 338.582031 C 176.542969 338.582031 176.285156 338.839844 176.285156 339.152344 L 176.285156 340.355469 C 176.285156 340.667969 176.542969 340.925781 176.855469 340.925781 L 178.054688 340.925781 C 178.371094 340.925781 178.625 340.667969 178.625 340.355469 L 178.625 339.152344 C 178.625 338.839844 178.371094 338.582031 178.054688 338.582031 Z M 176.855469 338.582031 "/><path style=" stroke:none;fill-rule:nonzero;fill:#ffffff;fill-opacity:1;" d="M 177.457031 340.425781 C 177.085938 340.425781 176.785156 340.125 176.785156 339.753906 C 176.785156 339.382812 177.085938 339.082031 177.457031 339.082031 C 177.824219 339.082031 178.125 339.382812 178.125 339.753906 C 178.125 340.125 177.824219 340.425781 177.457031 340.425781 Z M 177.457031 339.265625 C 177.1875 339.265625 176.96875 339.484375 176.96875 339.753906 C 176.96875 340.023438 177.1875 340.242188 177.457031 340.242188 C 177.726562 340.242188 177.941406 340.023438 177.941406 339.753906 C 177.941406 339.484375 177.726562 339.265625 177.457031 339.265625 Z M 177.457031 339.265625 "/><path style=" stroke:none;fill-rule:nonzero;fill:#006837;fill-opacity:1;" d="M 328.914062 246.789062 C 328.894531 246.828125 328.894531 246.847656 328.875 246.886719 C 324.644531 256.800781 319.621094 269.125 311.691406 282.0625 C 306.96875 289.78125 300.976562 297.839844 294.273438 305.167969 C 293.445312 310.855469 291.566406 316.246094 285.597656 322.328125 C 275.929688 332.164062 252.441406 333.664062 236.464844 328.964844 C 236.445312 328.964844 236.445312 328.964844 236.425781 328.964844 C 233.976562 328.136719 228.523438 326.015625 226.605469 324.753906 C 235.5625 326.492188 249.949219 326.328125 261.617188 325.707031 C 264.769531 325.542969 268.160156 325.765625 271.023438 324.820312 C 271.042969 324.820312 271.066406 324.820312 271.085938 324.800781 C 277.964844 322.488281 283.757812 318.636719 287.019531 312.515625 C 287.929688 310.875 288.640625 309.039062 289.117188 307.046875 C 289.570312 305.269531 289.847656 303.332031 289.925781 301.238281 C 289.925781 301.238281 277.410156 305.070312 247.597656 300.980469 C 240.183594 299.976562 211.496094 290.929688 192.574219 303.054688 C 176.007812 313.679688 179.109375 335.703125 147.992188 330.625 C 116.875 325.570312 87.789062 301.140625 85.753906 277.933594 C 83.699219 254.75 98.484375 217.046875 125.492188 196.644531 C 124.011719 197.238281 76.226562 217.125 70.945312 273.332031 C 59.460938 248.09375 53.191406 209.820312 65.527344 181.894531 C 75.375 159.578125 94.316406 144.625 116.082031 136.46875 C 133.027344 136.074219 156.710938 140.816406 166.300781 167.003906 C 166.140625 154.539062 157.363281 136.410156 138.761719 130.527344 C 172.648438 125.09375 208.132812 134.042969 225.214844 155.527344 C 218.179688 142.851562 203.171875 130.84375 183.816406 123.851562 C 183.816406 123.851562 195.085938 119.507812 195.660156 107.460938 C 195.660156 107.460938 188.402344 119.824219 173.65625 120.75 L 173.636719 120.75 C 144.867188 117.117188 115.390625 119.035156 80.398438 140.558594 C 112.523438 88.835938 171.164062 64.40625 235.496094 81.191406 C 242.65625 83.070312 249.535156 85.617188 256.078125 88.699219 C 256.117188 88.71875 256.136719 88.738281 256.175781 88.757812 C 270.097656 96.519531 285.300781 131.574219 284.527344 183.4375 C 289.234375 160.546875 286.941406 124.484375 278.753906 102.304688 C 317.289062 130.585938 341.152344 175.851562 345.9375 197.636719 C 337.773438 135.445312 289.3125 80.996094 234.113281 67.683594 C 250.542969 67.46875 265.925781 64.917969 279.367188 60.277344 L 279.46875 60.277344 C 296.492188 60.140625 312.148438 64.40625 321.085938 69.835938 C 310.035156 58.898438 298.035156 55.953125 291.628906 55.203125 C 309.339844 46.492188 322.3125 33.5 327.765625 16.96875 C 290.933594 71.21875 222.605469 52.992188 162.859375 63.914062 C 162.425781 63.972656 161.96875 64.070312 161.535156 64.148438 L 161.515625 64.148438 C 153.566406 65.609375 145.816406 67.703125 138.34375 70.332031 C 151.511719 51.136719 153.46875 24.75 142.636719 9.839844 C 154.023438 51.472656 123.378906 70.152344 102.480469 88.363281 C 88.996094 97.484375 76.996094 108.664062 66.953125 121.441406 C 66.714844 127.484375 65.46875 132.027344 65.46875 132.027344 C 65.628906 129.046875 65.488281 126.320312 65.113281 123.8125 C 62.425781 104.339844 46.53125 98.199219 46.53125 98.199219 C 58.6875 111.074219 57.839844 130.585938 48.921875 150.296875 C 48.902344 150.355469 48.882812 150.414062 48.84375 150.472656 C 48.46875 151.324219 48.050781 152.191406 47.636719 153.042969 C 38.523438 172.890625 33.441406 194.988281 33.441406 218.253906 C 33.441406 304.816406 103.707031 375.003906 190.363281 375.003906 C 266.992188 375.003906 330.773438 320.140625 344.511719 247.621094 C 345.402344 234.960938 333.304688 237.15625 328.914062 246.789062 Z M 328.914062 246.789062 "/><path style=" stroke:none;fill-rule:nonzero;fill:#006837;fill-opacity:1;" d="M 317.125 239.054688 C 311.515625 246.269531 307.027344 256.269531 301.292969 266.117188 C 296.277344 274.730469 291.011719 286.519531 283.222656 297.003906 L 295.421875 297.425781 C 300.207031 291.621094 304.496094 285.378906 308.015625 279.117188 C 312.503906 272.34375 316.140625 263.871094 319.5625 255.894531 C 321.746094 250.773438 323.839844 245.882812 325.996094 241.460938 L 325.988281 241.464844 C 328.089844 237.359375 321.945312 232.765625 317.125 239.054688 Z M 317.125 239.054688 "/><path style=" stroke:none;fill-rule:nonzero;fill:#006837;fill-opacity:1;" d="M 298.839844 244.347656 C 294.894531 249.121094 293.023438 250.933594 286.746094 262.257812 C 280.585938 273.375 273.949219 286.0625 264.933594 297.003906 L 277.667969 297.003906 C 285.753906 286.460938 291.113281 273.648438 297.261719 263.746094 C 302.753906 254.898438 303.957031 251.660156 309.089844 244.789062 L 309.070312 244.800781 C 310.667969 242.6875 306.527344 236.679688 298.839844 244.347656 Z M 298.839844 244.347656 "/><path style=" stroke:none;fill-rule:nonzero;fill:#67bd71;fill-opacity:1;" d="M 299.726562 129.5 C 295.636719 132.292969 292.855469 137.066406 292.671875 142.578125 C 292.488281 148.085938 294.941406 153.035156 298.835938 156.097656 C 302.929688 153.304688 305.707031 148.527344 305.890625 143.019531 C 306.078125 137.507812 303.625 132.558594 299.726562 129.5 Z M 299.726562 129.5 "/><path style=" stroke:none;fill-rule:nonzero;fill:#67bd71;fill-opacity:1;" d="M 315.703125 151.101562 C 312.140625 153.53125 309.722656 157.691406 309.5625 162.484375 C 309.402344 167.28125 311.535156 171.589844 314.925781 174.253906 C 318.488281 171.824219 320.90625 167.664062 321.066406 162.871094 C 321.230469 158.074219 319.09375 153.765625 315.703125 151.101562 Z M 315.703125 151.101562 "/><path style=" stroke:none;fill-rule:nonzero;fill:#67bd71;fill-opacity:1;" d="M 293.867188 162.675781 C 292.105469 166.609375 292.21875 171.417969 294.59375 175.589844 C 296.964844 179.761719 301.042969 182.316406 305.328125 182.816406 C 307.089844 178.882812 306.976562 174.078125 304.601562 169.90625 C 302.226562 165.734375 298.152344 163.175781 293.867188 162.675781 Z M 293.867188 162.675781 "/><path style=" stroke:none;fill-rule:nonzero;fill:#67bd71;fill-opacity:1;" d="M 294.667969 72.414062 C 291.484375 68.507812 286.402344 66.097656 280.796875 66.375 C 275.1875 66.65625 270.371094 69.558594 267.59375 73.761719 C 270.777344 77.671875 275.859375 80.082031 281.464844 79.800781 C 287.074219 79.523438 291.890625 76.617188 294.667969 72.414062 Z M 294.667969 72.414062 "/><path style=" stroke:none;fill-rule:nonzero;fill:#67bd71;fill-opacity:1;" d="M 328.632812 56.054688 C 333.714844 55.175781 337.78125 51.992188 339.84375 47.851562 C 336.507812 44.644531 331.605469 43.011719 326.523438 43.890625 C 321.441406 44.769531 317.375 47.953125 315.316406 52.097656 C 318.652344 55.304688 323.554688 56.933594 328.632812 56.054688 Z M 328.632812 56.054688 "/><path style=" stroke:none;fill-rule:nonzero;fill:#67bd71;fill-opacity:1;" d="M 337.238281 35.042969 C 340.785156 33.359375 343.121094 30.195312 343.785156 26.734375 C 340.679688 25.0625 336.75 24.863281 333.203125 26.546875 C 329.65625 28.230469 327.320312 31.394531 326.65625 34.855469 C 329.761719 36.527344 333.691406 36.722656 337.238281 35.042969 Z M 337.238281 35.042969 "/><path style=" stroke:none;fill-rule:nonzero;fill:#67bd71;fill-opacity:1;" d="M 335.917969 74.714844 C 332.503906 72.109375 328.25 71.425781 324.546875 72.515625 C 324.472656 76.371094 326.25 80.289062 329.667969 82.894531 C 333.082031 85.5 337.335938 86.183594 341.039062 85.09375 C 341.113281 81.238281 339.335938 77.320312 335.917969 74.714844 Z M 335.917969 74.714844 "/><path style=" stroke:none;fill-rule:nonzero;fill:#67bd71;fill-opacity:1;" d="M 300.089844 28.40625 C 300.914062 23.816406 299.460938 19.371094 296.570312 16.335938 C 292.804688 18.175781 289.898438 21.839844 289.074219 26.429688 C 288.246094 31.023438 289.699219 35.464844 292.589844 38.5 C 296.355469 36.660156 299.265625 32.996094 300.089844 28.40625 Z M 300.089844 28.40625 "/><path style=" stroke:none;fill-rule:nonzero;fill:#67bd71;fill-opacity:1;" d="M 266.8125 48.757812 C 271.445312 47.667969 275.589844 44.347656 277.664062 39.476562 C 279.738281 34.601562 279.253906 29.316406 276.824219 25.226562 C 272.1875 26.316406 268.042969 29.636719 265.96875 34.511719 C 263.894531 39.382812 264.378906 44.667969 266.8125 48.757812 Z M 266.8125 48.757812 "/><path style=" stroke:none;fill-rule:nonzero;fill:#67bd71;fill-opacity:1;" d="M 253.183594 43.285156 C 255.457031 38.597656 255.238281 33.382812 253.042969 29.246094 C 248.4375 30.09375 244.203125 33.15625 241.929688 37.84375 C 239.65625 42.53125 239.878906 47.75 242.070312 51.882812 C 246.675781 51.039062 250.910156 47.976562 253.183594 43.285156 Z M 253.183594 43.285156 "/><path style=" stroke:none;fill-rule:nonzero;fill:#67bd71;fill-opacity:1;" d="M 227.878906 45.289062 C 230.316406 40.542969 230.210938 35.195312 228.066406 30.914062 C 223.332031 31.671875 218.925781 34.707031 216.488281 39.453125 C 214.054688 44.199219 214.15625 49.542969 216.300781 53.828125 C 221.035156 53.070312 225.441406 50.035156 227.878906 45.289062 Z M 227.878906 45.289062 "/><path style=" stroke:none;fill-rule:nonzero;fill:#67bd71;fill-opacity:1;" d="M 190.917969 54.464844 C 195.652344 53.707031 200.058594 50.671875 202.496094 45.925781 C 204.933594 41.179688 204.828125 35.835938 202.683594 31.550781 C 197.949219 32.308594 193.542969 35.34375 191.105469 40.089844 C 188.667969 44.835938 188.773438 50.183594 190.917969 54.464844 Z M 190.917969 54.464844 "/><path style=" stroke:none;fill-rule:nonzero;fill:#67bd71;fill-opacity:1;" d="M 231.1875 17.628906 C 233.621094 12.878906 233.519531 7.535156 231.375 3.253906 C 226.640625 4.011719 222.234375 7.046875 219.796875 11.792969 C 217.363281 16.539062 217.464844 21.882812 219.609375 26.167969 C 224.34375 25.410156 228.75 22.375 231.1875 17.628906 Z M 231.1875 17.628906 "/><path style=" stroke:none;fill-rule:nonzero;fill:#67bd71;fill-opacity:1;" d="M 192.503906 18.421875 C 194.25 15.027344 194.175781 11.203125 192.640625 8.136719 C 189.25 8.679688 186.097656 10.851562 184.355469 14.25 C 182.613281 17.644531 182.683594 21.46875 184.222656 24.535156 C 187.609375 23.992188 190.761719 21.820312 192.503906 18.421875 Z M 192.503906 18.421875 "/><path style=" stroke:none;fill-rule:nonzero;fill:#67bd71;fill-opacity:1;" d="M 266.625 13.433594 C 268.371094 10.035156 268.296875 6.210938 266.761719 3.144531 C 263.371094 3.6875 260.21875 5.863281 258.476562 9.257812 C 256.734375 12.652344 256.808594 16.476562 258.34375 19.542969 C 261.730469 19 264.882812 16.828125 266.625 13.433594 Z M 266.625 13.433594 "/><path style=" stroke:none;fill-rule:nonzero;fill:#67bd71;fill-opacity:1;" d="M 161.257812 44.550781 C 158.820312 49.296875 158.925781 54.640625 161.070312 58.925781 C 165.804688 58.167969 170.210938 55.132812 172.648438 50.386719 C 175.085938 45.636719 174.980469 40.292969 172.835938 36.011719 C 168.101562 36.769531 163.695312 39.804688 161.257812 44.550781 Z M 161.257812 44.550781 "/><path style=" stroke:none;fill-rule:nonzero;fill:#67bd71;fill-opacity:1;" d="M 156.507812 33.582031 C 160.566406 32.933594 164.34375 30.332031 166.433594 26.261719 C 168.523438 22.191406 168.433594 17.609375 166.59375 13.933594 C 162.535156 14.585938 158.757812 17.1875 156.667969 21.257812 C 154.578125 25.328125 154.664062 29.910156 156.507812 33.582031 Z M 156.507812 33.582031 "/><path style=" stroke:none;fill-rule:nonzero;fill:#67bd71;fill-opacity:1;" d="M 136.414062 44.054688 C 137.886719 39.898438 137.375 35.003906 134.605469 30.945312 C 131.839844 26.886719 127.472656 24.613281 123.058594 24.457031 C 121.585938 28.613281 122.101562 33.507812 124.867188 37.566406 C 127.632812 41.625 132.003906 43.898438 136.414062 44.054688 Z M 136.414062 44.054688 "/><path style=" stroke:none;fill-rule:nonzero;fill:#67bd71;fill-opacity:1;" d="M 115.851562 66.875 C 119.675781 61.628906 121 54.511719 118.800781 47.628906 C 116.601562 40.746094 111.394531 35.714844 105.234375 33.648438 C 101.414062 38.894531 100.089844 46.011719 102.289062 52.894531 C 104.488281 59.777344 109.695312 64.8125 115.851562 66.875 Z M 115.851562 66.875 "/><path style=" stroke:none;fill-rule:nonzero;fill:#67bd71;fill-opacity:1;" d="M 86.121094 77.773438 C 84.0625 71.867188 79.445312 67.628906 74.070312 65.984375 C 70.882812 70.609375 69.898438 76.796875 71.957031 82.699219 C 74.011719 88.601562 78.632812 92.839844 84.007812 94.488281 C 87.191406 89.863281 88.179688 83.675781 86.121094 77.773438 Z M 86.121094 77.773438 "/><path style=" stroke:none;fill-rule:nonzero;fill:#67bd71;fill-opacity:1;" d="M 64.300781 85.808594 C 63.835938 80.503906 60.902344 76.042969 56.808594 73.5625 C 53.210938 76.71875 51.105469 81.625 51.574219 86.929688 C 52.039062 92.234375 54.972656 96.695312 59.066406 99.175781 C 62.664062 96.019531 64.769531 91.113281 64.300781 85.808594 Z M 64.300781 85.808594 "/><path style=" stroke:none;fill-rule:nonzero;fill:#67bd71;fill-opacity:1;" d="M 40.683594 108.148438 C 36.605469 107.210938 32.5625 108.316406 29.714844 110.769531 C 31.203125 114.214844 34.355469 116.976562 38.433594 117.910156 C 42.511719 118.847656 46.554688 117.746094 49.398438 115.292969 C 47.914062 111.847656 44.757812 109.085938 40.683594 108.148438 Z M 40.683594 108.148438 "/><path style=" stroke:none;fill-rule:nonzero;fill:#67bd71;fill-opacity:1;" d="M 15.835938 145.316406 C 14.347656 150.722656 15.449219 156.882812 19.328125 161.777344 C 23.210938 166.667969 28.957031 169.152344 34.566406 168.945312 C 36.054688 163.539062 34.949219 157.378906 31.070312 152.484375 C 27.191406 147.59375 21.441406 145.109375 15.835938 145.316406 Z M 15.835938 145.316406 "/><g clip-rule="nonzero" clip-path="url(#fdcd2f9939)"><path style=" stroke:none;fill-rule:nonzero;fill:#67bd71;fill-opacity:1;" d="M 21.3125 173.421875 C 17.382812 175.289062 14.796875 178.800781 14.0625 182.636719 C 17.503906 184.488281 21.859375 184.703125 25.792969 182.835938 C 29.722656 180.96875 32.308594 177.457031 33.042969 173.625 C 29.601562 171.769531 25.242188 171.554688 21.3125 173.421875 Z M 21.3125 173.421875 "/></g><path style=" stroke:none;fill-rule:nonzero;fill:#67bd71;fill-opacity:1;" d="M 37.304688 130.25 C 33.328125 129.921875 29.660156 131.515625 27.304688 134.21875 C 29.179688 137.269531 32.535156 139.449219 36.515625 139.777344 C 40.492188 140.105469 44.164062 138.511719 46.515625 135.808594 C 44.640625 132.757812 41.285156 130.582031 37.304688 130.25 Z M 37.304688 130.25 "/><path style=" stroke:none;fill-rule:nonzero;fill:#67bd71;fill-opacity:1;" d="M 33.648438 96.238281 C 37.230469 98.398438 41.417969 98.609375 44.886719 97.164062 C 44.550781 93.425781 42.414062 89.824219 38.832031 87.664062 C 35.25 85.503906 31.0625 85.292969 27.59375 86.734375 C 27.933594 90.472656 30.066406 94.078125 33.648438 96.238281 Z M 33.648438 96.238281 "/><path style=" stroke:none;fill-rule:nonzero;fill:#67bd71;fill-opacity:1;" d="M 100.429688 73.84375 C 104.609375 74.507812 108.609375 73.113281 111.308594 70.441406 C 109.566406 67.070312 106.195312 64.503906 102.019531 63.84375 C 97.839844 63.183594 93.839844 64.578125 91.140625 67.246094 C 92.882812 70.621094 96.253906 73.183594 100.429688 73.84375 Z M 100.429688 73.84375 "/><path style=" stroke:none;fill-rule:nonzero;fill:#67bd71;fill-opacity:1;" d="M 137.472656 19.542969 C 138.515625 16.601562 138.152344 13.136719 136.195312 10.265625 C 134.238281 7.390625 131.144531 5.785156 128.019531 5.671875 C 126.980469 8.617188 127.34375 12.078125 129.300781 14.953125 C 131.257812 17.824219 134.351562 19.433594 137.472656 19.542969 Z M 137.472656 19.542969 "/><path style=" stroke:none;fill-rule:nonzero;fill:#67bd71;fill-opacity:1;" d="M 156.179688 8.378906 C 157.027344 5.339844 156.328125 2.25 154.574219 0.0234375 C 151.917969 1.027344 149.726562 3.308594 148.878906 6.351562 C 148.03125 9.394531 148.730469 12.480469 150.484375 14.710938 C 153.140625 13.707031 155.332031 11.421875 156.179688 8.378906 Z M 156.179688 8.378906 "/><path style=" stroke:none;fill-rule:nonzero;fill:#67bd71;fill-opacity:1;" d="M 317.375 18.722656 C 318.402344 15.320312 317.695312 11.828125 315.773438 9.277344 C 312.761719 10.339844 310.238281 12.855469 309.210938 16.261719 C 308.179688 19.664062 308.886719 23.152344 310.808594 25.707031 C 313.820312 24.640625 316.34375 22.125 317.375 18.722656 Z M 317.375 18.722656 "/><path style=" stroke:none;fill-rule:nonzero;fill:#67bd71;fill-opacity:1;" d="M 303.714844 94.933594 C 308.640625 94.6875 312.875 92.136719 315.316406 88.441406 C 312.519531 85.007812 308.050781 82.886719 303.125 83.132812 C 298.195312 83.378906 293.964844 85.929688 291.523438 89.625 C 294.320312 93.0625 298.789062 95.179688 303.714844 94.933594 Z M 303.714844 94.933594 "/><path style=" stroke:none;fill-rule:nonzero;fill:#67bd71;fill-opacity:1;" d="M 333.863281 104.8125 C 331.070312 101.378906 326.601562 99.261719 321.675781 99.507812 C 316.746094 99.753906 312.511719 102.304688 310.074219 106 C 312.871094 109.433594 317.335938 111.550781 322.265625 111.304688 C 327.191406 111.058594 331.425781 108.507812 333.863281 104.8125 Z M 333.863281 104.8125 "/><path style=" stroke:none;fill-rule:nonzero;fill:#67bd71;fill-opacity:1;" d="M 336.65625 120.40625 C 332.410156 120.617188 328.757812 122.816406 326.65625 126.003906 C 329.066406 128.964844 332.917969 130.789062 337.164062 130.578125 C 341.414062 130.367188 345.0625 128.167969 347.167969 124.980469 C 344.757812 122.019531 340.90625 120.195312 336.65625 120.40625 Z M 336.65625 120.40625 "/><path style=" stroke:none;fill-rule:nonzero;fill:#67bd71;fill-opacity:1;" d="M 353.625 149.441406 C 352.878906 145.699219 350.328125 142.285156 346.476562 140.488281 C 342.621094 138.691406 338.363281 138.929688 335.015625 140.765625 C 335.757812 144.507812 338.308594 147.921875 342.164062 149.71875 C 346.015625 151.515625 350.273438 151.277344 353.625 149.441406 Z M 353.625 149.441406 "/><g clip-rule="nonzero" clip-path="url(#5fd1a5eff8)"><path style=" stroke:none;fill-rule:nonzero;fill:#67bd71;fill-opacity:1;" d="M 354.128906 162.242188 C 350.273438 160.445312 346.019531 160.683594 342.667969 162.515625 C 343.410156 166.257812 345.960938 169.671875 349.816406 171.46875 C 353.671875 173.269531 357.925781 173.027344 361.277344 171.195312 C 360.53125 167.453125 357.984375 164.039062 354.128906 162.242188 Z M 354.128906 162.242188 "/></g><path style=" stroke:none;fill-rule:nonzero;fill:#67bd71;fill-opacity:1;" d="M 265.210938 167.035156 C 262.234375 170.800781 261.402344 175.539062 262.554688 179.691406 C 266.863281 179.839844 271.277344 177.921875 274.25 174.152344 C 277.226562 170.386719 278.058594 165.648438 276.90625 161.496094 C 272.597656 161.347656 268.183594 163.265625 265.210938 167.035156 Z M 265.210938 167.035156 "/><path style=" stroke:none;fill-rule:nonzero;fill:#67bd71;fill-opacity:1;" d="M 269.753906 148.96875 C 272.984375 144.875 273.894531 139.730469 272.640625 135.21875 C 267.957031 135.054688 263.160156 137.140625 259.929688 141.234375 C 256.699219 145.332031 255.792969 150.476562 257.042969 154.988281 C 261.726562 155.148438 266.523438 153.066406 269.753906 148.96875 Z M 269.753906 148.96875 "/><path style=" stroke:none;fill-rule:nonzero;fill:#67bd71;fill-opacity:1;" d="M 227.300781 157.875 C 226.386719 159.648438 226.316406 161.875 227.304688 163.863281 C 228.292969 165.851562 230.113281 167.140625 232.082031 167.480469 C 232.996094 165.707031 233.066406 163.480469 232.078125 161.492188 C 231.085938 159.503906 229.269531 158.214844 227.300781 157.875 Z M 227.300781 157.875 "/><path style=" stroke:none;fill-rule:nonzero;fill:#67bd71;fill-opacity:1;" d="M 162.921875 139.574219 C 166.171875 139.929688 169.203125 138.703125 171.1875 136.539062 C 169.71875 134.003906 167.019531 132.152344 163.773438 131.796875 C 160.523438 131.445312 157.492188 132.671875 155.507812 134.832031 C 156.976562 137.367188 159.675781 139.21875 162.921875 139.574219 Z M 162.921875 139.574219 "/><path style=" stroke:none;fill-rule:nonzero;fill:#67bd71;fill-opacity:1;" d="M 180.5 153.667969 C 179.902344 150.859375 177.953125 148.320312 175.039062 147.007812 C 172.121094 145.691406 168.925781 145.914062 166.421875 147.324219 C 167.019531 150.132812 168.96875 152.671875 171.886719 153.988281 C 174.800781 155.300781 178 155.078125 180.5 153.667969 Z M 180.5 153.667969 "/><path style=" stroke:none;fill-rule:nonzero;fill:#67bd71;fill-opacity:1;" d="M 175.964844 167.375 C 178.195312 168.378906 180.644531 168.210938 182.558594 167.128906 C 182.101562 164.980469 180.609375 163.035156 178.378906 162.027344 C 176.144531 161.019531 173.695312 161.191406 171.78125 162.273438 C 172.238281 164.421875 173.730469 166.367188 175.964844 167.375 Z M 175.964844 167.375 "/><path style=" stroke:none;fill-rule:nonzero;fill:#67bd71;fill-opacity:1;" d="M 116.554688 158.609375 C 118.941406 156.230469 120.203125 152.691406 119.636719 148.984375 C 119.074219 145.277344 116.816406 142.269531 113.828125 140.707031 C 111.441406 143.085938 110.175781 146.628906 110.742188 150.335938 C 111.308594 154.042969 113.566406 157.046875 116.554688 158.609375 Z M 116.554688 158.609375 "/><path style=" stroke:none;fill-rule:nonzero;fill:#67bd71;fill-opacity:1;" d="M 99.597656 159.660156 C 94.523438 158.175781 89.339844 159.273438 85.570312 162.15625 C 87.191406 166.613281 90.96875 170.324219 96.039062 171.808594 C 101.113281 173.289062 106.296875 172.195312 110.066406 169.3125 C 108.445312 164.851562 104.671875 161.140625 99.597656 159.660156 Z M 99.597656 159.660156 "/><path style=" stroke:none;fill-rule:nonzero;fill:#67bd71;fill-opacity:1;" d="M 81.808594 166.960938 C 79.554688 169.183594 78.355469 172.503906 78.871094 175.992188 C 79.386719 179.476562 81.496094 182.308594 84.296875 183.789062 C 86.550781 181.5625 87.75 178.242188 87.234375 174.757812 C 86.71875 171.273438 84.609375 168.4375 81.808594 166.960938 Z M 81.808594 166.960938 "/><path style=" stroke:none;fill-rule:nonzero;fill:#67bd71;fill-opacity:1;" d="M 69.390625 215.425781 C 66.003906 218.273438 63.957031 222.769531 64.285156 227.683594 C 64.613281 232.601562 67.238281 236.785156 70.976562 239.160156 C 74.367188 236.308594 76.410156 231.8125 76.082031 226.898438 C 75.753906 221.984375 73.128906 217.796875 69.390625 215.425781 Z M 69.390625 215.425781 "/><path style=" stroke:none;fill-rule:nonzero;fill:#67bd71;fill-opacity:1;" d="M 105.050781 274.015625 C 100.078125 276.28125 96.765625 280.640625 95.769531 285.441406 C 100.054688 287.832031 105.519531 288.1875 110.488281 285.921875 C 115.460938 283.652344 118.773438 279.296875 119.773438 274.496094 C 115.488281 272.105469 110.023438 271.75 105.050781 274.015625 Z M 105.050781 274.015625 "/><path style=" stroke:none;fill-rule:nonzero;fill:#67bd71;fill-opacity:1;" d="M 107.453125 263.445312 C 112.472656 261.285156 115.878906 257 116.976562 252.222656 C 112.742188 249.738281 107.285156 249.269531 102.269531 251.429688 C 97.25 253.59375 93.847656 257.878906 92.746094 262.65625 C 96.980469 265.136719 102.4375 265.609375 107.453125 263.445312 Z M 107.453125 263.445312 "/><path style=" stroke:none;fill-rule:nonzero;fill:#67bd71;fill-opacity:1;" d="M 126.6875 207.804688 C 122.871094 207.394531 119.304688 208.835938 116.976562 211.378906 C 118.703125 214.359375 121.878906 216.53125 125.695312 216.945312 C 129.511719 217.359375 133.078125 215.914062 135.40625 213.371094 C 133.679688 210.390625 130.503906 208.21875 126.6875 207.804688 Z M 126.6875 207.804688 "/><path style=" stroke:none;fill-rule:nonzero;fill:#67bd71;fill-opacity:1;" d="M 117.660156 228.261719 C 112.378906 227.691406 107.445312 229.6875 104.226562 233.203125 C 106.617188 237.328125 111.007812 240.335938 116.289062 240.90625 C 121.570312 241.476562 126.503906 239.480469 129.722656 235.964844 C 127.332031 231.839844 122.941406 228.832031 117.660156 228.261719 Z M 117.660156 228.261719 "/><path style=" stroke:none;fill-rule:nonzero;fill:#67bd71;fill-opacity:1;" d="M 138.113281 189.183594 C 134.160156 190.023438 131.0625 192.636719 129.566406 195.941406 C 132.277344 198.359375 136.164062 199.496094 140.121094 198.65625 C 144.078125 197.820312 147.171875 195.207031 148.667969 191.902344 C 145.960938 189.484375 142.070312 188.347656 138.113281 189.183594 Z M 138.113281 189.183594 "/><path style=" stroke:none;fill-rule:nonzero;fill:#67bd71;fill-opacity:1;" d="M 82.785156 193.269531 C 78.988281 196.460938 76.699219 201.496094 77.066406 207.003906 C 77.4375 212.507812 80.375 217.195312 84.5625 219.855469 C 88.359375 216.664062 90.648438 211.628906 90.28125 206.121094 C 89.910156 200.617188 86.972656 195.929688 82.785156 193.269531 Z M 82.785156 193.269531 "/><path style=" stroke:none;fill-rule:nonzero;fill:#67bd71;fill-opacity:1;" d="M 96.265625 193.011719 C 95.871094 197.132812 97.476562 200.957031 100.253906 203.433594 C 103.453125 201.53125 105.757812 198.078125 106.15625 193.957031 C 106.550781 189.835938 104.941406 186.007812 102.164062 183.535156 C 98.964844 185.4375 96.660156 188.890625 96.265625 193.011719 Z M 96.265625 193.011719 "/><path style=" stroke:none;fill-rule:nonzero;fill:#67bd71;fill-opacity:1;" d="M 115.269531 194.449219 C 118.167969 192.726562 120.261719 189.59375 120.617188 185.859375 C 120.976562 182.121094 119.519531 178.652344 117 176.410156 C 114.101562 178.136719 112.007812 181.265625 111.652344 185 C 111.292969 188.738281 112.75 192.207031 115.269531 194.449219 Z M 115.269531 194.449219 "/><path style=" stroke:none;fill-rule:nonzero;fill:#67bd71;fill-opacity:1;" d="M 139.023438 152.03125 C 138.660156 147.785156 136.320312 144.207031 133.046875 142.210938 C 130.160156 144.730469 128.464844 148.65625 128.828125 152.902344 C 129.191406 157.152344 131.53125 160.730469 134.804688 162.726562 C 137.691406 160.203125 139.386719 156.28125 139.023438 152.03125 Z M 139.023438 152.03125 "/><path style=" stroke:none;fill-rule:nonzero;fill:#67bd71;fill-opacity:1;" d="M 129.6875 174.394531 C 128.003906 177.183594 127.84375 180.445312 128.972656 183.144531 C 131.886719 182.878906 134.699219 181.214844 136.382812 178.425781 C 138.066406 175.636719 138.226562 172.375 137.101562 169.675781 C 134.183594 169.941406 131.371094 171.605469 129.6875 174.394531 Z M 129.6875 174.394531 "/><path style=" stroke:none;fill-rule:nonzero;fill:#67bd71;fill-opacity:1;" d="M 149.15625 152.46875 C 146.617188 154.683594 145.125 158.136719 145.441406 161.871094 C 145.761719 165.609375 147.820312 168.757812 150.699219 170.507812 C 153.238281 168.292969 154.730469 164.84375 154.410156 161.105469 C 154.089844 157.371094 152.035156 154.222656 149.15625 152.46875 Z M 149.15625 152.46875 "/><path style=" stroke:none;fill-rule:nonzero;fill:#67bd71;fill-opacity:1;" d="M 169.351562 182.25 C 170.90625 180.410156 171.582031 177.8125 170.949219 175.207031 C 170.320312 172.601562 168.523438 170.601562 166.300781 169.675781 C 164.746094 171.515625 164.070312 174.117188 164.703125 176.71875 C 165.332031 179.324219 167.128906 181.324219 169.351562 182.25 Z M 169.351562 182.25 "/><path style=" stroke:none;fill-rule:nonzero;fill:#67bd71;fill-opacity:1;" d="M 262.535156 108.171875 C 257.199219 108.589844 252.027344 111.574219 248.894531 116.636719 C 245.761719 121.699219 245.394531 127.652344 247.402344 132.609375 C 252.734375 132.1875 257.90625 129.203125 261.039062 124.140625 C 264.175781 119.078125 264.539062 113.125 262.535156 108.171875 Z M 262.535156 108.171875 "/><path style=" stroke:none;fill-rule:nonzero;fill:#67bd71;fill-opacity:1;" d="M 226.042969 100.34375 C 226.011719 106.296875 228.8125 111.566406 233.113281 114.746094 C 237.441406 111.605469 240.292969 106.367188 240.324219 100.414062 C 240.351562 94.460938 237.550781 89.195312 233.25 86.011719 C 228.921875 89.152344 226.070312 94.394531 226.042969 100.34375 Z M 226.042969 100.34375 "/><path style=" stroke:none;fill-rule:nonzero;fill:#67bd71;fill-opacity:1;" d="M 203.355469 93.578125 C 205.101562 98.242188 208.855469 101.53125 213.160156 102.746094 C 215.617188 99.007812 216.289062 94.066406 214.546875 89.402344 C 212.800781 84.738281 209.046875 81.449219 204.742188 80.234375 C 202.285156 83.972656 201.613281 88.917969 203.355469 93.578125 Z M 203.355469 93.578125 "/><path style=" stroke:none;fill-rule:nonzero;fill:#67bd71;fill-opacity:1;" d="M 165.054688 91.296875 C 168.246094 92.476562 171.625 92.003906 174.179688 90.316406 C 173.335938 87.378906 171.074219 84.828125 167.878906 83.648438 C 164.6875 82.472656 161.308594 82.945312 158.757812 84.628906 C 159.597656 87.566406 161.859375 90.121094 165.054688 91.296875 Z M 165.054688 91.296875 "/><path style=" stroke:none;fill-rule:nonzero;fill:#67bd71;fill-opacity:1;" d="M 198.917969 80 C 195.5 79.351562 191.746094 80.335938 188.910156 82.976562 C 186.074219 85.613281 184.824219 89.285156 185.230469 92.738281 C 188.648438 93.386719 192.40625 92.402344 195.238281 89.765625 C 198.074219 87.125 199.324219 83.453125 198.917969 80 Z M 198.917969 80 "/><path style=" stroke:none;fill-rule:nonzero;fill:#67bd71;fill-opacity:1;" d="M 175.105469 114.175781 C 178.214844 113.691406 181.117188 111.714844 182.734375 108.609375 C 184.347656 105.503906 184.300781 101.996094 182.90625 99.175781 C 179.796875 99.660156 176.894531 101.636719 175.277344 104.742188 C 173.664062 107.847656 173.710938 111.355469 175.105469 114.175781 Z M 175.105469 114.175781 "/><path style=" stroke:none;fill-rule:nonzero;fill:#67bd71;fill-opacity:1;" d="M 156.15625 114.175781 C 159.675781 113.992188 163.132812 112.117188 165.285156 108.835938 C 167.441406 105.558594 167.785156 101.644531 166.550781 98.34375 C 163.03125 98.527344 159.570312 100.402344 157.417969 103.679688 C 155.265625 106.960938 154.921875 110.875 156.15625 114.175781 Z M 156.15625 114.175781 "/><path style=" stroke:none;fill-rule:nonzero;fill:#67bd71;fill-opacity:1;" d="M 137.539062 116.085938 C 141.058594 115.902344 144.515625 114.027344 146.667969 110.75 C 148.824219 107.46875 149.167969 103.554688 147.933594 100.257812 C 144.410156 100.441406 140.953125 102.316406 138.800781 105.59375 C 136.648438 108.871094 136.304688 112.785156 137.539062 116.085938 Z M 137.539062 116.085938 "/><path style=" stroke:none;fill-rule:nonzero;fill:#67bd71;fill-opacity:1;" d="M 135.035156 115.960938 C 134.90625 113.492188 133.585938 111.0625 131.28125 109.554688 C 128.976562 108.042969 126.226562 107.804688 123.90625 108.667969 C 124.035156 111.136719 125.351562 113.5625 127.660156 115.074219 C 129.964844 116.582031 132.714844 116.824219 135.035156 115.960938 Z M 135.035156 115.960938 "/><path style=" stroke:none;fill-rule:nonzero;fill:#67bd71;fill-opacity:1;" d="M 212.425781 124.394531 C 217.046875 123.03125 220.480469 119.640625 221.945312 115.578125 C 218.503906 112.957031 213.78125 111.972656 209.160156 113.332031 C 204.539062 114.695312 201.109375 118.085938 199.640625 122.152344 C 203.082031 124.769531 207.808594 125.757812 212.425781 124.394531 Z M 212.425781 124.394531 "/><path style=" stroke:none;fill-rule:nonzero;fill:#67bd71;fill-opacity:1;" d="M 223.097656 136.617188 C 226.761719 136.371094 229.878906 134.421875 231.648438 131.640625 C 229.527344 129.117188 226.175781 127.597656 222.511719 127.839844 C 218.847656 128.085938 215.726562 130.035156 213.957031 132.816406 C 216.082031 135.335938 219.429688 136.859375 223.097656 136.617188 Z M 223.097656 136.617188 "/><path style=" stroke:none;fill-rule:nonzero;fill:#67bd71;fill-opacity:1;" d="M 242.667969 148.140625 C 241.386719 145.375 238.761719 143.207031 235.433594 142.535156 C 232.101562 141.867188 228.84375 142.851562 226.589844 144.90625 C 227.871094 147.671875 230.496094 149.839844 233.824219 150.511719 C 237.15625 151.179688 240.414062 150.191406 242.667969 148.140625 Z M 242.667969 148.140625 "/><path style=" stroke:none;fill-rule:nonzero;fill:#67bd71;fill-opacity:1;" d="M 188.226562 148.460938 C 189.363281 146.003906 189.332031 142.980469 187.875 140.339844 C 186.417969 137.699219 183.878906 136.058594 181.191406 135.710938 C 180.050781 138.167969 180.082031 141.1875 181.539062 143.828125 C 182.996094 146.46875 185.535156 148.109375 188.226562 148.460938 Z M 188.226562 148.460938 "/><path style=" stroke:none;fill-rule:nonzero;fill:#67bd71;fill-opacity:1;" d="M 201.429688 154.875 C 203.15625 152.785156 203.890625 149.855469 203.148438 146.933594 C 202.410156 144.011719 200.367188 141.78125 197.855469 140.761719 C 196.128906 142.851562 195.394531 145.78125 196.136719 148.703125 C 196.875 151.628906 198.917969 153.859375 201.429688 154.875 Z M 201.429688 154.875 "/><path style=" stroke:none;fill-rule:nonzero;fill:#67bd71;fill-opacity:1;" d="M 216.714844 157.050781 C 217.609375 155.125 217.585938 152.753906 216.441406 150.683594 C 215.300781 148.613281 213.308594 147.328125 211.199219 147.054688 C 210.304688 148.980469 210.332031 151.351562 211.472656 153.417969 C 212.617188 155.492188 214.609375 156.777344 216.714844 157.050781 Z M 216.714844 157.050781 "/><path style=" stroke:none;fill-rule:nonzero;fill:#67bd71;fill-opacity:1;" d="M 329.222656 175.5 C 326.015625 177.691406 323.835938 181.4375 323.691406 185.753906 C 323.546875 190.074219 325.46875 193.953125 328.523438 196.355469 C 331.734375 194.164062 333.910156 190.417969 334.054688 186.101562 C 334.199219 181.78125 332.277344 177.898438 329.222656 175.5 Z M 329.222656 175.5 "/><path style=" stroke:none;fill-rule:nonzero;fill:#67bd71;fill-opacity:1;" d="M 267.535156 267.734375 C 264.394531 269.222656 265.425781 266.433594 265.652344 265.859375 C 265.882812 265.304688 267.789062 263.808594 267.640625 262.902344 C 267.472656 262.015625 264.808594 265.019531 262.410156 264.777344 C 259.996094 264.535156 253.296875 257.644531 250.359375 254.671875 C 247.183594 251.453125 242.417969 246.625 240.242188 244.507812 C 238.082031 242.390625 237.382812 233.386719 236.824219 228.761719 C 236.265625 224.136719 233.320312 212.773438 227.527344 210.214844 C 221.738281 207.65625 217.371094 207.867188 217.371094 207.867188 C 217.371094 207.867188 214.371094 204.476562 214.808594 201.632812 C 215.246094 198.769531 220.164062 193.9375 220.761719 190.484375 C 220.761719 190.484375 223.214844 190.765625 223.550781 189.707031 C 223.890625 188.632812 224.535156 185.890625 223.410156 185.101562 C 222.40625 184.382812 221.566406 185.332031 221.40625 185.503906 C 221.636719 185.054688 223.949219 180.503906 222.683594 177.089844 C 220.910156 172.230469 219.242188 174.496094 215.941406 171.65625 C 214.488281 170.414062 215.582031 165.765625 210.816406 165.734375 C 206.054688 165.699219 207.082031 170.363281 205.613281 171.585938 C 202.269531 174.375 200.636719 172.089844 198.792969 176.921875 C 197.480469 180.316406 199.726562 184.902344 199.949219 185.355469 C 199.792969 185.179688 198.96875 184.21875 197.953125 184.925781 C 196.816406 185.699219 197.425781 188.445312 197.746094 189.527344 C 198.070312 190.585938 200.523438 190.34375 200.523438 190.34375 C 201.074219 193.804688 205.925781 198.703125 206.324219 201.570312 C 206.71875 204.421875 203.671875 207.773438 203.671875 207.773438 C 203.671875 207.773438 199.308594 207.496094 193.484375 209.976562 C 187.65625 212.453125 184.550781 223.773438 183.929688 228.390625 C 183.304688 233.007812 182.476562 242 180.285156 244.085938 C 178.082031 246.171875 173.25 250.933594 170.027344 254.105469 C 167.050781 257.039062 160.253906 263.835938 157.835938 264.042969 C 155.433594 264.25 152.8125 261.210938 152.632812 262.09375 C 152.46875 262.996094 154.355469 264.523438 154.574219 265.078125 C 154.796875 265.652344 155.785156 268.457031 152.667969 266.925781 C 149.53125 265.390625 145.679688 261.714844 146.894531 264.191406 C 148.113281 266.667969 151.679688 271.398438 154.472656 272.199219 C 157.265625 273 160.769531 269.777344 162.691406 268.003906 C 164.617188 266.226562 175.566406 257.445312 178.484375 255.226562 C 181.421875 253.003906 187.171875 248.894531 188.992188 244.875 C 190.8125 240.859375 192.914062 231.113281 195.269531 230.121094 C 195.023438 233.039062 198.929688 236.085938 198.6875 238.777344 C 198.441406 241.46875 199.453125 258.289062 191.125 260.472656 C 182.816406 262.65625 167.628906 268.488281 162.332031 272.253906 C 157.019531 276.023438 157.886719 281.082031 159.886719 283.789062 C 161.882812 286.480469 173.667969 287.464844 179.507812 285.59375 C 185.363281 283.742188 199.773438 277.121094 199.773438 277.121094 C 199.773438 277.121094 205.414062 278.5 210.023438 278.53125 C 214.628906 278.5625 220.289062 277.265625 220.289062 277.265625 C 220.289062 277.265625 234.605469 284.089844 240.4375 286.023438 C 246.246094 287.972656 258.042969 287.15625 260.078125 284.492188 C 262.117188 281.816406 263.054688 276.765625 257.796875 272.925781 C 252.554688 269.085938 237.449219 263.039062 229.171875 260.738281 C 220.875 258.441406 222.125 241.632812 221.917969 238.941406 C 221.710938 236.246094 225.660156 233.25 225.457031 230.332031 C 227.796875 231.355469 229.761719 241.132812 231.523438 245.171875 C 233.285156 249.214844 238.980469 253.40625 241.882812 255.667969 C 244.773438 257.929688 255.59375 266.863281 257.496094 268.667969 C 259.394531 270.46875 262.851562 273.742188 265.65625 272.980469 C 268.460938 272.21875 272.09375 267.535156 273.34375 265.078125 C 274.597656 262.625 270.695312 266.242188 267.535156 267.734375 Z M 267.535156 267.734375 "/><path style=" stroke:none;fill-rule:nonzero;fill:#009c54;fill-opacity:1;" d="M 263.003906 292.992188 C 264.898438 290.539062 265.019531 287.148438 263.292969 284.570312 C 263.019531 285.121094 262.683594 285.675781 262.285156 286.167969 C 259.617188 289.683594 250.957031 289.902344 248.386719 289.882812 C 244.945312 289.863281 241.824219 289.429688 239.550781 288.65625 C 234.390625 286.960938 223.160156 281.707031 219.957031 280.183594 C 218.058594 280.5625 213.769531 281.332031 209.992188 281.3125 C 206.234375 281.292969 201.945312 280.441406 200.066406 280.046875 C 196.84375 281.507812 185.539062 286.605469 180.355469 288.242188 C 178.082031 288.972656 174.941406 289.367188 171.5 289.328125 C 168.929688 289.308594 160.289062 288.992188 157.660156 285.4375 C 157.164062 284.789062 156.769531 284.054688 156.433594 283.324219 C 153.152344 285.933594 150.917969 290.277344 150.917969 290.277344 C 150.917969 290.277344 139.117188 293.59375 135.398438 302.777344 C 132.53125 309.90625 123.851562 306.015625 119.285156 315.8125 C 128.140625 321.125 138.265625 325.035156 148.625 326.734375 C 151.472656 327.1875 154.082031 327.425781 156.414062 327.425781 C 168.097656 327.425781 171.855469 321.894531 177.035156 314.234375 C 180.335938 309.335938 184.074219 303.804688 190.4375 299.738281 C 197.578125 295.15625 206.671875 292.84375 217.503906 292.84375 C 227.746094 292.84375 237.214844 294.839844 243.484375 296.164062 C 245.421875 296.578125 247.101562 296.933594 248.128906 297.070312 C 251.871094 297.582031 255.453125 297.960938 258.929688 298.257812 Z M 263.003906 292.992188 "/></g></svg>