<svg xmlns="http://www.w3.org/2000/svg" xmlns:xlink="http://www.w3.org/1999/xlink" width="1080" zoomAndPan="magnify" viewBox="0 0 810 1439.999935" height="1920" preserveAspectRatio="xMidYMid meet" version="1.2"><defs><clipPath id="e9425c7cc4"><path d="M 81.175781 480.046875 L 728.835938 480.046875 L 728.835938 818.84375 L 81.175781 818.84375 Z M 81.175781 480.046875 "/></clipPath></defs><g id="0d0372f46b"><g clip-rule="nonzero" clip-path="url(#e9425c7cc4)"><path style=" stroke:none;fill-rule:nonzero;fill:#ff9b05;fill-opacity:1;" d="M 703.46875 480.855469 C 693.394531 479.808594 683.226562 479.984375 673.117188 480.230469 C 646.625 480.871094 620.363281 483.121094 593.96875 485.402344 C 565.976562 487.820312 537.933594 489.894531 509.921875 492.066406 C 482.183594 494.214844 454.421875 495.96875 426.601562 496.460938 C 398.847656 496.953125 371.066406 496.390625 343.375 494.449219 C 316.109375 492.535156 289.066406 488.621094 261.863281 486.066406 C 222.394531 482.363281 182.710938 481.363281 143.082031 482.089844 C 128.246094 482.359375 113.085938 483.027344 98.625 486.597656 C 95.382812 487.398438 92.152344 488.308594 89.050781 489.570312 C 86.511719 490.601562 82.933594 491.84375 81.765625 494.558594 C 80.917969 496.527344 81.234375 498.882812 81.238281 500.972656 C 81.25 503.410156 81.3125 505.84375 81.429688 508.277344 C 81.65625 513.148438 82.078125 518.003906 82.605469 522.851562 C 87.558594 568.5 101.820312 613.117188 124.257812 653.171875 C 128.066406 659.96875 132.140625 666.679688 137.324219 672.488281 C 150.46875 687.210938 159 705.515625 172.128906 720.285156 C 185.964844 735.847656 202.714844 748.578125 219.535156 760.707031 C 245.769531 779.632812 275.175781 794.171875 306.171875 803.421875 C 323.875 808.699219 342.039062 812.273438 360.261719 815.3125 C 370.808594 817.066406 381.425781 818.652344 392.117188 818.828125 C 402.570312 818.996094 412.996094 817.816406 423.367188 816.46875 C 459.648438 811.757812 496.007812 804.917969 529.679688 790.589844 C 541.457031 785.578125 552.847656 779.671875 563.890625 773.191406 C 605.4375 748.8125 639.039062 716.132812 666.898438 676.933594 C 677.09375 662.597656 686.058594 647.398438 693.75 631.578125 C 701.59375 615.433594 708.832031 600.367188 714.039062 584.40625 C 716.15625 577.929688 717.957031 571.347656 719.527344 564.714844 C 724.289062 544.613281 727.070312 524 728.292969 503.382812 C 728.527344 499.433594 729.535156 494.695312 727.996094 490.933594 C 726.835938 488.089844 724.472656 486.0625 721.78125 484.703125 C 716.179688 481.875 709.558594 481.484375 703.46875 480.855469 "/></g><path style=" stroke:none;fill-rule:nonzero;fill:#fff4ae;fill-opacity:1;" d="M 687.410156 591.828125 C 671.625 636.421875 644.0625 676.5625 608.949219 708.15625 C 548.167969 762.839844 468.734375 791.273438 387.6875 788.085938 C 345.855469 786.441406 304.8125 776.195312 267.550781 757.007812 C 216.960938 730.957031 173.535156 690.550781 145.53125 640.84375 C 137.230469 626.117188 130.324219 610.613281 124.8125 594.632812 C 112.816406 559.839844 107.644531 522.121094 109.160156 484.496094 C 120.359375 482.730469 131.816406 482.296875 143.082031 482.085938 C 182.710938 481.367188 222.398438 482.359375 261.855469 486.066406 C 289.058594 488.621094 316.113281 492.539062 343.371094 494.445312 C 371.070312 496.390625 398.847656 496.953125 426.605469 496.457031 C 429.058594 496.414062 431.5 496.367188 433.949219 496.296875 C 459.3125 495.65625 484.628906 494.023438 509.921875 492.066406 C 510.183594 492.042969 510.449219 492.023438 510.710938 492.003906 C 538.460938 489.847656 566.230469 487.796875 593.960938 485.402344 C 612.824219 483.769531 631.625 482.164062 650.484375 481.144531 C 652.363281 481.046875 654.253906 480.945312 656.140625 480.851562 C 658.019531 480.765625 659.90625 480.679688 661.789062 480.605469 C 663.675781 480.53125 665.5625 480.457031 667.453125 480.398438 C 669.339844 480.332031 671.230469 480.273438 673.117188 480.230469 C 673.65625 480.214844 674.191406 480.207031 674.730469 480.195312 C 684.054688 479.976562 693.425781 479.875 702.722656 480.789062 C 704.949219 518.339844 699.964844 556.34375 687.410156 591.828125 "/><path style=" stroke:none;fill-rule:nonzero;fill:#ffe670;fill-opacity:1;" d="M 703.46875 480.855469 C 700.65625 480.5625 697.839844 480.375 695.015625 480.25 C 695.136719 484.46875 695.113281 488.695312 694.945312 492.910156 C 694.832031 495.78125 694.816406 498.632812 694.800781 501.390625 C 694.761719 508.941406 694.726562 516.070312 692.707031 522.277344 C 691.488281 526.015625 690.433594 532.792969 688.8125 543.550781 C 686.863281 556.496094 685.519531 573.230469 676.605469 583.667969 C 672.222656 588.792969 666.910156 592.96875 662.796875 598.296875 C 659.820312 602.15625 656.8125 606.054688 654.714844 610.449219 C 653.171875 613.675781 652.140625 617.121094 651.121094 620.542969 C 649.738281 625.164062 647.972656 629.804688 647.207031 634.546875 C 646.449219 639.238281 646.21875 644.019531 644.074219 648.367188 C 641.382812 653.816406 636.738281 658.304688 633.886719 663.742188 C 632.21875 667.035156 630.640625 670.148438 628.945312 672.390625 C 624.355469 678.457031 619.496094 683.726562 614.011719 688.847656 C 608.664062 693.84375 605.167969 700.667969 599.007812 704.820312 C 595.214844 707.382812 590.605469 708.746094 587.328125 711.9375 C 585.214844 713.996094 583.820312 716.664062 581.898438 718.898438 C 578.96875 722.304688 575.671875 723.125 571.878906 724.964844 C 568.84375 726.4375 566.351562 728.25 563.054688 729.402344 C 559.394531 730.679688 554.839844 732.269531 549.753906 735.566406 C 539.359375 742.308594 528.753906 742.109375 516.929688 742.410156 C 514.953125 742.457031 512.96875 742.574219 511.023438 742.949219 C 505.726562 743.980469 501.015625 746.890625 496.433594 749.75 C 490.601562 753.390625 487.082031 758.09375 481.878906 762.382812 C 472.765625 769.894531 460.496094 773.347656 448.921875 774.054688 C 441.648438 774.5 434.472656 775.238281 427.542969 775.953125 C 416.035156 777.144531 405.160156 778.269531 394.351562 778.058594 C 385.75 777.894531 378.078125 776.875 370.910156 774.945312 C 364.613281 773.25 358.242188 772.519531 352.078125 771.816406 C 348.484375 771.40625 345.09375 771.019531 341.894531 770.460938 C 333.4375 768.988281 325.636719 765.484375 318.226562 761.25 C 311.410156 757.351562 305.347656 752.808594 298.667969 748.621094 C 296.160156 747.050781 293.625 745.480469 290.855469 744.449219 C 286.511719 742.832031 281.6875 743.140625 277.15625 742.042969 C 272.292969 740.859375 267.332031 740.128906 262.492188 738.84375 C 251.910156 736.03125 242.417969 732.308594 233.539062 725.695312 C 228.453125 721.898438 223.144531 717.890625 218.632812 713.347656 C 213.59375 708.28125 209.164062 702.632812 203.910156 697.777344 C 194.007812 688.632812 181.175781 682.320312 173.886719 670.988281 C 171.828125 667.785156 170.285156 664.285156 168.753906 660.800781 C 167.585938 658.140625 166.414062 655.480469 165.496094 652.722656 C 163.707031 647.363281 162.875 641.667969 160.472656 636.554688 C 159.035156 633.496094 157.046875 630.679688 156.035156 627.460938 C 154.207031 621.644531 157.675781 614.714844 157.246094 608.652344 C 156.847656 603.074219 154.859375 597.878906 152.117188 593.054688 C 146.554688 583.273438 138.175781 575.441406 132.09375 566.007812 C 125.296875 555.46875 125.28125 538.257812 123.800781 525.917969 C 122.539062 515.410156 121.722656 504.109375 121.308594 491.367188 C 121.238281 489.328125 121.136719 487.242188 121.03125 485.039062 C 121.003906 484.390625 120.980469 483.734375 120.953125 483.085938 C 115.144531 483.585938 109.355469 484.332031 103.660156 485.480469 C 103.628906 487.566406 103.628906 489.652344 103.675781 491.738281 C 103.71875 493.886719 103.800781 496.035156 103.929688 498.171875 C 104.582031 509.226562 105.339844 520.386719 106.976562 531.34375 C 108.351562 540.570312 111.222656 550.324219 110.917969 559.585938 C 110.609375 568.972656 114.789062 578.992188 117.679688 587.792969 C 120.210938 595.5 122.695312 604.636719 127.527344 611.242188 C 132.242188 617.683594 134.40625 625.496094 137.609375 632.816406 C 140.257812 638.867188 142.953125 644.992188 146.457031 650.535156 C 150.03125 656.191406 154.359375 661.054688 158.339844 666.410156 C 168.585938 680.179688 173.492188 696.742188 187.054688 707.960938 C 192.847656 712.757812 199.304688 716.683594 205.292969 721.230469 C 216.285156 729.582031 225.601562 739.980469 236.679688 748.214844 C 244.972656 754.382812 254.140625 759.253906 263.273438 764.101562 C 269.714844 767.523438 276.171875 770.945312 282.921875 773.710938 C 289.09375 776.238281 295.484375 778.203125 301.902344 780.015625 C 318.40625 784.671875 335.179688 788.351562 352.113281 791.027344 C 357.222656 791.835938 362.25 793.121094 367.402344 793.667969 C 371.84375 794.140625 376.164062 793.679688 380.566406 794.4375 C 391.988281 796.410156 404.554688 795.191406 416.144531 795.316406 C 418.480469 795.34375 420.824219 795.371094 423.152344 795.191406 C 429.347656 794.710938 435.378906 792.789062 441.585938 792.550781 C 458.410156 791.90625 475.441406 786.253906 491.527344 781.121094 C 513.671875 774.054688 534.242188 763.949219 554.945312 753.609375 C 562.125 750.019531 568.992188 745.785156 575.417969 740.972656 C 581.144531 736.6875 586.515625 731.949219 591.882812 727.21875 C 595.742188 723.816406 599.601562 720.417969 603.457031 717.011719 C 612.21875 709.292969 621.003906 701.542969 628.753906 692.800781 C 636.109375 684.515625 640.796875 675.082031 648.078125 666.867188 C 656.195312 657.714844 663.5 647.835938 669.914062 637.410156 C 687.15625 609.382812 694.332031 580.636719 699.839844 548.753906 C 700.625 544.226562 702.027344 539.832031 702.921875 535.328125 C 704.488281 527.40625 704.457031 519.269531 704.417969 511.191406 C 704.371094 501.109375 704.320312 491.027344 704.273438 480.945312 C 704.007812 480.914062 703.730469 480.882812 703.46875 480.855469 "/><path style=" stroke:none;fill-rule:nonzero;fill:#ffe670;fill-opacity:1;" d="M 427.828125 499.753906 C 427.207031 498.332031 426.441406 496.464844 426.601562 496.460938 C 413.480469 496.695312 400.347656 496.679688 387.226562 496.40625 C 387.140625 497.132812 386.960938 497.839844 386.617188 498.507812 C 385.757812 500.160156 384.09375 501.226562 382.921875 502.667969 C 382.558594 503.109375 382.253906 503.632812 382.042969 504.191406 C 381.570312 505.441406 381.582031 506.859375 382.53125 507.914062 C 383.5 508.992188 385.089844 509.285156 386.246094 510.175781 C 388 511.523438 388.371094 513.839844 388.980469 515.867188 C 389.589844 517.898438 391.144531 520.214844 393.265625 520.152344 C 394.5 520.117188 395.433594 519.265625 396.382812 518.585938 C 400.976562 515.3125 408.3125 515.90625 413.03125 519.929688 C 413.457031 520.296875 413.9375 520.710938 414.476562 520.6875 C 414.914062 520.667969 415.246094 520.355469 415.503906 520.039062 C 417.316406 517.839844 417.023438 515.097656 418.476562 512.757812 C 419.957031 510.367188 422.242188 508.472656 424.894531 507.523438 C 425.859375 507.175781 426.878906 506.949219 427.777344 506.453125 C 428.675781 505.953125 429.464844 505.105469 429.550781 504.082031 C 429.632812 503.082031 429.042969 502.167969 428.539062 501.296875 C 428.453125 501.152344 428.160156 500.519531 427.828125 499.753906 "/><path style=" stroke:none;fill-rule:nonzero;fill:#ffb300;fill-opacity:1;" d="M 420.5 498.980469 C 420.390625 498.210938 420.257812 497.386719 420.132812 496.554688 C 420.132812 496.554688 411.203125 496.617188 406.890625 496.617188 C 402.503906 496.613281 398.113281 496.585938 393.722656 496.523438 C 393.660156 496.671875 393.605469 496.816406 393.539062 496.964844 C 392.992188 498.199219 392.488281 499.347656 392.339844 500.714844 C 392.332031 500.789062 392.320312 500.863281 392.316406 500.933594 C 392.125 503.382812 393.441406 503.367188 395.230469 504.625 C 396.375 505.429688 396.683594 506.894531 397.132812 508.167969 C 397.582031 509.4375 398.636719 510.867188 399.96875 510.765625 C 400.75 510.707031 401.308594 510.132812 401.882812 509.675781 C 404.511719 507.585938 408.4375 507.710938 411.277344 509.28125 C 415.714844 511.738281 414.25 506.148438 416.730469 504.023438 C 417.609375 503.265625 418.753906 502.84375 419.566406 502.019531 C 420.546875 501.019531 420.648438 500.019531 420.5 498.980469 "/><path style=" stroke:none;fill-rule:nonzero;fill:#ffc100;fill-opacity:1;" d="M 472.328125 732.679688 C 459.890625 752.484375 427.996094 753.539062 404.585938 753.089844 C 383.894531 752.691406 362.75 750.445312 343.121094 743.730469 C 296.351562 727.734375 349.90625 641.949219 360.4375 618.582031 C 369.660156 598.121094 378.886719 577.664062 388.109375 557.203125 C 390.101562 552.777344 394.410156 536.203125 398.109375 533.839844 C 408.296875 527.332031 411.375 545.207031 413.773438 551.21875 C 417.226562 559.871094 420.921875 568.441406 424.492188 577.042969 C 433.054688 597.667969 441.613281 618.289062 450.175781 638.910156 C 460.300781 663.296875 479.910156 689.304688 477.402344 716.859375 C 476.832031 723.144531 475.042969 728.359375 472.328125 732.679688 "/><path style=" stroke:none;fill-rule:nonzero;fill:#ffc100;fill-opacity:1;" d="M 593.96875 485.402344 C 565.976562 487.820312 537.933594 489.894531 509.921875 492.066406 C 489.398438 493.65625 468.863281 495.027344 448.300781 495.832031 C 451.21875 501.460938 463.902344 505.488281 468.582031 507.527344 C 513.125 526.9375 557.65625 546.378906 602.210938 565.761719 C 611.992188 570.015625 622.21875 573.457031 631.519531 573.28125 C 641.59375 573.089844 650.585938 568.652344 656.742188 556.410156 C 665.671875 538.667969 667.078125 516.890625 668.339844 497.378906 C 668.660156 492.457031 668.890625 486.613281 668.851562 480.363281 C 643.800781 481.128906 618.945312 483.242188 593.96875 485.402344 "/><path style=" stroke:none;fill-rule:nonzero;fill:#ffc100;fill-opacity:1;" d="M 615.132812 600.328125 C 623.429688 609.777344 627.652344 620.785156 624.800781 633.71875 C 620.414062 653.585938 605.570312 672.28125 590.113281 684.703125 C 568.578125 702.011719 536.457031 725.867188 508.285156 708.917969 C 493.367188 699.945312 487.402344 669.589844 480.976562 653.671875 C 471.960938 631.328125 462.945312 608.980469 453.929688 586.636719 C 446.800781 568.976562 421.375 523.671875 429.476562 517.535156 C 437.023438 511.820312 461.371094 526.09375 473.605469 531.429688 C 488.445312 537.902344 503.285156 544.375 518.128906 550.847656 C 540.765625 560.722656 592.757812 574.851562 615.132812 600.328125 "/><path style=" stroke:none;fill-rule:nonzero;fill:#ffc100;fill-opacity:1;" d="M 343.375 494.449219 C 316.109375 492.535156 289.066406 488.621094 261.863281 486.066406 C 222.394531 482.363281 182.710938 481.363281 143.082031 482.089844 C 142.960938 482.089844 142.839844 482.09375 142.722656 482.097656 C 142.566406 483.992188 142.425781 485.8125 142.289062 487.511719 C 139.210938 525.238281 147.390625 585.539062 199.710938 565.570312 C 219.582031 557.988281 239.238281 549.785156 258.992188 541.902344 C 280.628906 533.261719 302.261719 524.621094 323.898438 515.984375 C 330.453125 513.367188 362.054688 504.398438 371.070312 495.925781 C 361.832031 495.574219 352.597656 495.09375 343.375 494.449219 "/><path style=" stroke:none;fill-rule:nonzero;fill:#ffc100;fill-opacity:1;" d="M 281.269531 707.972656 C 259.601562 712.160156 233.300781 695.515625 215.046875 677.738281 C 192.761719 656.027344 170.84375 622.558594 195.875 594.132812 C 213.460938 574.167969 243.425781 569.183594 267.035156 559.765625 C 288.035156 551.390625 309.035156 543.015625 330.03125 534.636719 C 338.589844 531.226562 367.578125 513.007812 376.132812 520.441406 C 385.890625 528.914062 364.582031 556.609375 361.007812 564.738281 C 351.839844 585.578125 342.675781 606.421875 333.511719 627.261719 C 325.441406 645.613281 317.367188 663.964844 309.296875 682.316406 C 302.328125 698.160156 292.410156 705.820312 281.269531 707.972656 "/><path style=" stroke:none;fill-rule:nonzero;fill:#ffb300;fill-opacity:1;" d="M 443.0625 716.746094 C 437.328125 722.691406 428.359375 726.542969 417.816406 727.59375 C 404.707031 728.898438 391.296875 725.574219 381.015625 718.472656 C 377.585938 716.101562 374.566406 713.347656 372.035156 710.28125 C 368.40625 705.886719 365.796875 700.394531 364.492188 694.386719 C 361.566406 680.933594 365.972656 668.507812 370.640625 655.351562 C 371.101562 654.050781 371.5625 652.75 372.023438 651.4375 C 374.539062 644.238281 377.890625 636.664062 382.273438 628.285156 C 383.375 626.179688 384.410156 624.011719 385.410156 621.910156 C 389.207031 613.957031 392.792969 606.441406 399.59375 602.722656 C 401.976562 601.417969 405.578125 599.972656 409.207031 600.488281 C 410.714844 600.703125 412.140625 601.285156 413.566406 602.265625 C 419.585938 606.425781 423.886719 616.664062 427.027344 624.132812 C 427.761719 625.890625 428.457031 627.546875 429.140625 629.058594 C 434.5625 641.0625 439.332031 653.484375 443.308594 665.984375 C 449.285156 684.765625 453.933594 705.484375 443.0625 716.746094 Z M 483.253906 717.378906 C 485.226562 695.726562 475.066406 675.894531 465.234375 656.71875 C 461.667969 649.757812 458.300781 643.183594 455.613281 636.710938 L 442.769531 605.777344 L 429.929688 574.84375 C 428.738281 571.96875 427.527344 569.09375 426.320312 566.222656 C 423.960938 560.609375 421.523438 554.808594 419.242188 549.089844 C 418.914062 548.269531 418.503906 546.960938 418.070312 545.570312 C 416.21875 539.652344 413.914062 532.289062 408.691406 528.679688 C 406.785156 527.363281 404.6875 526.671875 402.453125 526.632812 C 399.953125 526.582031 397.414062 527.371094 394.914062 528.96875 C 390.867188 531.554688 388.40625 538.234375 384.835938 548.929688 C 384 551.433594 383.210938 553.792969 382.742188 554.839844 L 355.070312 616.21875 C 353.621094 619.429688 351.222656 624.074219 348.4375 629.457031 C 340.617188 644.585938 328.796875 667.457031 322.625 688.746094 C 314.707031 716.050781 317.929688 734.894531 332.195312 744.753906 C 334.832031 746.574219 337.859375 748.078125 341.199219 749.21875 C 359.070312 755.332031 379.179688 758.40625 404.46875 758.894531 C 416.558594 759.125 430.6875 758.980469 443.828125 756.152344 C 459.691406 752.730469 470.964844 745.867188 477.320312 735.738281 C 480.632812 730.472656 482.628906 724.296875 483.253906 717.378906 "/><path style=" stroke:none;fill-rule:nonzero;fill:#ffb300;fill-opacity:1;" d="M 674.730469 480.195312 C 674.769531 486.75 674.527344 492.804688 674.203125 497.757812 L 674.203125 497.808594 C 672.910156 517.707031 671.453125 540.257812 661.992188 559.058594 C 655.410156 572.140625 645.195312 578.902344 631.636719 579.164062 C 631.09375 579.171875 630.539062 579.175781 629.992188 579.15625 C 621.625 579 612.050781 576.453125 599.871094 571.152344 C 570.136719 558.21875 539.910156 545.042969 510.6875 532.296875 C 495.867188 525.839844 481.050781 519.371094 466.234375 512.921875 C 465.515625 512.609375 464.503906 512.207031 463.324219 511.746094 C 459.648438 510.304688 456.164062 508.484375 452.550781 506.941406 C 448.574219 505.253906 444.484375 504.140625 440.617188 502.113281 C 438.820312 501.171875 437.042969 500.117188 435.628906 498.660156 C 434.960938 497.964844 434.375 497.164062 433.949219 496.296875 C 459.3125 495.65625 484.628906 494.023438 509.921875 492.066406 C 510.183594 492.042969 510.449219 492.023438 510.710938 492.003906 C 510.710938 492.007812 510.710938 492.007812 510.710938 492.007812 C 510.847656 492.488281 511.046875 492.96875 511.320312 493.453125 C 512.828125 496.015625 516.988281 497.457031 519.410156 498.84375 L 530.828125 505.359375 C 535.753906 508.175781 540.683594 510.988281 545.605469 513.800781 C 550.40625 516.542969 555.21875 519.292969 560.335938 521.359375 C 567.972656 524.449219 576.136719 525.976562 583.894531 528.726562 C 588.847656 530.484375 593.65625 532.746094 598.820312 533.699219 C 602.21875 534.328125 605.6875 534.367188 609.128906 534.417969 C 609.867188 533.363281 614.0625 534.097656 615.113281 534.136719 C 617.792969 534.257812 620.207031 533.949219 622.855469 533.75 C 628.753906 533.292969 634.3125 530.886719 638.214844 526.324219 C 642.132812 521.738281 645.152344 514.8125 645.882812 508.863281 C 646.578125 503.253906 647.015625 496.988281 648.386719 491.511719 C 649.304688 487.878906 650.257812 484.628906 650.484375 481.144531 C 652.363281 481.046875 654.253906 480.945312 656.140625 480.851562 C 658.019531 480.765625 659.90625 480.679688 661.789062 480.605469 C 663.675781 480.53125 665.5625 480.457031 667.453125 480.398438 C 669.339844 480.332031 671.230469 480.273438 673.117188 480.230469 C 673.65625 480.214844 674.191406 480.207031 674.730469 480.195312 "/><path style=" stroke:none;fill-rule:nonzero;fill:#ffb300;fill-opacity:1;" d="M 587.570312 648.191406 C 575.984375 661.777344 563.605469 670.039062 554.460938 670.308594 C 543.523438 670.628906 531 666.8125 521.773438 660.355469 C 520.605469 659.539062 519.492188 658.679688 518.460938 657.796875 C 508.40625 649.214844 501.601562 637.363281 496.265625 626.898438 C 491.414062 617.378906 487.050781 607.46875 483.296875 597.445312 C 482.789062 596.089844 482.253906 594.707031 481.714844 593.300781 C 479.816406 588.390625 477.855469 583.308594 476.617188 578.324219 C 475.742188 574.804688 475.328125 571.742188 475.347656 568.953125 C 475.371094 565.378906 476.539062 562.234375 478.46875 560.535156 C 480.109375 559.09375 482.683594 558.28125 485.726562 558.242188 C 493.121094 558.152344 501.078125 560.742188 508.769531 563.246094 C 510.226562 563.71875 511.664062 564.1875 513.089844 564.636719 C 523.535156 567.914062 532.613281 571.164062 540.839844 574.558594 C 555.085938 580.445312 567.207031 586.9375 577.898438 594.421875 C 578.480469 594.828125 579.058594 595.242188 579.636719 595.65625 C 592.351562 604.828125 598.953125 613.625 600.40625 623.34375 C 601.652344 631.683594 592.492188 642.421875 587.570312 648.191406 Z M 630.539062 634.988281 C 633.585938 621.1875 629.886719 608.21875 619.546875 596.449219 C 615.507812 591.847656 610.34375 587.335938 604.207031 583.039062 C 585.140625 569.691406 559.867188 560.351562 539.5625 552.84375 C 532.007812 550.054688 525.492188 547.648438 520.476562 545.457031 L 483.28125 529.234375 L 475.953125 526.039062 C 473.5625 524.996094 470.5625 523.535156 467.390625 521.992188 C 456.339844 516.605469 443.8125 510.507812 434.75 510.332031 C 431.191406 510.265625 428.222656 511.109375 425.929688 512.847656 C 421.019531 516.566406 421.691406 523.414062 422.878906 528.738281 C 424.359375 535.335938 426.140625 542.292969 428.5625 548.578125 C 434.796875 564.789062 441.257812 580.90625 447.71875 597.027344 C 449.679688 601.917969 451.640625 606.8125 453.601562 611.699219 C 456.996094 620.164062 460.394531 628.640625 464.460938 636.800781 C 467.113281 642.125 470.046875 647.300781 472.699219 652.621094 C 477.902344 663.054688 482.015625 673.972656 486.59375 684.679688 C 490.753906 694.398438 494.839844 706.746094 503.71875 712.960938 C 504.222656 713.3125 504.742188 713.648438 505.253906 713.957031 C 512.3125 718.203125 520.046875 720.4375 528.234375 720.59375 C 551.0625 721.039062 573.234375 705.808594 593.792969 689.289062 C 612.636719 674.144531 626.375 653.84375 630.539062 634.988281 "/><path style=" stroke:none;fill-rule:nonzero;fill:#ffb300;fill-opacity:1;" d="M 343.375 494.449219 C 328.089844 493.375 312.875 491.675781 297.660156 489.9375 C 293.785156 493.136719 288.140625 496.101562 283.109375 498.746094 C 281.597656 499.539062 280.171875 500.285156 278.796875 501.035156 C 273.890625 503.71875 268.816406 505.953125 263.445312 508.320312 C 261.746094 509.070312 260.042969 509.820312 258.347656 510.585938 C 238.324219 519.613281 218.558594 524.15625 199.597656 524.082031 C 194.832031 524.066406 188.695312 523.765625 183.492188 521.578125 C 182.308594 521.082031 181.179688 520.457031 180.132812 519.722656 C 170.253906 512.808594 168.34375 496.601562 167.980469 489.953125 C 167.835938 487.257812 167.796875 484.566406 167.84375 481.875 C 159.585938 481.867188 151.332031 481.9375 143.082031 482.089844 C 140.996094 482.125 138.90625 482.175781 136.8125 482.234375 C 136.765625 482.847656 136.714844 483.453125 136.671875 484.042969 C 136.585938 485.074219 136.507812 486.070312 136.429688 487.03125 C 135.691406 496.105469 135.007812 513.96875 138.742188 531.710938 C 142.460938 549.371094 149.46875 561.910156 159.570312 568.980469 C 165.441406 573.09375 172.269531 575.25 179.859375 575.394531 C 186.554688 575.523438 193.9375 574.070312 201.804688 571.066406 C 215.09375 565.996094 228.480469 560.570312 241.429688 555.324219 C 247.898438 552.703125 254.589844 549.992188 261.171875 547.363281 L 295.597656 533.617188 L 326.078125 521.445312 C 327.359375 520.933594 330.078125 520.027344 333.222656 518.984375 C 358.949219 510.425781 374.222656 503.996094 378.273438 496.175781 C 366.628906 495.820312 354.992188 495.261719 343.375 494.449219 "/><path style=" stroke:none;fill-rule:nonzero;fill:#ffb300;fill-opacity:1;" d="M 292.40625 652.523438 C 289.597656 656.640625 286.617188 660.640625 283.015625 663.804688 C 276.769531 669.296875 267.765625 670.976562 259.582031 669.496094 C 247.84375 667.375 236.496094 659.234375 229.601562 649.617188 C 226.730469 645.605469 224.707031 641.351562 222.949219 636.765625 C 221.605469 633.253906 219.089844 629.824219 218.226562 626.207031 C 217.785156 624.351562 217.984375 622.410156 218.269531 620.527344 C 221.171875 601.375 236.558594 590.589844 253.808594 584.210938 C 256.613281 583.171875 259.433594 582.339844 262.421875 581.457031 C 265.820312 580.453125 269.332031 579.417969 272.890625 578.039062 L 293.023438 570.210938 C 295.875 569.105469 298.796875 567.828125 301.625 566.589844 C 311.351562 562.335938 321.402344 557.9375 330.757812 559.34375 C 332.171875 559.558594 333.46875 560.035156 334.414062 560.695312 C 334.878906 561.023438 335.253906 561.390625 335.523438 561.785156 C 337.121094 564.117188 336.167969 568.511719 334.894531 572.90625 C 334.691406 573.609375 334.472656 574.328125 334.25 575.039062 C 330.957031 585.378906 325.816406 594.855469 320.378906 604.886719 C 318.417969 608.5 316.386719 612.238281 314.457031 616.007812 L 313.878906 617.144531 C 309.414062 625.890625 304.953125 634.738281 299.125 642.675781 C 296.84375 645.78125 294.683594 649.191406 292.40625 652.523438 Z M 338.886719 629.628906 L 356.515625 589.550781 L 366.386719 567.109375 C 367.0625 565.578125 368.863281 562.609375 370.769531 559.460938 C 374.449219 553.402344 379.027344 545.863281 381.863281 538.667969 C 385.960938 528.269531 385.332031 520.640625 379.988281 515.996094 C 379.679688 515.726562 379.347656 515.472656 379.011719 515.238281 C 376.789062 513.679688 374.007812 512.859375 370.753906 512.796875 C 360.605469 512.601562 346.183594 519.980469 335.652344 525.371094 C 332.355469 527.0625 329.503906 528.519531 327.859375 529.175781 L 302.433594 539.316406 L 264.859375 554.304688 C 259.007812 556.640625 252.789062 558.679688 246.207031 560.839844 C 226.253906 567.394531 205.621094 574.167969 191.464844 590.246094 C 178.886719 604.53125 175.667969 621.878906 182.175781 640.40625 C 188.132812 657.378906 201.109375 672.367188 210.949219 681.953125 C 216.945312 687.792969 223.300781 693.078125 229.839844 697.652344 C 240.566406 705.160156 256.824219 714.175781 273.34375 714.496094 C 276.453125 714.554688 279.496094 714.304688 282.386719 713.75 C 296.535156 711.011719 307.398438 701.234375 314.675781 684.683594 C 322.75 666.335938 330.820312 647.984375 338.886719 629.628906 "/><path style=" stroke:none;fill-rule:nonzero;fill:#ffcd33;fill-opacity:1;" d="M 176.304688 481.914062 C 177.359375 498.351562 188.59375 515.378906 206.644531 506.769531 C 213.410156 503.539062 219.613281 499.136719 224.875 493.800781 C 227.734375 490.90625 230.390625 487.53125 231.703125 483.75 C 213.261719 482.636719 194.785156 482.058594 176.304688 481.914062 "/><path style=" stroke:none;fill-rule:nonzero;fill:#ffcd33;fill-opacity:1;" d="M 239.03125 610.9375 C 242.367188 608.382812 246.5 606.757812 250.679688 606.136719 C 259.234375 604.867188 281.101562 606.824219 283.085938 617.917969 C 283.71875 621.464844 282.566406 625.097656 282.042969 628.578125 C 281.414062 632.757812 280.609375 636.96875 278.980469 640.890625 C 274.917969 650.65625 264.640625 657.867188 254.167969 653.242188 C 245.703125 649.503906 241.742188 642.386719 236.722656 635.273438 C 232.734375 629.621094 230.234375 623.804688 233.703125 617.167969 C 234.988281 614.703125 236.839844 612.617188 239.03125 610.9375 "/><path style=" stroke:none;fill-rule:nonzero;fill:#ffcd33;fill-opacity:1;" d="M 384.507812 701.332031 C 383.914062 698.683594 383.917969 695.949219 384.632812 693.65625 C 385.710938 690.199219 387.769531 687.132812 389.804688 684.125 C 391.960938 680.9375 394.140625 677.71875 396.984375 675.113281 C 399.828125 672.507812 403.441406 670.53125 407.316406 670.351562 C 412.652344 670.113281 417.5625 673.253906 421.382812 676.941406 C 426.859375 682.222656 436.296875 694.507812 433.824219 702.570312 C 430.964844 711.890625 419.425781 716.035156 410.507812 716.136719 C 403.957031 716.214844 395.117188 714.367188 389.773438 710.269531 C 387.136719 708.242188 385.289062 704.855469 384.507812 701.332031 "/><path style=" stroke:none;fill-rule:nonzero;fill:#ffcd33;fill-opacity:1;" d="M 544.015625 650.726562 C 538.125 645.460938 536.066406 636.011719 535.132812 628.515625 C 534.355469 622.28125 535.511719 615.523438 539.632812 610.785156 C 546.546875 602.835938 557.019531 604.171875 565.761719 608.019531 C 572.046875 610.785156 579.707031 614.277344 583.140625 620.613281 C 587.761719 629.128906 579.253906 639.90625 573.96875 646.132812 C 570.476562 650.242188 565.945312 653.667969 560.695312 654.878906 C 555.398438 656.105469 549.589844 654.910156 545.203125 651.691406 C 544.792969 651.386719 544.398438 651.066406 544.015625 650.726562 "/><path style=" stroke:none;fill-rule:nonzero;fill:#ffcd33;fill-opacity:1;" d="M 593.96875 485.402344 C 591.09375 485.652344 588.21875 485.882812 585.34375 486.121094 C 584.8125 487.738281 584.578125 489.421875 584.777344 491.179688 C 585.433594 496.949219 590.453125 501.089844 595.085938 504.585938 C 599.363281 507.8125 603.734375 511.09375 608.796875 512.835938 C 611.957031 513.925781 614.875 514.183594 617.523438 513.785156 C 627.71875 512.253906 633.949219 501.03125 634.601562 490.109375 C 634.753906 487.527344 634.554688 484.824219 634.03125 482.164062 C 620.679688 483.097656 607.339844 484.246094 593.96875 485.402344 "/></g></svg>