<svg xmlns="http://www.w3.org/2000/svg" xmlns:xlink="http://www.w3.org/1999/xlink" width="1080" zoomAndPan="magnify" viewBox="0 0 810 1439.999935" height="1920" preserveAspectRatio="xMidYMid meet" version="1.2"><defs><clipPath id="8b29ef5884"><path d="M 35.644531 443 L 728.644531 443 L 728.644531 807.953125 L 35.644531 807.953125 Z M 35.644531 443 "/></clipPath></defs><g id="6a4e841cde"><path style=" stroke:none;fill-rule:nonzero;fill:#ffffc9;fill-opacity:1;" d="M 694.6875 553.460938 C 679.390625 602.84375 651.039062 647.867188 614.097656 683.882812 C 550.140625 746.226562 464.699219 780.710938 376.128906 780.738281 C 330.421875 780.753906 285.191406 771.332031 243.703125 751.988281 C 187.382812 725.730469 138.265625 683.472656 105.574219 630.40625 C 95.882812 614.679688 87.664062 598.054688 80.96875 580.832031 C 65.234375 540.410156 58.019531 495.941406 59.285156 451.550781 C 60.976562 451.144531 62.675781 450.804688 64.378906 450.519531 C 67.058594 450.078125 69.753906 449.71875 72.457031 449.410156 C 82.933594 448.90625 93.480469 449.246094 103.902344 449.773438 C 118.332031 450.503906 132.710938 451.410156 147.148438 451.835938 C 153.300781 452.445312 159.472656 452.976562 165.675781 453.332031 C 194.398438 454.960938 223.179688 455.078125 251.917969 456.292969 C 266.226562 456.898438 280.558594 458.539062 294.886719 458.253906 C 296.277344 458.226562 297.660156 458.1875 299.050781 458.136719 C 306.847656 458.792969 314.660156 459.320312 322.515625 459.527344 C 335.722656 459.886719 348.929688 459.890625 362.148438 459.976562 C 375.578125 460.054688 389.011719 460.226562 402.429688 460.945312 C 403.769531 461.019531 405.121094 461.089844 406.464844 461.175781 C 454.257812 464.136719 502.15625 460.058594 549.597656 453.941406 C 566.242188 452.59375 582.839844 450.886719 599.378906 448.710938 C 625.765625 445.242188 652.324219 446.484375 678.800781 444.671875 C 687.925781 444.039062 697.851562 442.824219 707.519531 443.023438 C 709.851562 480.21875 705.722656 517.832031 694.6875 553.460938 "/><g clip-rule="nonzero" clip-path="url(#8b29ef5884)"><path style=" stroke:none;fill-rule:nonzero;fill:#ffd900;fill-opacity:1;" d="M 728.46875 453.253906 C 728.242188 450.578125 726.3125 448.988281 724.140625 447.65625 C 720.039062 445.144531 713.726562 443.460938 708.8125 443.089844 C 708.8125 443.089844 706.953125 443.15625 706.003906 443.355469 C 707.074219 460.203125 706.8125 476.796875 705.199219 493.746094 C 704.15625 504.703125 699.152344 515.359375 695.675781 525.839844 C 691.699219 537.832031 687.722656 549.824219 683.742188 561.816406 C 681.179688 569.550781 678.613281 577.285156 675.808594 584.9375 C 672.242188 594.671875 669.132812 601.742188 662.121094 609.007812 C 654.453125 616.953125 652.207031 629.246094 647.34375 638.882812 C 641.050781 651.359375 630.976562 661.445312 621.074219 671.296875 C 615.214844 677.125 608.167969 682.753906 603.390625 689.527344 C 599.386719 695.203125 596.144531 699.050781 590.429688 703.382812 C 576.746094 713.765625 562.335938 723.1875 547.332031 731.550781 C 532.171875 740.003906 516.4375 747.359375 500.714844 754.710938 C 491.449219 759.046875 482.15625 763.332031 472.910156 767.71875 C 464.714844 771.605469 456.289062 773.273438 447.464844 775.539062 C 438.101562 777.945312 428.417969 780.429688 418.625 781.78125 C 404.238281 783.761719 389.039062 783.476562 374.339844 783.199219 C 370.417969 783.132812 366.355469 783.054688 362.398438 783.023438 C 340.75 782.855469 319.902344 780.273438 300.425781 775.347656 C 278.464844 769.792969 256.894531 761.792969 236.308594 751.578125 C 225.46875 746.199219 214.8125 740.152344 204.628906 733.605469 C 176.023438 715.207031 150.804688 692.800781 129.667969 667.007812 C 126.785156 663.484375 123.941406 659.851562 121.21875 656.207031 C 119.292969 653.636719 117.363281 650.9375 115.480469 648.191406 C 100.183594 625.859375 87.550781 600.128906 77.945312 571.71875 C 70.066406 548.398438 61.410156 521.085938 58.464844 492.019531 C 57.1875 479.398438 56.746094 466.730469 57.117188 454.109375 C 57.140625 453.164062 56.242188 452.476562 55.34375 452.769531 C 53.8125 453.265625 51.828125 453.871094 51.515625 453.996094 C 47.914062 455.453125 44.476562 457.378906 41.535156 459.929688 C 38.769531 462.320312 35.972656 465.839844 35.773438 469.667969 C 35.671875 471.578125 35.75 473.566406 35.8125 475.515625 C 36.0625 483.511719 36.671875 491.488281 37.757812 499.410156 C 44.625 549.554688 62.015625 598.226562 88.453125 641.363281 C 92.816406 648.484375 97.457031 655.503906 103.257812 661.507812 C 107.390625 665.789062 112.09375 669.539062 115.828125 674.175781 C 119.699219 678.984375 122.414062 684.609375 125.652344 689.867188 C 141.515625 715.621094 170.160156 736.074219 195.007812 752.558594 C 223.902344 771.726562 255.996094 786.0625 289.578125 794.652344 C 308.757812 799.5625 328.355469 802.617188 347.992188 805.101562 C 359.359375 806.535156 370.792969 807.785156 382.246094 807.519531 C 393.449219 807.257812 404.5625 805.546875 415.605469 803.667969 C 454.253906 797.082031 492.894531 788.210938 528.335938 771.429688 C 540.734375 765.554688 552.679688 758.742188 564.230469 751.332031 C 607.683594 723.445312 642.273438 687 670.445312 643.8125 C 680.75 628.015625 689.710938 611.347656 697.269531 594.070312 C 704.988281 576.4375 712.101562 559.984375 717.003906 542.660156 C 723.386719 520.089844 723.246094 497.019531 726.6875 474.046875 C 726.90625 472.578125 727.121094 471.113281 727.324219 469.644531 C 727.828125 465.980469 728.273438 462.316406 728.640625 458.644531 C 728.574219 456.847656 728.617188 455.074219 728.46875 453.253906 "/></g><path style=" stroke:none;fill-rule:nonzero;fill:#fff23d;fill-opacity:1;" d="M 708.8125 443.089844 C 708.734375 443.082031 708.484375 443.058594 708.4375 443.046875 C 705.1875 442.949219 701.90625 443.015625 698.625 443.175781 C 698.636719 443.824219 698.644531 444.464844 698.644531 445.109375 C 698.644531 448.253906 698.753906 451.367188 698.855469 454.378906 C 699.136719 462.625 699.40625 470.414062 697.464844 477.277344 C 696.300781 481.414062 695.441406 488.863281 694.136719 500.675781 C 692.570312 514.902344 691.824219 533.230469 682.546875 545.015625 C 677.988281 550.800781 672.371094 555.589844 668.113281 561.585938 C 665.027344 565.929688 661.921875 570.316406 659.816406 575.210938 C 658.273438 578.800781 657.296875 582.605469 656.328125 586.386719 C 655.023438 591.488281 653.296875 596.636719 652.667969 601.847656 C 652.039062 607.007812 651.996094 612.238281 649.84375 617.078125 C 647.144531 623.144531 642.265625 628.246094 639.390625 634.308594 C 637.710938 637.976562 636.125 641.441406 634.371094 643.964844 C 629.625 650.785156 624.550781 656.753906 618.789062 662.582031 C 613.167969 668.269531 609.644531 675.871094 603.109375 680.675781 C 599.082031 683.632812 594.105469 685.324219 590.667969 688.949219 C 588.457031 691.285156 587.042969 694.261719 585.046875 696.785156 C 581.996094 700.632812 578.4375 701.667969 574.375 703.84375 C 571.128906 705.582031 568.488281 707.671875 564.941406 709.070312 C 561 710.621094 556.097656 712.554688 550.691406 716.378906 C 539.640625 724.1875 528.0625 724.429688 515.171875 725.269531 C 513.015625 725.410156 510.855469 725.617188 508.75 726.117188 C 503.015625 727.46875 498 730.851562 493.128906 734.171875 C 486.921875 738.402344 483.285156 743.6875 477.789062 748.597656 C 468.171875 757.191406 454.933594 761.492188 442.339844 762.765625 C 434.417969 763.5625 426.625 764.683594 419.089844 765.765625 C 406.585938 767.5625 394.773438 769.261719 382.96875 769.496094 C 373.574219 769.691406 365.164062 768.910156 357.253906 767.109375 C 350.3125 765.527344 343.332031 765.011719 336.574219 764.507812 C 332.636719 764.214844 328.917969 763.9375 325.402344 763.46875 C 316.109375 762.222656 307.453125 758.738281 299.183594 754.429688 C 291.574219 750.46875 284.769531 745.769531 277.296875 741.488281 C 274.496094 739.882812 271.664062 738.273438 268.59375 737.265625 C 263.785156 735.6875 258.535156 736.238281 253.542969 735.230469 C 248.1875 734.148438 242.742188 733.566406 237.40625 732.371094 C 225.734375 729.753906 215.21875 726.101562 205.25 719.261719 C 199.535156 715.339844 193.570312 711.1875 188.453125 706.425781 C 182.734375 701.109375 177.65625 695.128906 171.714844 690.058594 C 160.519531 680.496094 146.25 674.160156 137.804688 662.097656 C 135.417969 658.691406 133.585938 654.9375 131.765625 651.195312 C 130.375 648.34375 128.980469 645.484375 127.863281 642.515625 C 126.027344 637.667969 124.953125 632.554688 122.9375 627.777344 C 122.125 625.863281 120.757812 624.265625 119.917969 622.453125 C 118.914062 620.289062 118.855469 617.546875 118.382812 615.210938 C 116.195312 604.460938 112.617188 594.066406 108.910156 583.765625 C 107.3125 579.328125 105.664062 574.847656 102.988281 570.96875 C 99.527344 565.949219 94.625 562.195312 90.8125 557.480469 C 87.152344 552.957031 86.265625 547.808594 84.09375 542.605469 C 79.25 531.011719 78.863281 518.101562 76.898438 505.839844 C 75.070312 494.417969 73.691406 482.113281 72.6875 468.21875 C 72.527344 465.992188 72.328125 463.722656 72.117188 461.320312 C 71.785156 457.527344 71.4375 453.5 71.242188 449.542969 C 68.945312 449.824219 66.65625 450.144531 64.375 450.523438 C 60.582031 451.152344 56.636719 452.199219 53.035156 453.503906 C 52.921875 458.84375 53.144531 464.050781 53.46875 469.386719 C 53.605469 471.730469 53.792969 474.066406 54.019531 476.398438 C 55.207031 488.441406 56.519531 500.597656 58.773438 512.492188 C 60.675781 522.507812 64.230469 533.039062 64.296875 543.164062 C 64.363281 553.429688 69.351562 564.1875 72.890625 573.679688 C 75.984375 581.980469 79.089844 591.855469 84.644531 598.859375 C 90.066406 605.691406 92.769531 614.125 96.578125 621.980469 C 99.722656 628.472656 102.929688 635.046875 106.996094 640.949219 C 111.132812 646.972656 116.066406 652.097656 120.640625 657.769531 C 132.414062 672.367188 138.484375 690.242188 153.761719 701.90625 C 160.292969 706.894531 167.507812 710.898438 174.238281 715.609375 C 186.585938 724.253906 197.203125 735.207031 209.644531 743.722656 C 218.964844 750.097656 229.175781 755.023438 239.34375 759.917969 C 246.523438 763.378906 253.714844 766.839844 261.199219 769.566406 C 268.042969 772.0625 275.101562 773.929688 282.183594 775.628906 C 300.390625 780 318.851562 783.292969 337.441406 785.484375 C 343.050781 786.148438 348.59375 787.332031 354.234375 787.707031 C 359.101562 788.03125 363.792969 787.339844 368.632812 787.980469 C 381.179688 789.636719 394.839844 787.765625 407.492188 787.402344 C 410.042969 787.332031 412.597656 787.257812 415.132812 786.960938 C 421.867188 786.167969 428.367188 783.808594 435.125 783.28125 C 439.363281 782.949219 443.738281 783.332031 447.765625 781.964844 C 451.308594 780.761719 454.316406 778.273438 457.886719 777.144531 C 463.980469 775.214844 470.761719 777.480469 476.917969 775.761719 C 481.402344 774.511719 485.03125 771.300781 489.042969 768.933594 C 495.714844 764.996094 503.460938 764.167969 509.777344 759.675781 C 514.597656 756.25 518.902344 751.847656 524.484375 749.90625 C 528.496094 748.511719 532.914062 748.5 536.84375 746.882812 C 543.65625 744.074219 550.582031 739.460938 557.132812 735.855469 C 564.816406 731.625 572.121094 726.707031 578.929688 721.171875 C 584.992188 716.246094 590.648438 710.839844 596.296875 705.441406 C 600.363281 701.5625 604.425781 697.679688 608.484375 693.796875 C 617.710938 684.984375 626.964844 676.140625 635.042969 666.265625 C 650.207031 647.730469 660.890625 626.011719 671.4375 604.503906 C 675.949219 595.308594 681.566406 586.492188 684.703125 576.828125 C 688.242188 565.917969 691.9375 553.019531 698.164062 543.308594 C 700.367188 538.742188 702.71875 534.199219 704.011719 529.296875 C 706.015625 521.699219 705.367188 513.671875 706.394531 505.886719 C 707.054688 500.90625 708.394531 496.046875 709.175781 491.089844 C 710.546875 482.371094 710.160156 473.484375 709.769531 464.664062 C 709.449219 457.476562 709.132812 450.28125 708.8125 443.089844 "/><path style=" stroke:none;fill-rule:nonzero;fill:#fff23d;fill-opacity:1;" d="M 404.191406 467.015625 C 403.753906 468.296875 402.648438 469.246094 401.472656 469.90625 C 400.296875 470.570312 399.007812 471.019531 397.832031 471.695312 C 394.3125 473.734375 392.167969 477.949219 392.59375 482 C 392.722656 483.273438 393.066406 484.660156 392.429688 485.773438 C 391.792969 486.882812 390.359375 487.3125 389.097656 487.128906 C 387.273438 486.859375 385.828125 485.574219 384.082031 485.03125 C 381.457031 484.214844 378.636719 484.066406 375.929688 484.570312 C 374.785156 484.78125 373.496094 485.046875 372.546875 485.730469 C 371.664062 486.367188 371.085938 487.125 369.867188 487.210938 C 367.613281 487.367188 365.867188 484.964844 365.132812 482.828125 C 364.398438 480.699219 363.90625 478.246094 361.988281 476.894531 C 360.722656 475.984375 359.015625 475.742188 357.9375 474.636719 C 356.882812 473.554688 356.816406 472.046875 357.257812 470.695312 C 357.464844 470.097656 357.769531 469.523438 358.136719 469.039062 C 359.324219 467.457031 361.050781 466.25 361.890625 464.457031 C 362.238281 463.71875 362.410156 462.917969 362.464844 462.109375 C 362.515625 461.328125 362.371094 460.640625 362.148438 459.976562 C 375.578125 460.054688 389.011719 460.226562 402.429688 460.945312 C 402.472656 461.515625 402.570312 462.082031 402.734375 462.628906 C 402.785156 462.789062 402.839844 462.949219 402.894531 463.113281 C 403.511719 464.679688 404.820312 465.164062 404.191406 467.015625 "/><path style=" stroke:none;fill-rule:nonzero;fill:#fff23d;fill-opacity:1;" d="M 467.644531 724.019531 C 454.710938 746.871094 419.347656 749.464844 393.332031 749.992188 C 370.34375 750.457031 346.769531 748.863281 324.679688 742.171875 C 272.042969 726.21875 327.699219 627.28125 338.359375 600.507812 C 347.695312 577.070312 357.03125 553.628906 366.367188 530.183594 C 368.382812 525.117188 372.429688 506.269531 376.433594 503.441406 C 387.457031 495.664062 391.667969 515.65625 394.597656 522.316406 C 398.8125 531.90625 403.296875 541.386719 407.640625 550.917969 C 418.058594 573.757812 428.476562 596.59375 438.894531 619.433594 C 451.214844 646.441406 474.140625 674.859375 472.578125 705.988281 C 472.222656 713.089844 470.46875 719.035156 467.644531 724.019531 "/><path style=" stroke:none;fill-rule:nonzero;fill:#fff23d;fill-opacity:1;" d="M 599.375 448.714844 C 582.828125 450.890625 566.210938 452.59375 549.550781 453.941406 C 511.335938 458.867188 472.828125 462.472656 434.316406 462.136719 C 439.230469 467.246094 451.21875 470.597656 455.96875 472.445312 C 506.277344 492.058594 556.574219 511.703125 606.894531 531.28125 C 617.941406 535.578125 629.445312 538.957031 639.765625 538.347656 C 650.941406 537.695312 660.726562 532.371094 667.027344 518.496094 C 676.164062 498.382812 676.765625 474.121094 677.3125 452.386719 C 677.375 450.019531 677.40625 447.457031 677.402344 444.753906 C 651.386719 446.433594 625.300781 445.300781 599.375 448.714844 "/><path style=" stroke:none;fill-rule:nonzero;fill:#fff23d;fill-opacity:1;" d="M 616.960938 566.371094 C 626.585938 576.503906 631.757812 588.554688 629.152344 603.046875 C 625.160156 625.316406 609.5 646.75 592.882812 661.234375 C 569.730469 681.410156 535.113281 709.332031 503.089844 691.738281 C 486.132812 682.425781 478.179688 648.953125 470.351562 631.546875 C 459.355469 607.113281 448.363281 582.675781 437.375 558.242188 C 428.683594 538.929688 398.46875 489.703125 407.195312 482.53125 C 415.320312 475.847656 442.976562 490.632812 456.796875 496.027344 C 473.5625 502.570312 490.320312 509.109375 507.082031 515.652344 C 532.648438 525.628906 591 539.042969 616.960938 566.371094 "/><path style=" stroke:none;fill-rule:nonzero;fill:#fff23d;fill-opacity:1;" d="M 299.050781 458.140625 C 297.660156 458.1875 296.273438 458.230469 294.886719 458.261719 C 280.5625 458.53125 266.226562 456.898438 251.917969 456.292969 C 223.179688 455.078125 194.398438 454.960938 165.675781 453.332031 C 159.472656 452.980469 153.300781 452.445312 147.144531 451.839844 C 132.710938 451.414062 118.335938 450.5 103.902344 449.773438 C 99.5625 449.554688 95.203125 449.367188 90.832031 449.257812 C 90.617188 453.609375 90.472656 457.6875 90.320312 461.316406 C 88.558594 503.371094 100.289062 570.023438 157.5 545.535156 C 179.230469 536.234375 200.699219 526.257812 222.285156 516.625 C 245.925781 506.070312 269.566406 495.519531 293.210938 484.96875 C 300.554688 481.691406 336.820312 469.84375 345.378906 459.875 C 337.753906 459.820312 330.132812 459.734375 322.511719 459.527344 C 314.660156 459.316406 306.847656 458.792969 299.050781 458.140625 "/><path style=" stroke:none;fill-rule:nonzero;fill:#fff23d;fill-opacity:1;" d="M 254.347656 701.980469 C 230.472656 707.589844 200.539062 690.25 179.492188 671.292969 C 153.796875 648.152344 127.996094 611.921875 154.539062 579.234375 C 173.1875 556.269531 206.238281 549.417969 232.039062 537.914062 C 254.984375 527.683594 277.933594 517.453125 300.882812 507.21875 C 310.234375 503.050781 341.617188 481.53125 351.445312 489.414062 C 362.648438 498.402344 340.207031 530.113281 336.59375 539.308594 C 327.328125 562.871094 318.066406 586.433594 308.808594 609.996094 C 300.652344 630.746094 292.496094 651.488281 284.339844 672.238281 C 277.296875 690.148438 266.621094 699.097656 254.347656 701.980469 "/><path style=" stroke:none;fill-rule:nonzero;fill:#ffe030;fill-opacity:1;" d="M 434.445312 707.378906 C 428.339844 714.324219 418.558594 719.054688 406.894531 720.703125 C 392.398438 722.75 377.359375 719.601562 365.632812 712.058594 C 361.722656 709.542969 358.242188 706.574219 355.296875 703.230469 C 351.074219 698.445312 347.9375 692.378906 346.222656 685.675781 C 342.375 670.65625 346.71875 656.46875 351.316406 641.453125 C 351.769531 639.96875 352.226562 638.484375 352.675781 636.988281 C 355.152344 628.769531 358.539062 620.09375 363.035156 610.46875 C 364.164062 608.050781 365.21875 605.558594 366.238281 603.15625 C 370.097656 594.03125 373.746094 585.414062 381.128906 580.925781 C 383.71875 579.355469 387.652344 577.570312 391.707031 577.988281 C 393.390625 578.164062 395 578.753906 396.621094 579.796875 C 403.492188 584.214844 408.722656 595.546875 412.539062 603.824219 C 413.433594 605.765625 414.277344 607.601562 415.105469 609.273438 C 421.65625 622.546875 427.5 636.320312 432.46875 650.21875 C 439.941406 671.097656 446.019531 694.214844 434.445312 707.378906 Z M 479.101562 706.316406 C 480.328125 681.851562 468.167969 659.972656 456.40625 638.816406 C 452.136719 631.140625 448.105469 623.886719 444.835938 616.71875 L 429.210938 582.457031 L 413.582031 548.199219 C 412.128906 545.011719 410.660156 541.832031 409.191406 538.652344 C 406.324219 532.441406 403.359375 526.019531 400.570312 519.679688 C 400.171875 518.773438 399.660156 517.3125 399.113281 515.773438 C 396.796875 509.1875 393.910156 501 387.953125 497.167969 C 385.78125 495.769531 383.421875 495.085938 380.941406 495.136719 C 378.160156 495.191406 375.375 496.1875 372.671875 498.097656 C 368.289062 501.1875 365.855469 508.820312 362.367188 521.015625 C 361.546875 523.871094 360.777344 526.5625 360.300781 527.761719 L 332.296875 598.085938 C 330.832031 601.765625 328.371094 607.101562 325.523438 613.28125 C 317.507812 630.664062 305.398438 656.929688 299.484375 681.171875 C 296.28125 694.316406 294.136719 708.765625 297.527344 722.101562 C 304.589844 749.898438 340.597656 748.375 362.816406 752.492188 C 371.074219 754.019531 379.375 755.554688 387.773438 755.792969 C 397.820312 756.085938 407.765625 754.492188 417.589844 752.542969 C 425.101562 751.054688 432.335938 751.648438 439.914062 749.984375 C 455.085938 746.65625 465.609375 740.875 473.328125 727.25 C 476.765625 721.171875 478.707031 714.132812 479.101562 706.316406 "/><path style=" stroke:none;fill-rule:nonzero;fill:#ffe030;fill-opacity:1;" d="M 678.800781 444.667969 C 670.917969 445.207031 663.023438 445.476562 655.132812 445.679688 C 655.058594 446.03125 654.984375 446.378906 654.90625 446.734375 C 653.613281 452.890625 653.402344 459.871094 652.886719 466.136719 C 652.335938 472.78125 649.285156 480.605469 645.132812 485.882812 C 641.011719 491.121094 634.9375 494.035156 628.410156 494.800781 C 625.480469 495.144531 622.8125 495.585938 619.828125 495.578125 C 618.664062 495.570312 613.96875 494.949219 613.199219 496.144531 C 609.367188 496.25 605.515625 496.351562 601.71875 495.800781 C 595.949219 494.96875 590.507812 492.667969 584.933594 490.9375 C 576.203125 488.222656 567.0625 486.882812 558.460938 483.789062 C 552.679688 481.714844 547.214844 478.867188 541.765625 476.035156 C 536.171875 473.125 530.578125 470.214844 524.988281 467.304688 C 520.667969 465.058594 516.347656 462.808594 512.027344 460.5625 C 510.867188 459.960938 509.367188 459.355469 507.886719 458.65625 C 507.886719 458.65625 503.640625 459.046875 502.390625 459.160156 C 500.390625 459.335938 498.394531 459.503906 496.390625 459.667969 C 492.394531 459.996094 488.390625 460.296875 484.386719 460.566406 C 476.382812 461.105469 468.371094 461.523438 460.351562 461.792969 C 444.738281 462.328125 429.242188 461.847656 413.648438 461.589844 C 415.585938 464.578125 419.039062 466.15625 422.324219 467.523438 C 429.191406 470.382812 436.160156 473 443.214844 475.363281 C 449.417969 477.441406 456.566406 478.59375 462.292969 481.660156 C 468.683594 485.078125 475.984375 487.265625 482.746094 489.90625 C 489.765625 492.644531 496.789062 495.386719 503.804688 498.121094 C 536.816406 511 570.945312 524.308594 604.53125 537.378906 C 626.808594 546.046875 655.066406 550.546875 672.316406 529.644531 C 674.367188 527.164062 676.15625 524.390625 677.019531 521.289062 C 679.027344 514.105469 677.898438 505.769531 679.242188 498.363281 C 680.035156 494.015625 682.546875 490.464844 683.699219 486.289062 C 684.671875 482.761719 685.09375 478.621094 685.574219 475.007812 C 686.953125 464.714844 683.972656 454.546875 683.929688 444.273438 C 682.199219 444.414062 680.484375 444.550781 678.800781 444.667969 "/><path style=" stroke:none;fill-rule:nonzero;fill:#ffe030;fill-opacity:1;" d="M 588.457031 620.773438 C 576.1875 636.375 562.808594 646.105469 552.664062 646.800781 C 540.535156 647.636719 526.460938 643.949219 515.9375 637.183594 C 514.605469 636.324219 513.332031 635.414062 512.144531 634.480469 C 500.605469 625.390625 492.527344 612.515625 486.148438 601.125 C 480.339844 590.757812 475.0625 579.9375 470.457031 568.964844 C 469.835938 567.480469 469.179688 565.96875 468.515625 564.429688 C 466.195312 559.050781 463.792969 553.492188 462.199219 548.007812 C 461.074219 544.136719 460.480469 540.75 460.378906 537.648438 C 460.25 533.675781 461.40625 530.128906 463.476562 528.15625 C 465.234375 526.484375 468.058594 525.46875 471.433594 525.292969 C 479.644531 524.867188 488.589844 527.394531 497.238281 529.839844 C 498.875 530.300781 500.496094 530.757812 502.09375 531.191406 C 513.835938 534.378906 524.058594 537.589844 533.339844 541 C 549.417969 546.914062 563.160156 553.597656 575.359375 561.441406 C 576.019531 561.867188 576.683594 562.300781 577.34375 562.738281 C 591.863281 572.367188 599.578125 581.855469 601.621094 592.59375 C 603.367188 601.808594 593.667969 614.144531 588.457031 620.773438 Z M 635.585938 604.207031 C 638.359375 588.738281 633.683594 574.492188 621.691406 561.863281 C 617.003906 556.929688 611.074219 552.140625 604.066406 547.632812 C 582.3125 533.644531 553.84375 524.375 530.964844 516.925781 C 522.460938 514.15625 515.117188 511.769531 509.457031 509.554688 L 467.449219 493.167969 L 459.171875 489.933594 C 456.46875 488.882812 453.074219 487.390625 449.484375 485.8125 C 436.976562 480.316406 422.800781 474.089844 412.730469 474.292969 C 408.777344 474.375 405.519531 475.445312 403.050781 477.476562 C 395.988281 483.285156 399.566406 495.007812 404.488281 506.8125 C 409.019531 517.691406 415.761719 530.492188 421.707031 541.796875 C 425.601562 549.1875 429.277344 556.171875 431.417969 560.929688 L 439.683594 579.304688 L 464.398438 634.234375 C 466.21875 638.28125 468.113281 643.429688 470.121094 648.878906 C 476.796875 666.996094 484.363281 687.53125 498.199219 696.429688 C 498.777344 696.800781 499.363281 697.152344 499.949219 697.472656 C 507.933594 701.859375 516.789062 703.808594 525.828125 704.0625 C 535.105469 704.320312 542.632812 698.929688 551.53125 697.132812 C 554.605469 696.515625 557.765625 696.410156 560.808594 695.652344 C 575.953125 691.878906 588.019531 673.339844 598.320312 662.6875 C 600.03125 660.921875 601.746094 659.160156 603.460938 657.402344 C 610.257812 650.417969 616.472656 643.367188 623.347656 636.539062 C 631.695312 627.441406 633.503906 615.777344 635.585938 604.207031 "/><path style=" stroke:none;fill-rule:nonzero;fill:#ffe030;fill-opacity:1;" d="M 299.066406 458.140625 C 297.671875 458.1875 296.28125 458.230469 294.886719 458.261719 C 284.332031 458.460938 273.765625 457.628906 263.210938 456.929688 C 259.046875 460.746094 252.761719 464.378906 247.164062 467.605469 C 245.523438 468.554688 243.96875 469.445312 242.480469 470.339844 C 237.148438 473.535156 231.613281 476.246094 225.753906 479.109375 C 223.898438 480.015625 222.039062 480.925781 220.191406 481.847656 C 198.359375 492.765625 176.609375 498.679688 155.554688 499.4375 C 150.265625 499.625 143.441406 499.558594 137.566406 497.359375 C 136.230469 496.859375 134.945312 496.21875 133.75 495.449219 C 122.480469 488.199219 119.644531 470.269531 118.953125 462.894531 C 118.566406 458.78125 118.390625 454.660156 118.410156 450.542969 C 113.578125 450.28125 108.746094 450.015625 103.902344 449.773438 C 97.402344 449.441406 90.851562 449.1875 84.300781 449.160156 C 83.84375 458.503906 81.84375 465.738281 83.539062 475.304688 C 84.851562 482.714844 85.746094 490.359375 87.496094 497.679688 C 89.109375 504.457031 91.617188 510.589844 91.640625 517.761719 C 91.652344 520.90625 91.34375 524.074219 91.808594 527.1875 C 92.613281 532.550781 95.671875 537.320312 99.191406 541.441406 C 106.25 549.710938 116.046875 556.234375 126.871094 558.101562 C 137.40625 559.921875 150.414062 555.683594 160.066406 551.546875 C 174.601562 545.328125 189.226562 538.710938 203.371094 532.3125 C 217.332031 525.996094 230.984375 520.519531 245.414062 515.414062 C 260.082031 510.226562 274.566406 504.273438 287.863281 496.117188 C 300.933594 488.097656 315.894531 483.671875 329.765625 477.246094 C 335.214844 474.71875 340.761719 472.015625 345.585938 468.386719 C 346.464844 467.722656 353.046875 459.921875 352.976562 459.921875 C 342.824219 459.867188 332.667969 459.800781 322.511719 459.527344 C 314.667969 459.316406 306.855469 458.792969 299.066406 458.140625 "/><path style=" stroke:none;fill-rule:nonzero;fill:#ffe030;fill-opacity:1;" d="M 264.28125 639.878906 C 261.34375 644.574219 258.203125 649.148438 254.347656 652.824219 C 247.652344 659.203125 237.730469 661.464844 228.578125 660.179688 C 215.453125 658.335938 202.492188 649.789062 194.421875 639.40625 C 191.054688 635.078125 188.621094 630.4375 186.46875 625.417969 C 184.824219 621.578125 181.882812 617.875 180.765625 613.894531 C 180.191406 611.851562 180.328125 609.683594 180.5625 607.578125 C 182.945312 586.164062 199.554688 573.507812 218.421875 565.65625 C 221.496094 564.378906 224.589844 563.332031 227.867188 562.21875 C 231.597656 560.957031 235.453125 559.648438 239.339844 557.960938 L 261.347656 548.378906 C 264.46875 547.023438 267.65625 545.472656 270.742188 543.976562 C 281.351562 538.820312 292.320312 533.492188 302.773438 534.644531 C 304.347656 534.8125 305.8125 535.292969 306.886719 535.984375 C 307.417969 536.328125 307.847656 536.714844 308.167969 537.144531 C 310.046875 539.667969 309.175781 544.589844 307.960938 549.53125 C 307.765625 550.324219 307.550781 551.128906 307.335938 551.929688 C 304.136719 563.566406 298.84375 574.320312 293.242188 585.707031 C 291.222656 589.808594 289.136719 594.050781 287.160156 598.328125 L 286.566406 599.617188 C 281.992188 609.527344 277.429688 619.5625 271.304688 628.632812 C 268.910156 632.1875 266.660156 636.070312 264.28125 639.878906 Z M 314.882812 612.394531 L 332.695312 567.070312 L 342.671875 541.703125 C 343.351562 539.972656 345.222656 536.59375 347.203125 533.011719 C 351.019531 526.117188 355.769531 517.539062 358.601562 509.417969 C 362.699219 497.679688 361.664062 489.230469 355.527344 484.308594 C 355.171875 484.023438 354.796875 483.75 354.410156 483.5 C 351.871094 481.871094 348.753906 481.082031 345.132812 481.15625 C 333.855469 481.382812 318.167969 490.21875 306.714844 496.671875 C 303.125 498.695312 300.027344 500.4375 298.222656 501.242188 L 270.445312 513.628906 L 229.382812 531.9375 C 222.984375 534.792969 216.171875 537.332031 208.960938 540.027344 C 187.09375 548.179688 164.484375 556.617188 149.472656 575.105469 C 142.679688 583.472656 135.449219 596.640625 136.414062 607.859375 C 137.113281 616.019531 138.796875 623.542969 141.175781 631.300781 C 147.082031 650.570312 162.421875 661.621094 175.957031 675.394531 C 182.667969 682.226562 188.808594 690.355469 196.773438 695.757812 C 203.039062 700.007812 211.597656 701.183594 218.535156 704.085938 C 227.050781 707.644531 236.59375 709.769531 245.835938 709.582031 C 249.289062 709.515625 252.65625 709.097656 255.839844 708.347656 C 271.425781 704.6875 283.058594 693.34375 290.417969 674.632812 C 298.570312 653.886719 306.726562 633.140625 314.882812 612.394531 "/><path style=" stroke:none;fill-rule:nonzero;fill:#faffa1;fill-opacity:1;" d="M 165.675781 453.332031 C 159.476562 452.980469 153.308594 452.445312 147.152344 451.839844 C 140.648438 451.644531 134.148438 451.359375 127.65625 451.027344 C 127.671875 451.375 127.683594 451.722656 127.707031 452.070312 C 128.996094 470.761719 142.402344 490.535156 162.621094 479.882812 C 169.988281 476 176.683594 470.835938 182.292969 464.671875 C 185.058594 461.636719 187.605469 458.167969 189.023438 454.367188 C 181.238281 454.097656 173.457031 453.773438 165.675781 453.332031 "/><path style=" stroke:none;fill-rule:nonzero;fill:#faffa1;fill-opacity:1;" d="M 203.191406 596.007812 C 206.78125 593.023438 211.300781 591.035156 215.910156 590.160156 C 225.355469 588.371094 249.722656 589.589844 252.410156 601.828125 C 253.273438 605.742188 252.152344 609.828125 251.722656 613.71875 C 251.207031 618.394531 250.5 623.105469 248.859375 627.535156 C 244.78125 638.570312 233.6875 647.035156 221.855469 642.351562 C 212.289062 638.570312 207.582031 630.839844 201.695312 623.15625 C 197.019531 617.050781 193.992188 610.695312 197.550781 603.164062 C 198.871094 600.371094 200.832031 597.972656 203.191406 596.007812 "/><path style=" stroke:none;fill-rule:nonzero;fill:#faffa1;fill-opacity:1;" d="M 368.746094 692.609375 C 367.972656 689.652344 367.859375 686.578125 368.550781 683.960938 C 369.59375 680.019531 371.746094 676.480469 373.867188 673.003906 C 376.121094 669.320312 378.398438 665.601562 381.441406 662.539062 C 384.484375 659.480469 388.410156 657.09375 392.703125 656.726562 C 398.617188 656.21875 404.207031 659.539062 408.613281 663.523438 C 414.921875 669.226562 425.949219 682.640625 423.558594 691.828125 C 420.796875 702.445312 408.171875 707.621094 398.277344 708.128906 C 391.003906 708.5 381.105469 706.816406 374.992188 702.433594 C 371.976562 700.269531 369.777344 696.542969 368.746094 692.609375 "/><path style=" stroke:none;fill-rule:nonzero;fill:#faffa1;fill-opacity:1;" d="M 540.210938 625.5 C 533.4375 619.914062 530.738281 609.5 529.371094 601.210938 C 528.234375 594.320312 529.222656 586.757812 533.589844 581.3125 C 540.917969 572.167969 552.605469 573.195312 562.480469 577.085938 C 569.578125 579.886719 578.238281 583.433594 582.332031 590.320312 C 587.832031 599.578125 578.863281 611.925781 573.261719 619.078125 C 569.566406 623.800781 564.6875 627.804688 558.910156 629.382812 C 553.082031 630.980469 546.582031 629.90625 541.574219 626.519531 C 541.101562 626.203125 540.648438 625.863281 540.210938 625.5 "/><path style=" stroke:none;fill-rule:nonzero;fill:#faffa1;fill-opacity:1;" d="M 599.375 448.714844 C 594.441406 449.363281 589.5 449.957031 584.558594 450.527344 C 586.085938 456.179688 591.382812 460.203125 596.296875 463.613281 C 601.1875 467.011719 606.183594 470.464844 611.886719 472.179688 C 615.4375 473.25 618.6875 473.410156 621.613281 472.847656 C 632.785156 470.714844 639.191406 458.140625 639.523438 446.058594 C 626.117188 446.40625 612.726562 446.957031 599.375 448.714844 "/></g></svg>